<?xml version="1.0" encoding="utf-8"?>
<!-- Generator: Adobe Illustrator 17.1.0, SVG Export Plug-In . SVG Version: 6.00 Build 0)  -->
<svg version="1.2" baseProfile="tiny" id="圖層_1"
	 xmlns="http://www.w3.org/2000/svg" xmlns:xlink="http://www.w3.org/1999/xlink" x="0px" y="0px" viewBox="0 0 123.3 61.3"
	 xml:space="preserve">
<path fill="#FFFFFF" d="M9.8,8.4h2.5l-2.6,6.8h1.1v13.5H5.1V16.3H3.5l2.8-7H3.6l2.9-7.1h5.8L9.8,8.4z M28.2,21.4v7.3H22l-1.3-2.9h2
	v-4.4H11.3v-3h11.3v-1.2H11.9v-2.8h17.7v2.8h-1.4v1.2h2.2v3H28.2z M15,27.7L12.5,22h5.8l2.5,5.7H15z M12.6,13.3V2.5h16.7v10.8H12.6z
	 M23.9,5.4H18v1.1h5.9V5.4z M23.9,9.2H18v1.2h5.9V9.2z"/>
<path fill="#FFFFFF" d="M52.5,28.7l-5.4-3.8l-5.5,3.8h-8.4l8.2-5.7H34v-2.6h10.2v-2.1h5.5v2.1h2.5L51.8,19h5.5l0.4,1.4h2.5V23H49.8
	l-1,0.8h5.1l7.2,4.9H52.5z M59.2,13.9v4.5h-6.7l-0.3-0.6h-4.7l-2.2-3.2h5.6l0.9,1.4h2.2v-2h-9.4v-2.5h9.4V9.7l-1.2,0.9h-7.7l-1.1-2
	v9.7h-5v-4.9h-0.9v3.3l-0.8,1.6h-4l1.1-2v-2.9h-0.7v-2.8H39V8.8h-4.8V2.9H38v3.2h1V2.2h5v3.6l3.3-3.6h6l-0.7,0.8h7.1v2.6l-5.1,3.8
	h4.6v2.1h1.1v2.5H59.2z M48.3,6.5H44v1.8h1.4L44.8,7H48l0.7,1.2h0.7L48.3,6.5z M50.4,5.4l-0.5,0.5h1.3l0.3,0.5l1.4-1.1H50.4z"/>
<path fill="#FFFFFF" d="M63.7,7.5V4.7h2.9l-0.6-2.4h5.5L72,4.7h2.6v2.9H63.7z M64.3,11.8V8.9h9.6v2.9H64.3z M64.3,16.1v-2.9h9.6v2.9
	H64.3z M64.3,28.7V17.5h9.6v11.2H64.3z M69.7,20.4h-1.3v5.4h1.3V20.4z M89.5,28.7h-5.9V17.8h-2v10.9h-5.2V17.8h-2v-3h2V6.3h5.2v8.4
	h2V5.5h-8.4V2.5h13.6v23.2h2L89.5,28.7z"/>
<path fill="#FFFFFF" d="M98.8,28.6h-5.2l1.6-8.3h5.2L98.8,28.6z M95,19.2V4h5.9l0.7-1.8h6.3L107.2,4h11.6v15.2H95z M113.2,6.7h-12.4
	v1.5h12.4V6.7z M113.2,10.8h-12.4v1.6h12.4V10.8z M113.2,14.8h-12.4v1.6h12.4V14.8z M113.3,28.6h-12.4v-8.3h5.4v5.5h8.2L113.3,28.6z
	 M108.2,24.7l-1-4.5h5.1l1.1,4.5H108.2z M115.3,28.6l-1.6-8.3h5.3l1.6,8.3H115.3z"/>
<path fill="#FFFFFF" d="M17.1,36.1l-1.7,3.8h4.8v19.3h-5.9V42.4L8.9,54.4H2.7l8.2-18.3H3.3v-3h26.1v3H17.1z M24.3,54.5l-4.1-15.9H26
	l4.1,15.9H24.3z"/>
<path fill="#FFFFFF" d="M33.9,39.4l-1-6.5h4.8l1,6.5H33.9z M34.1,47L33,40.3h4.8l1.1,6.7H34.1z M37.7,59.3h-4.6l1-11.3h4.7
	L37.7,59.3z M54.4,44.2v1.6h4.8v13.5h-4.1l-1-2.6h1.3v-0.7h-1.2l-0.5-1.8v4.8h-3.2v-3h-1.2l-0.6-2.2v5.6H45V45.8h4.9v-1.6h-5.8v11.4
	l-1.2,3.7H38l1.4-4.4V33.1h19.9v7.1H44.1v1.3h15.7v2.7H54.4z M54.2,35.8H44.1v1.9h10.1V35.8z M50.6,48.5h-1.8v0.8h1.1l0.7,2.3V48.5z
	 M50.6,52.2h-1.2l-0.6-2V53H50l0.6,2.2V52.2z M55.5,48.5h-1.7v0.8h1.1l0.6,2.5V48.5z M55.5,52.2h-1.2l-0.5-1.7V53h1.1l0.7,2.4V52.2z
	"/>
<path fill="#FFFFFF" d="M70.3,46.7v12.5h-6.4l-1.1-2.8h2.3v-6.4l-2,1.3v-3.4l2-1.3v-7.2H63v-2.8h2.1v-3.9h5.2v3.9h1.4v2.8h-1.4v3.8
	l1.4-0.8v3.3L70.3,46.7z M82.3,59.2l-1.5-1l-1.7,1h-8.3l5.9-3.5l-3.1-2v-3.4h-1.5v-2.8h1.5v-1.9h5.2v1.9h4.1v-1.9h5.2v1.9h1.7v2.8
	h-1.7v3.6L85,55.8l5.4,3.4H82.3z M72.1,44.9V42h2.2l-1.2-3.6h5.3l1.3,3.6H82l1.2-3.6h5.2L87.3,42h2.4v2.8H72.1z M72.4,37.6v-2.7h5.5
	l-0.6-2h5.9l0.6,2H89v2.7H72.4z M82.9,50.3h-4.1v1.6l2,1.3l2-1.2V50.3z"/>
<polygon fill="#FFFFFF" points="114.9,41.8 109.8,37.5 109.8,43.8 94.5,43.8 94.5,48.4 109.8,48.4 109.8,54.8 114.9,50.4 
	119.9,46.1 "/>
</svg>
