<?xml version="1.0" encoding="utf-8"?>
<!-- Generator: Adobe Illustrator 17.1.0, SVG Export Plug-In . SVG Version: 6.00 Build 0)  -->
<svg version="1.2" baseProfile="tiny" id="圖層_1"
	 xmlns="http://www.w3.org/2000/svg" xmlns:xlink="http://www.w3.org/1999/xlink" x="0px" y="0px" viewBox="0 0 254 140"
	 xml:space="preserve">
<circle fill="#303030" stroke="#FFFFFF" stroke-miterlimit="10" cx="85.3" cy="118.2" r="9.5"/>
<circle fill="#303030" stroke="#FFFFFF" stroke-miterlimit="10" cx="24.4" cy="41.8" r="9.5"/>
<circle fill="#303030" stroke="#FFFFFF" stroke-miterlimit="10" cx="140.3" cy="23.2" r="13.2"/>
<circle fill="#303030" stroke="#FFFFFF" stroke-miterlimit="10" cx="237.3" cy="47.3" r="6"/>
<g>
	<path fill="#ADD9E0" d="M237.3,41.6c-0.6-6.4-19.4-4.9-23.7-3.3c-7.5,2.8-11.6,2.8-14-5.3c-11.1,2.6-19.8,11.5-32.3,7.8
		c-8-2.4-5.3-10.7-11-12.6C147,25.1,134.6,44,123.1,41c-7.3-1.9-4.7-12.3-12.8-13.9c-14.9-2.9-16.6,14-27.2,17.6
		c-9.3,3.1-9.5-8.1-13.4-13.2c-5.4-7.1-8.5-4.4-12.8,1.3c-4.5,6-8.1,11-15.5,12.9c-6.5,1.7-17.5-1.9-22.4,3.4
		c-2.5,2.7-0.8,6.6-3.1,9.6c-2,2.4-5.4,3.5-7.5,6.2c-3.1,4.1-4,10.7-0.9,14.9c1.8,2.4,5.3,3.3,6.9,6c1.9,3,1.1,7.3,3.3,10.2
		c4.7,6.2,11.6,2.3,17.9,3.8c6.8,1.6,9.5,11.4,16.8,10.4c2.6-0.4,5.6-4.3,8-4.1c2.7,0.2,6.2,5.1,8.2,6.7c6.3,5.1,13,7.3,20.5,3.6
		c5.3-2.6,10.6-10.3,17.1-8.7c3.1,0.8,4.5,3.8,7.7,4.5c3.1,0.7,5.6-1.4,8.1-3.2c7-4.9,10.5-5.6,18.3-1.8c4.8,2.4,11,5.1,16.5,4.7
		c4.2-0.3,7.3-3.2,11.2-4.6c12.8-4.6,23.5,4.7,35.9,2.9c4.7-0.7,7.2-4.2,9.9-7.5c2.7-3.4,6.3-4.5,10.5-7c5.2-3,3.5-4.2,3.5-8.6
		c0-4.5,1.3-4.9,5.2-7.4c1.8-1.2,4.6-2.1,5.3-4.4c0.7-2.2-1.5-3.3-0.4-5.8c2.2-5.1,10.5-3.6,12.2-9.9c3.6-13.5-18-4.3-20.6-10.4
		C232.3,47.1,237.7,45.8,237.3,41.6z"/>
	<path fill="#38ACC6" d="M50.3,72.4c-0.1-8.9-2.8-11-10-16.2C33,51.1,25.6,38.6,39,35.6c5.3-1.2,8.7,1.6,13.9,1.5
		c5.2-0.1,10.2-4.2,15.2-0.6c7.3,5.4,5.3,22.3,13.6,5.2c2.5-5.3,4.2-10.7,10-12.9c8.9-3.4,9.5,2.7,12.3,8.9
		c7.5,16.4,14.8-10.8,24.9-4.8c4.3,2.6,0.3,10.9,6.8,11.3c4.5,0.3,9.7-8.3,13.8-10c7.1-2.8,6.5,0.4,11.1,4c7.7,6,13.3,0,20.9-4
		c10.7-5.7,6.9,1.7,14.7,4.1c7.1,2.2,18.6-9.6,25.4-5.2c8.4,5.5-3,14.8-5.5,19.1c-3.1,5.4-0.8,10.3-2.6,15.3
		c-3.1,8.7-18,9.4-26,10.2c-15.3,1.6-30.5-0.9-45.8-0.8c-22,0-43.8-1.4-65.8-1.3c-7.9,0-18.2,0.4-25.8-2"/>
	<path fill="#38ACC6" d="M52.6,51.8c-7,0.9-20.3-8.5-26.9-2c-2.4,2.3-0.1,5-1.2,7.3c-1.4,2.7-2.2,2.2-4.7,3.9
		c-3.9,2.6-7.3,3.1-9.3,7.9c-1.3,3.1-1.8,5.7,0.3,8.5c1.7,2.3,5.4,1.9,7,4c1.6,2.1,1.2,5.3,2.1,7.8c4.3,11.9,10.3,6.5,19,7.9
		c4.4,0.7,5.8,4.5,10.7,5.3c3.9,0.6,7-2.3,10.3-2c4.7,0.4,5.5,4.4,9.2,6.6c3.9,2.3,12,4,16.5,3.3c10.2-1.5,12-12.3,23.2-7.9
		c5.3,2.1,8.6,5.4,14.7,2.7c4.8-2.2,6.6-7.7,12.9-7.1c3.9,0.4,7.5,3.8,11.3,5.1c6.4,2.3,16.1,3.3,22.9,2c5.2-1,8.3-4.8,13.5-5.2
		c5.3-0.3,11.8,3.9,17.2,1.8c3.4-1.3,6.2-4.6,10.5-6c2-0.7,5.1-0.7,6.7-2.2c3.2-2.9,0.8-4.9,2.5-8c2-3.4,6.7-4.8,9-8.5
		c0.6-1,0.2-3.3,0.7-4c1.9-2.7,4.2-2.9,6.6-5.1c3.3-2.9,4.7-6.2,3.9-10.9c-0.8-5-4.9-6.1-6.6-9.7c-2.5-5.4,1.3-8.6-6.5-9.8
		c-4.1-0.6-6.1,1.3-9.6,2.7c-8.8,3.4-20.1,3.3-25.7,11.7c-3.9,5.7-4.5,15-9.8,19.8c-6.8,6.1-21.3,5.1-29.8,5.8
		c-16.5,1.3-33.2,0.8-49.7-1.3c-9.8-1.3-19.6-0.8-29.4-2.4c-10.6-1.8-25.3-10.8-30.8-20.5"/>
	<path fill="#2F8FAD" d="M68.8,61.9c-3.5-8.7-12.6-11.2-21-12.4c-3.8-0.5-9.2-2.2-12.1,1c-2.7,2.9-2.3,8,0.9,10.1
		c-3.9,1.4-8.3,1.3-12.4,3.6c-3.4,1.9-6.4,6.9-2.5,10.4c1.8,1.7,5,0.9,6.1,2.7c0.8,1.3-0.4,3.6-0.3,4.9c0.6,5,6.5,6.8,11.1,5.5
		c1.3-0.4,3.2-2.6,4.6-2.5c2.6,0.1,4.6,4,7.6,4.6c7.3,1.6,10.4-4.9,17-4.6c3.1,0.1,2.7,1.3,4.3,3.8c1.8,2.6,4.5,5.1,7.5,6.2
		c8.5,3.4,14.9-6.4,22.7-7.4c5.1-0.6,7.9,4,13.4,2.6c3-0.8,5.5-2.8,8.5-3.6c5.9-1.6,13.6,0.5,19,3c10.2,4.8,21.3,11.5,30.8,1.5
		c4.3-4.5,5.5,0.6,11.2,1.1c4.3,0.4,6.6-2.8,10.7-3.5c3.5-0.6,11.6,2.9,14.1-1.3c1.5-2.6-1.4-5.1,1.5-7.5c2-1.7,5.4-1.1,7.7-1.9
		c2.4-0.9,3.2-0.9,3.2-4.1c0-2-0.6-4.9-2.8-5.5c1.7-1,4.4-0.8,6.4-1.3c2.7-0.7,5.1-2.1,7.2-3.9c4.9-4.3,5.6-8.8,1.3-14.1
		c-4.2-5.1-11.6-3.4-15.6,1.2c3.2-1.1,7.9-4.7,4.8-8.4c-2.7-3.3-9.5-1.5-12.7-0.6c-9.9,2.7-22.7,5.1-26.5,16.3
		c-0.5,1.3-0.5,2.6-0.7,4c-0.5,3.2-0.2,4.1-2.6,5.9c-4.3,3.3-7,0.1-12.1,0.8c-10.4,1.5-20.9,1.4-31.4,1.3c-9.2-0.1-18.3-1-27.5-1
		c-7.1,0-14.3,0.4-21.4-0.6c-6.2-0.9-12.1-2.3-17.9-4.3"/>
	<path fill="#2F8FAD" d="M66.4,69.6c-4.4-6.4-10.2-15.1,1.5-13.2c5.5,0.9,6.6,2.9,11.9-0.2c4-2.4,6.3-7.6,10-10
		c9.9-6.5,13.8,14.3,23.3,7.7c6.9-4.8,1.2-8.2,10.7-3.8c4.8,2.2,8.1,3.5,13.3,1.4c1.5-0.6,3.2-2.9,4.8-3.2c3.2-0.6,2.7,1.1,5.4,1.2
		c3.7,0.1,11.4-2.8,14.6-1.8c4.2,1.3,3.4,6.6,9.5,7c6.4,0.4,11-6.9,17.4-7.1c5.1-0.1,9,3.5,10.8,8c5.8,14.3-11.9,13.7-21.8,14.6
		c-25,2.2-50,1.6-75,2.5c-7.9,0.3-24.1,2.9-31.2-2.5c-3.3-2.5-5.5-9.5-5.4-13.4"/>
</g>
<g>
	<g>
		<g>
			<circle fill="#38ACC6" cx="58" cy="52.7" r="12.4"/>
			<path fill="#FFFFFF" d="M58,65.4c-7,0-12.7-5.7-12.7-12.7S51,39.9,58,39.9s12.7,5.7,12.7,12.7S65,65.4,58,65.4z M58,40.7
				c-6.6,0-12,5.4-12,12s5.4,12,12,12c6.6,0,12-5.4,12-12S64.6,40.7,58,40.7z"/>
		</g>
		<g>
			<circle fill="#ADD9E0" cx="58" cy="52.7" r="9.2"/>
			<path fill="#FFFFFF" d="M58,62.3c-5.3,0-9.6-4.3-9.6-9.6s4.3-9.6,9.6-9.6s9.6,4.3,9.6,9.6S63.3,62.3,58,62.3z M58,43.8
				c-4.9,0-8.8,4-8.8,8.8s4,8.8,8.8,8.8s8.8-4,8.8-8.8S62.9,43.8,58,43.8z"/>
		</g>
		<g>
			<circle fill="#2F8FAD" cx="58" cy="52.7" r="6.1"/>
			<path fill="#FFFFFF" d="M58,59.2c-3.6,0-6.5-2.9-6.5-6.5c0-3.6,2.9-6.5,6.5-6.5c3.6,0,6.5,2.9,6.5,6.5
				C64.5,56.2,61.6,59.2,58,59.2z M58,47c-3.1,0-5.7,2.6-5.7,5.7c0,3.1,2.6,5.7,5.7,5.7c3.1,0,5.7-2.6,5.7-5.7
				C63.7,49.5,61.2,47,58,47z"/>
		</g>
	</g>
	<g>
		<g>
			<circle fill="#38ACC6" cx="74.3" cy="43.5" r="12.4"/>
			<path fill="#FFFFFF" d="M74.3,56.2c-7,0-12.7-5.7-12.7-12.7s5.7-12.7,12.7-12.7c7,0,12.7,5.7,12.7,12.7S81.3,56.2,74.3,56.2z
				 M74.3,31.5c-6.6,0-12,5.4-12,12s5.4,12,12,12s12-5.4,12-12S80.9,31.5,74.3,31.5z"/>
		</g>
		<g>
			<circle fill="#ADD9E0" cx="74.3" cy="43.5" r="9.2"/>
			<path fill="#FFFFFF" d="M74.3,53.1c-5.3,0-9.6-4.3-9.6-9.6s4.3-9.6,9.6-9.6c5.3,0,9.6,4.3,9.6,9.6S79.6,53.1,74.3,53.1z
				 M74.3,34.6c-4.9,0-8.8,4-8.8,8.8s4,8.8,8.8,8.8c4.9,0,8.8-4,8.8-8.8S79.2,34.6,74.3,34.6z"/>
		</g>
		<g>
			<circle fill="#2F8FAD" cx="74.3" cy="43.5" r="6.1"/>
			<path fill="#FFFFFF" d="M74.3,49.9c-3.6,0-6.5-2.9-6.5-6.5c0-3.6,2.9-6.5,6.5-6.5c3.6,0,6.5,2.9,6.5,6.5
				C80.8,47,77.9,49.9,74.3,49.9z M74.3,37.8c-3.1,0-5.7,2.6-5.7,5.7c0,3.1,2.6,5.7,5.7,5.7c3.1,0,5.7-2.6,5.7-5.7
				C80,40.3,77.5,37.8,74.3,37.8z"/>
		</g>
	</g>
	<g>
		<g>
			<circle fill="#38ACC6" cx="77.8" cy="58.8" r="12.4"/>
			<path fill="#FFFFFF" d="M77.8,71.5c-7,0-12.7-5.7-12.7-12.7S70.8,46,77.8,46c7,0,12.7,5.7,12.7,12.7S84.8,71.5,77.8,71.5z
				 M77.8,46.8c-6.6,0-12,5.4-12,12s5.4,12,12,12s12-5.4,12-12S84.4,46.8,77.8,46.8z"/>
		</g>
		<g>
			<circle fill="#ADD9E0" cx="77.8" cy="58.8" r="9.2"/>
			<path fill="#FFFFFF" d="M77.8,68.4c-5.3,0-9.6-4.3-9.6-9.6s4.3-9.6,9.6-9.6c5.3,0,9.6,4.3,9.6,9.6S83.1,68.4,77.8,68.4z
				 M77.8,49.9c-4.9,0-8.8,4-8.8,8.8s4,8.8,8.8,8.8c4.9,0,8.8-4,8.8-8.8S82.7,49.9,77.8,49.9z"/>
		</g>
		<g>
			<circle fill="#2F8FAD" cx="77.8" cy="58.8" r="6.1"/>
			<path fill="#FFFFFF" d="M77.8,65.2c-3.6,0-6.5-2.9-6.5-6.5c0-3.6,2.9-6.5,6.5-6.5c3.6,0,6.5,2.9,6.5,6.5
				C84.3,62.3,81.4,65.2,77.8,65.2z M77.8,53.1c-3.1,0-5.7,2.6-5.7,5.7c0,3.1,2.6,5.7,5.7,5.7c3.1,0,5.7-2.6,5.7-5.7
				C83.5,55.6,81,53.1,77.8,53.1z"/>
		</g>
	</g>
	<g>
		<g>
			<circle fill="#38ACC6" cx="43.1" cy="70.2" r="12.4"/>
			<path fill="#FFFFFF" d="M43.1,82.9c-7,0-12.7-5.7-12.7-12.7c0-7,5.7-12.7,12.7-12.7s12.7,5.7,12.7,12.7
				C55.9,77.2,50.2,82.9,43.1,82.9z M43.1,58.2c-6.6,0-12,5.4-12,12s5.4,12,12,12s12-5.4,12-12S49.7,58.2,43.1,58.2z"/>
		</g>
		<g>
			<circle fill="#ADD9E0" cx="43.1" cy="70.2" r="9.2"/>
			<path fill="#FFFFFF" d="M43.1,79.8c-5.3,0-9.6-4.3-9.6-9.6c0-5.3,4.3-9.6,9.6-9.6s9.6,4.3,9.6,9.6C52.7,75.4,48.4,79.8,43.1,79.8
				z M43.1,61.3c-4.9,0-8.8,4-8.8,8.8c0,4.9,4,8.8,8.8,8.8s8.8-4,8.8-8.8C52,65.3,48,61.3,43.1,61.3z"/>
		</g>
		<g>
			<circle fill="#2F8FAD" cx="43.1" cy="70.2" r="6.1"/>
			<path fill="#FFFFFF" d="M43.1,76.6c-3.6,0-6.5-2.9-6.5-6.5c0-3.6,2.9-6.5,6.5-6.5s6.5,2.9,6.5,6.5C49.6,73.7,46.7,76.6,43.1,76.6
				z M43.1,64.4c-3.1,0-5.7,2.6-5.7,5.7c0,3.1,2.6,5.7,5.7,5.7c3.1,0,5.7-2.6,5.7-5.7C48.8,67,46.3,64.4,43.1,64.4z"/>
		</g>
	</g>
	<g>
		<g>
			<circle fill="#38ACC6" cx="64.7" cy="68.4" r="12.4"/>
			<path fill="#FFFFFF" d="M64.7,81.1c-7,0-12.7-5.7-12.7-12.7c0-7,5.7-12.7,12.7-12.7c7,0,12.7,5.7,12.7,12.7
				C77.4,75.4,71.7,81.1,64.7,81.1z M64.7,56.4c-6.6,0-12,5.4-12,12s5.4,12,12,12s12-5.4,12-12S71.3,56.4,64.7,56.4z"/>
		</g>
		<g>
			<circle fill="#ADD9E0" cx="64.7" cy="68.4" r="9.2"/>
			<path fill="#FFFFFF" d="M64.7,78c-5.3,0-9.6-4.3-9.6-9.6s4.3-9.6,9.6-9.6s9.6,4.3,9.6,9.6S70,78,64.7,78z M64.7,59.5
				c-4.9,0-8.8,4-8.8,8.8c0,4.9,4,8.8,8.8,8.8c4.9,0,8.8-4,8.8-8.8C73.5,63.5,69.6,59.5,64.7,59.5z"/>
		</g>
		<g>
			<circle fill="#2F8FAD" cx="64.7" cy="68.4" r="6.1"/>
			<path fill="#FFFFFF" d="M64.7,74.8c-3.6,0-6.5-2.9-6.5-6.5c0-3.6,2.9-6.5,6.5-6.5c3.6,0,6.5,2.9,6.5,6.5
				C71.2,71.9,68.3,74.8,64.7,74.8z M64.7,62.7c-3.1,0-5.7,2.6-5.7,5.7c0,3.1,2.6,5.7,5.7,5.7c3.1,0,5.7-2.6,5.7-5.7
				C70.4,65.2,67.9,62.7,64.7,62.7z"/>
		</g>
	</g>
	<g>
		<g>
			<circle fill="#38ACC6" cx="86.7" cy="63.7" r="12.4"/>
			<path fill="#FFFFFF" d="M86.7,76.4c-7,0-12.7-5.7-12.7-12.7s5.7-12.7,12.7-12.7c7,0,12.7,5.7,12.7,12.7S93.7,76.4,86.7,76.4z
				 M86.7,51.7c-6.6,0-12,5.4-12,12s5.4,12,12,12s12-5.4,12-12S93.3,51.7,86.7,51.7z"/>
		</g>
		<g>
			<circle fill="#ADD9E0" cx="86.7" cy="63.7" r="9.2"/>
			<path fill="#FFFFFF" d="M86.7,73.3c-5.3,0-9.6-4.3-9.6-9.6s4.3-9.6,9.6-9.6c5.3,0,9.6,4.3,9.6,9.6S92,73.3,86.7,73.3z M86.7,54.8
				c-4.9,0-8.8,4-8.8,8.8s4,8.8,8.8,8.8c4.9,0,8.8-4,8.8-8.8S91.5,54.8,86.7,54.8z"/>
		</g>
		<g>
			<circle fill="#2F8FAD" cx="86.7" cy="63.7" r="6.1"/>
			<path fill="#FFFFFF" d="M86.7,70.2c-3.6,0-6.5-2.9-6.5-6.5c0-3.6,2.9-6.5,6.5-6.5c3.6,0,6.5,2.9,6.5,6.5
				C93.1,67.2,90.2,70.2,86.7,70.2z M86.7,58c-3.1,0-5.7,2.6-5.7,5.7c0,3.1,2.6,5.7,5.7,5.7c3.1,0,5.7-2.6,5.7-5.7
				C92.4,60.5,89.8,58,86.7,58z"/>
		</g>
	</g>
	<g>
		<g>
			<circle fill="#38ACC6" cx="90.6" cy="53.1" r="8.8"/>
			<path fill="#FFFFFF" d="M90.6,62.2c-5,0-9.1-4.1-9.1-9.1s4.1-9.1,9.1-9.1s9.1,4.1,9.1,9.1S95.6,62.2,90.6,62.2z M90.6,44.5
				c-4.7,0-8.6,3.8-8.6,8.6s3.8,8.6,8.6,8.6s8.6-3.8,8.6-8.6S95.3,44.5,90.6,44.5z"/>
		</g>
		<g>
			<circle fill="#ADD9E0" cx="90.6" cy="53.1" r="6.6"/>
			<path fill="#FFFFFF" d="M90.6,59.9c-3.8,0-6.9-3.1-6.9-6.9c0-3.8,3.1-6.9,6.9-6.9s6.9,3.1,6.9,6.9C97.4,56.8,94.3,59.9,90.6,59.9
				z M90.6,46.7c-3.5,0-6.3,2.8-6.3,6.3c0,3.5,2.8,6.3,6.3,6.3c3.5,0,6.3-2.8,6.3-6.3C96.9,49.6,94,46.7,90.6,46.7z"/>
		</g>
		<g>
			<circle fill="#2F8FAD" cx="90.6" cy="53.1" r="4.4"/>
			<path fill="#FFFFFF" d="M90.6,57.7c-2.6,0-4.6-2.1-4.6-4.6c0-2.6,2.1-4.6,4.6-4.6c2.6,0,4.6,2.1,4.6,4.6
				C95.2,55.6,93.1,57.7,90.6,57.7z M90.6,49c-2.3,0-4.1,1.8-4.1,4.1c0,2.3,1.8,4.1,4.1,4.1c2.3,0,4.1-1.8,4.1-4.1
				C94.6,50.8,92.8,49,90.6,49z"/>
		</g>
	</g>
	<g>
		<g>
			<circle fill="#38ACC6" cx="77.8" cy="74.8" r="8.8"/>
			<path fill="#FFFFFF" d="M77.8,84c-5,0-9.1-4.1-9.1-9.1s4.1-9.1,9.1-9.1s9.1,4.1,9.1,9.1S82.8,84,77.8,84z M77.8,66.3
				c-4.7,0-8.6,3.8-8.6,8.6c0,4.7,3.8,8.6,8.6,8.6c4.7,0,8.6-3.8,8.6-8.6C86.4,70.1,82.5,66.3,77.8,66.3z"/>
		</g>
		<g>
			<circle fill="#ADD9E0" cx="77.8" cy="74.8" r="6.6"/>
			<path fill="#FFFFFF" d="M77.8,81.7c-3.8,0-6.9-3.1-6.9-6.9S74,68,77.8,68s6.9,3.1,6.9,6.9S81.6,81.7,77.8,81.7z M77.8,68.5
				c-3.5,0-6.3,2.8-6.3,6.3c0,3.5,2.8,6.3,6.3,6.3c3.5,0,6.3-2.8,6.3-6.3C84.1,71.4,81.3,68.5,77.8,68.5z"/>
		</g>
		<g>
			<circle fill="#2F8FAD" cx="77.8" cy="74.8" r="4.4"/>
			<path fill="#FFFFFF" d="M77.8,79.5c-2.6,0-4.6-2.1-4.6-4.6c0-2.6,2.1-4.6,4.6-4.6c2.6,0,4.6,2.1,4.6,4.6
				C82.5,77.4,80.4,79.5,77.8,79.5z M77.8,70.8c-2.3,0-4.1,1.8-4.1,4.1c0,2.3,1.8,4.1,4.1,4.1c2.3,0,4.1-1.8,4.1-4.1
				C81.9,72.6,80.1,70.8,77.8,70.8z"/>
		</g>
	</g>
	<g>
		<g>
			<circle fill="#38ACC6" cx="97.2" cy="74.8" r="8.8"/>
			<path fill="#FFFFFF" d="M97.2,84c-5,0-9.1-4.1-9.1-9.1s4.1-9.1,9.1-9.1s9.1,4.1,9.1,9.1S102.2,84,97.2,84z M97.2,66.3
				c-4.7,0-8.6,3.8-8.6,8.6c0,4.7,3.8,8.6,8.6,8.6s8.6-3.8,8.6-8.6C105.7,70.1,101.9,66.3,97.2,66.3z"/>
		</g>
		<g>
			<circle fill="#ADD9E0" cx="97.2" cy="74.8" r="6.6"/>
			<path fill="#FFFFFF" d="M97.2,81.7c-3.8,0-6.9-3.1-6.9-6.9c0-3.8,3.1-6.9,6.9-6.9s6.9,3.1,6.9,6.9C104,78.6,100.9,81.7,97.2,81.7
				z M97.2,68.5c-3.5,0-6.3,2.8-6.3,6.3c0,3.5,2.8,6.3,6.3,6.3c3.5,0,6.3-2.8,6.3-6.3C103.5,71.4,100.6,68.5,97.2,68.5z"/>
		</g>
		<g>
			<circle fill="#2F8FAD" cx="97.2" cy="74.8" r="4.4"/>
			<path fill="#FFFFFF" d="M97.2,79.5c-2.6,0-4.6-2.1-4.6-4.6c0-2.6,2.1-4.6,4.6-4.6s4.6,2.1,4.6,4.6
				C101.8,77.4,99.7,79.5,97.2,79.5z M97.2,70.8c-2.3,0-4.1,1.8-4.1,4.1c0,2.3,1.8,4.1,4.1,4.1c2.3,0,4.1-1.8,4.1-4.1
				C101.2,72.6,99.4,70.8,97.2,70.8z"/>
		</g>
	</g>
	<g>
		<g>
			<circle fill="#38ACC6" cx="104" cy="60.9" r="8.8"/>
			<path fill="#FFFFFF" d="M104,70c-5,0-9.1-4.1-9.1-9.1s4.1-9.1,9.1-9.1s9.1,4.1,9.1,9.1S109,70,104,70z M104,52.4
				c-4.7,0-8.6,3.8-8.6,8.6s3.8,8.6,8.6,8.6c4.7,0,8.6-3.8,8.6-8.6S108.7,52.4,104,52.4z"/>
		</g>
		<g>
			<circle fill="#ADD9E0" cx="104" cy="60.9" r="6.6"/>
			<path fill="#FFFFFF" d="M104,67.8c-3.8,0-6.9-3.1-6.9-6.9s3.1-6.9,6.9-6.9c3.8,0,6.9,3.1,6.9,6.9S107.8,67.8,104,67.8z M104,54.6
				c-3.5,0-6.3,2.8-6.3,6.3c0,3.5,2.8,6.3,6.3,6.3c3.5,0,6.3-2.8,6.3-6.3C110.3,57.4,107.5,54.6,104,54.6z"/>
		</g>
		<g>
			<circle fill="#2F8FAD" cx="104" cy="60.9" r="4.4"/>
			<path fill="#FFFFFF" d="M104,65.6c-2.6,0-4.6-2.1-4.6-4.6c0-2.6,2.1-4.6,4.6-4.6c2.6,0,4.6,2.1,4.6,4.6
				C108.7,63.5,106.6,65.6,104,65.6z M104,56.8c-2.3,0-4.1,1.8-4.1,4.1c0,2.3,1.8,4.1,4.1,4.1c2.3,0,4.1-1.8,4.1-4.1
				C108.1,58.7,106.3,56.8,104,56.8z"/>
		</g>
	</g>
	<g>
		<g>
			<circle fill="#38ACC6" cx="106" cy="50.9" r="8.8"/>
			<path fill="#FFFFFF" d="M106,60.1c-5,0-9.1-4.1-9.1-9.1s4.1-9.1,9.1-9.1s9.1,4.1,9.1,9.1S111,60.1,106,60.1z M106,42.4
				c-4.7,0-8.6,3.8-8.6,8.6s3.8,8.6,8.6,8.6c4.7,0,8.6-3.8,8.6-8.6S110.7,42.4,106,42.4z"/>
		</g>
		<g>
			<circle fill="#ADD9E0" cx="106" cy="50.9" r="6.6"/>
			<path fill="#FFFFFF" d="M106,57.8c-3.8,0-6.9-3.1-6.9-6.9c0-3.8,3.1-6.9,6.9-6.9s6.9,3.1,6.9,6.9C112.9,54.7,109.8,57.8,106,57.8
				z M106,44.6c-3.5,0-6.3,2.8-6.3,6.3c0,3.5,2.8,6.3,6.3,6.3c3.5,0,6.3-2.8,6.3-6.3C112.3,47.5,109.5,44.6,106,44.6z"/>
		</g>
		<g>
			<circle fill="#2F8FAD" cx="106" cy="50.9" r="4.4"/>
			<path fill="#FFFFFF" d="M106,55.6c-2.6,0-4.6-2.1-4.6-4.6c0-2.6,2.1-4.6,4.6-4.6c2.6,0,4.6,2.1,4.6,4.6
				C110.6,53.5,108.6,55.6,106,55.6z M106,46.9c-2.3,0-4.1,1.8-4.1,4.1c0,2.3,1.8,4.1,4.1,4.1c2.3,0,4.1-1.8,4.1-4.1
				C110.1,48.7,108.2,46.9,106,46.9z"/>
		</g>
	</g>
</g>
<g>
	<g>
		<g>
			<circle fill="#38ACC6" cx="75.4" cy="81.2" r="12.4"/>
			<path fill="#FFFFFF" d="M75.4,94c-7,0-12.7-5.7-12.7-12.7c0-7,5.7-12.7,12.7-12.7c7,0,12.7,5.7,12.7,12.7
				C88.2,88.3,82.5,94,75.4,94z M75.4,69.3c-6.6,0-12,5.4-12,12s5.4,12,12,12s12-5.4,12-12S82,69.3,75.4,69.3z"/>
		</g>
		<g>
			<circle fill="#ADD9E0" cx="75.4" cy="81.2" r="9.2"/>
			<path fill="#FFFFFF" d="M75.4,90.8c-5.3,0-9.6-4.3-9.6-9.6c0-5.3,4.3-9.6,9.6-9.6c5.3,0,9.6,4.3,9.6,9.6
				C85,86.5,80.7,90.8,75.4,90.8z M75.4,72.4c-4.9,0-8.8,4-8.8,8.8c0,4.9,4,8.8,8.8,8.8c4.9,0,8.8-4,8.8-8.8
				C84.3,76.4,80.3,72.4,75.4,72.4z"/>
		</g>
		<g>
			<circle fill="#2F8FAD" cx="75.4" cy="81.2" r="6.1"/>
			<path fill="#FFFFFF" d="M75.4,87.7c-3.6,0-6.5-2.9-6.5-6.5c0-3.6,2.9-6.5,6.5-6.5c3.6,0,6.5,2.9,6.5,6.5
				C81.9,84.8,79,87.7,75.4,87.7z M75.4,75.5c-3.1,0-5.7,2.6-5.7,5.7c0,3.1,2.6,5.7,5.7,5.7c3.1,0,5.7-2.6,5.7-5.7
				C81.2,78.1,78.6,75.5,75.4,75.5z"/>
		</g>
	</g>
	<g>
		<g>
			<circle fill="#38ACC6" cx="91.7" cy="72" r="12.4"/>
			<path fill="#FFFFFF" d="M91.7,84.8C84.7,84.8,79,79,79,72s5.7-12.7,12.7-12.7c7,0,12.7,5.7,12.7,12.7S98.7,84.8,91.7,84.8z
				 M91.7,60c-6.6,0-12,5.4-12,12s5.4,12,12,12s12-5.4,12-12S98.3,60,91.7,60z"/>
		</g>
		<g>
			<circle fill="#ADD9E0" cx="91.7" cy="72" r="9.2"/>
			<path fill="#FFFFFF" d="M91.7,81.6c-5.3,0-9.6-4.3-9.6-9.6c0-5.3,4.3-9.6,9.6-9.6c5.3,0,9.6,4.3,9.6,9.6
				C101.3,77.3,97,81.6,91.7,81.6z M91.7,63.2c-4.9,0-8.8,4-8.8,8.8s4,8.8,8.8,8.8c4.9,0,8.8-4,8.8-8.8S96.6,63.2,91.7,63.2z"/>
		</g>
		<g>
			<circle fill="#2F8FAD" cx="91.7" cy="72" r="6.1"/>
			<path fill="#FFFFFF" d="M91.7,78.5c-3.6,0-6.5-2.9-6.5-6.5s2.9-6.5,6.5-6.5c3.6,0,6.5,2.9,6.5,6.5S95.3,78.5,91.7,78.5z
				 M91.7,66.3c-3.1,0-5.7,2.6-5.7,5.7c0,3.1,2.6,5.7,5.7,5.7c3.1,0,5.7-2.6,5.7-5.7C97.4,68.9,94.9,66.3,91.7,66.3z"/>
		</g>
	</g>
	<g>
		<g>
			<circle fill="#38ACC6" cx="95.2" cy="87.3" r="12.4"/>
			<path fill="#FFFFFF" d="M95.2,100.1c-7,0-12.7-5.7-12.7-12.7c0-7,5.7-12.7,12.7-12.7c7,0,12.7,5.7,12.7,12.7
				C108,94.4,102.3,100.1,95.2,100.1z M95.2,75.4c-6.6,0-12,5.4-12,12c0,6.6,5.4,12,12,12s12-5.4,12-12
				C107.2,80.7,101.8,75.4,95.2,75.4z"/>
		</g>
		<g>
			<circle fill="#ADD9E0" cx="95.2" cy="87.3" r="9.2"/>
			<path fill="#FFFFFF" d="M95.2,96.9c-5.3,0-9.6-4.3-9.6-9.6c0-5.3,4.3-9.6,9.6-9.6c5.3,0,9.6,4.3,9.6,9.6
				C104.8,92.6,100.5,96.9,95.2,96.9z M95.2,78.5c-4.9,0-8.8,4-8.8,8.8c0,4.9,4,8.8,8.8,8.8c4.9,0,8.8-4,8.8-8.8
				C104.1,82.5,100.1,78.5,95.2,78.5z"/>
		</g>
		<g>
			<circle fill="#2F8FAD" cx="95.2" cy="87.3" r="6.1"/>
			<path fill="#FFFFFF" d="M95.2,93.8c-3.6,0-6.5-2.9-6.5-6.5c0-3.6,2.9-6.5,6.5-6.5c3.6,0,6.5,2.9,6.5,6.5
				C101.7,90.9,98.8,93.8,95.2,93.8z M95.2,81.6c-3.1,0-5.7,2.6-5.7,5.7c0,3.1,2.6,5.7,5.7,5.7c3.1,0,5.7-2.6,5.7-5.7
				C101,84.2,98.4,81.6,95.2,81.6z"/>
		</g>
	</g>
	<g>
		<g>
			<circle fill="#38ACC6" cx="60.6" cy="98.7" r="12.4"/>
			<path fill="#FFFFFF" d="M60.6,111.4c-7,0-12.7-5.7-12.7-12.7c0-7,5.7-12.7,12.7-12.7s12.7,5.7,12.7,12.7
				C73.3,105.7,67.6,111.4,60.6,111.4z M60.6,86.7c-6.6,0-12,5.4-12,12s5.4,12,12,12s12-5.4,12-12S67.2,86.7,60.6,86.7z"/>
		</g>
		<g>
			<circle fill="#ADD9E0" cx="60.6" cy="98.7" r="9.2"/>
			<path fill="#FFFFFF" d="M60.6,108.3c-5.3,0-9.6-4.3-9.6-9.6c0-5.3,4.3-9.6,9.6-9.6s9.6,4.3,9.6,9.6
				C70.2,104,65.9,108.3,60.6,108.3z M60.6,89.9c-4.9,0-8.8,4-8.8,8.8c0,4.9,4,8.8,8.8,8.8s8.8-4,8.8-8.8
				C69.4,93.8,65.4,89.9,60.6,89.9z"/>
		</g>
		<g>
			<circle fill="#2F8FAD" cx="60.6" cy="98.7" r="6.1"/>
			<path fill="#FFFFFF" d="M60.6,105.2c-3.6,0-6.5-2.9-6.5-6.5c0-3.6,2.9-6.5,6.5-6.5s6.5,2.9,6.5,6.5
				C67,102.3,64.1,105.2,60.6,105.2z M60.6,93c-3.1,0-5.7,2.6-5.7,5.7c0,3.1,2.6,5.7,5.7,5.7c3.1,0,5.7-2.6,5.7-5.7
				C66.3,95.6,63.7,93,60.6,93z"/>
		</g>
	</g>
	<g>
		<g>
			<circle fill="#38ACC6" cx="82.1" cy="96.9" r="12.4"/>
			<path fill="#FFFFFF" d="M82.1,109.7c-7,0-12.7-5.7-12.7-12.7s5.7-12.7,12.7-12.7c7,0,12.7,5.7,12.7,12.7S89.1,109.7,82.1,109.7z
				 M82.1,85c-6.6,0-12,5.4-12,12s5.4,12,12,12s12-5.4,12-12S88.7,85,82.1,85z"/>
		</g>
		<g>
			<circle fill="#ADD9E0" cx="82.1" cy="96.9" r="9.2"/>
			<path fill="#FFFFFF" d="M82.1,106.5c-5.3,0-9.6-4.3-9.6-9.6s4.3-9.6,9.6-9.6c5.3,0,9.6,4.3,9.6,9.6S87.4,106.5,82.1,106.5z
				 M82.1,88.1c-4.9,0-8.8,4-8.8,8.8s4,8.8,8.8,8.8c4.9,0,8.8-4,8.8-8.8S87,88.1,82.1,88.1z"/>
		</g>
		<g>
			<circle fill="#2F8FAD" cx="82.1" cy="96.9" r="6.1"/>
			<path fill="#FFFFFF" d="M82.1,103.4c-3.6,0-6.5-2.9-6.5-6.5s2.9-6.5,6.5-6.5c3.6,0,6.5,2.9,6.5,6.5S85.7,103.4,82.1,103.4z
				 M82.1,91.2c-3.1,0-5.7,2.6-5.7,5.7c0,3.1,2.6,5.7,5.7,5.7c3.1,0,5.7-2.6,5.7-5.7C87.8,93.8,85.3,91.2,82.1,91.2z"/>
		</g>
	</g>
	<g>
		<g>
			<circle fill="#38ACC6" cx="104.1" cy="92.2" r="12.4"/>
			<path fill="#FFFFFF" d="M104.1,105c-7,0-12.7-5.7-12.7-12.7c0-7,5.7-12.7,12.7-12.7c7,0,12.7,5.7,12.7,12.7
				C116.8,99.3,111.1,105,104.1,105z M104.1,80.3c-6.6,0-12,5.4-12,12s5.4,12,12,12s12-5.4,12-12S110.7,80.3,104.1,80.3z"/>
		</g>
		<g>
			<circle fill="#ADD9E0" cx="104.1" cy="92.2" r="9.2"/>
			<path fill="#FFFFFF" d="M104.1,101.8c-5.3,0-9.6-4.3-9.6-9.6c0-5.3,4.3-9.6,9.6-9.6c5.3,0,9.6,4.3,9.6,9.6
				C113.7,97.5,109.4,101.8,104.1,101.8z M104.1,83.4c-4.9,0-8.8,4-8.8,8.8c0,4.9,4,8.8,8.8,8.8c4.9,0,8.8-4,8.8-8.8
				C112.9,87.4,109,83.4,104.1,83.4z"/>
		</g>
		<g>
			<circle fill="#2F8FAD" cx="104.1" cy="92.2" r="6.1"/>
			<path fill="#FFFFFF" d="M104.1,98.7c-3.6,0-6.5-2.9-6.5-6.5c0-3.6,2.9-6.5,6.5-6.5c3.6,0,6.5,2.9,6.5,6.5
				C110.6,95.8,107.6,98.7,104.1,98.7z M104.1,86.5c-3.1,0-5.7,2.6-5.7,5.7c0,3.1,2.6,5.7,5.7,5.7c3.1,0,5.7-2.6,5.7-5.7
				C109.8,89.1,107.2,86.5,104.1,86.5z"/>
		</g>
	</g>
	<g>
		<g>
			<circle fill="#38ACC6" cx="108" cy="81.6" r="8.8"/>
			<path fill="#FFFFFF" d="M108,90.7c-5,0-9.1-4.1-9.1-9.1c0-5,4.1-9.1,9.1-9.1s9.1,4.1,9.1,9.1C117.1,86.6,113,90.7,108,90.7z
				 M108,73c-4.7,0-8.6,3.8-8.6,8.6c0,4.7,3.8,8.6,8.6,8.6c4.7,0,8.6-3.8,8.6-8.6C116.6,76.9,112.7,73,108,73z"/>
		</g>
		<g>
			<circle fill="#ADD9E0" cx="108" cy="81.6" r="6.6"/>
			<path fill="#FFFFFF" d="M108,88.5c-3.8,0-6.9-3.1-6.9-6.9c0-3.8,3.1-6.9,6.9-6.9s6.9,3.1,6.9,6.9C114.8,85.4,111.8,88.5,108,88.5
				z M108,75.3c-3.5,0-6.3,2.8-6.3,6.3c0,3.5,2.8,6.3,6.3,6.3c3.5,0,6.3-2.8,6.3-6.3C114.3,78.1,111.5,75.3,108,75.3z"/>
		</g>
		<g>
			<circle fill="#2F8FAD" cx="108" cy="81.6" r="4.4"/>
			<path fill="#FFFFFF" d="M108,86.2c-2.6,0-4.6-2.1-4.6-4.6c0-2.6,2.1-4.6,4.6-4.6c2.6,0,4.6,2.1,4.6,4.6
				C112.6,84.2,110.5,86.2,108,86.2z M108,77.5c-2.3,0-4.1,1.8-4.1,4.1c0,2.3,1.8,4.1,4.1,4.1c2.3,0,4.1-1.8,4.1-4.1
				C112.1,79.4,110.2,77.5,108,77.5z"/>
		</g>
	</g>
	<g>
		<g>
			<circle fill="#38ACC6" cx="95.2" cy="103.4" r="8.8"/>
			<path fill="#FFFFFF" d="M95.2,112.5c-5,0-9.1-4.1-9.1-9.1s4.1-9.1,9.1-9.1s9.1,4.1,9.1,9.1S100.3,112.5,95.2,112.5z M95.2,94.8
				c-4.7,0-8.6,3.8-8.6,8.6c0,4.7,3.8,8.6,8.6,8.6c4.7,0,8.6-3.8,8.6-8.6C103.8,98.7,100,94.8,95.2,94.8z"/>
		</g>
		<g>
			<circle fill="#ADD9E0" cx="95.2" cy="103.4" r="6.6"/>
			<path fill="#FFFFFF" d="M95.2,110.3c-3.8,0-6.9-3.1-6.9-6.9c0-3.8,3.1-6.9,6.9-6.9s6.9,3.1,6.9,6.9
				C102.1,107.2,99,110.3,95.2,110.3z M95.2,97.1c-3.5,0-6.3,2.8-6.3,6.3c0,3.5,2.8,6.3,6.3,6.3c3.5,0,6.3-2.8,6.3-6.3
				C101.6,99.9,98.7,97.1,95.2,97.1z"/>
		</g>
		<g>
			<circle fill="#2F8FAD" cx="95.2" cy="103.4" r="4.4"/>
			<path fill="#FFFFFF" d="M95.2,108c-2.6,0-4.6-2.1-4.6-4.6c0-2.6,2.1-4.6,4.6-4.6c2.6,0,4.6,2.1,4.6,4.6
				C99.9,106,97.8,108,95.2,108z M95.2,99.3c-2.3,0-4.1,1.8-4.1,4.1c0,2.3,1.8,4.1,4.1,4.1c2.3,0,4.1-1.8,4.1-4.1
				C99.3,101.1,97.5,99.3,95.2,99.3z"/>
		</g>
	</g>
	<g>
		<g>
			<circle fill="#38ACC6" cx="114.6" cy="103.4" r="8.8"/>
			<path fill="#FFFFFF" d="M114.6,112.5c-5,0-9.1-4.1-9.1-9.1s4.1-9.1,9.1-9.1s9.1,4.1,9.1,9.1S119.6,112.5,114.6,112.5z
				 M114.6,94.8c-4.7,0-8.6,3.8-8.6,8.6c0,4.7,3.8,8.6,8.6,8.6s8.6-3.8,8.6-8.6C123.1,98.7,119.3,94.8,114.6,94.8z"/>
		</g>
		<g>
			<circle fill="#ADD9E0" cx="114.6" cy="103.4" r="6.6"/>
			<path fill="#FFFFFF" d="M114.6,110.3c-3.8,0-6.9-3.1-6.9-6.9s3.1-6.9,6.9-6.9s6.9,3.1,6.9,6.9S118.4,110.3,114.6,110.3z
				 M114.6,97.1c-3.5,0-6.3,2.8-6.3,6.3c0,3.5,2.8,6.3,6.3,6.3c3.5,0,6.3-2.8,6.3-6.3C120.9,99.9,118.1,97.1,114.6,97.1z"/>
		</g>
		<g>
			<circle fill="#2F8FAD" cx="114.6" cy="103.4" r="4.4"/>
			<path fill="#FFFFFF" d="M114.6,108c-2.6,0-4.6-2.1-4.6-4.6c0-2.6,2.1-4.6,4.6-4.6c2.6,0,4.6,2.1,4.6,4.6
				C119.2,106,117.1,108,114.6,108z M114.6,99.3c-2.3,0-4.1,1.8-4.1,4.1c0,2.3,1.8,4.1,4.1,4.1c2.3,0,4.1-1.8,4.1-4.1
				C118.7,101.1,116.8,99.3,114.6,99.3z"/>
		</g>
	</g>
	<g>
		<g>
			<circle fill="#38ACC6" cx="121.4" cy="89.5" r="8.8"/>
			<path fill="#FFFFFF" d="M121.4,98.6c-5,0-9.1-4.1-9.1-9.1s4.1-9.1,9.1-9.1s9.1,4.1,9.1,9.1S126.5,98.6,121.4,98.6z M121.4,80.9
				c-4.7,0-8.6,3.8-8.6,8.6c0,4.7,3.8,8.6,8.6,8.6c4.7,0,8.6-3.8,8.6-8.6C130,84.8,126.2,80.9,121.4,80.9z"/>
		</g>
		<g>
			<circle fill="#ADD9E0" cx="121.4" cy="89.5" r="6.6"/>
			<path fill="#FFFFFF" d="M121.4,96.4c-3.8,0-6.9-3.1-6.9-6.9s3.1-6.9,6.9-6.9c3.8,0,6.9,3.1,6.9,6.9S125.2,96.4,121.4,96.4z
				 M121.4,83.2c-3.5,0-6.3,2.8-6.3,6.3c0,3.5,2.8,6.3,6.3,6.3c3.5,0,6.3-2.8,6.3-6.3C127.8,86,124.9,83.2,121.4,83.2z"/>
		</g>
		<g>
			<circle fill="#2F8FAD" cx="121.4" cy="89.5" r="4.4"/>
			<path fill="#FFFFFF" d="M121.4,94.1c-2.6,0-4.6-2.1-4.6-4.6c0-2.6,2.1-4.6,4.6-4.6c2.6,0,4.6,2.1,4.6,4.6
				C126.1,92,124,94.1,121.4,94.1z M121.4,85.4c-2.3,0-4.1,1.8-4.1,4.1c0,2.3,1.8,4.1,4.1,4.1c2.3,0,4.1-1.8,4.1-4.1
				C125.5,87.2,123.7,85.4,121.4,85.4z"/>
		</g>
	</g>
	<g>
		<g>
			<circle fill="#38ACC6" cx="123.4" cy="79.5" r="8.8"/>
			<path fill="#FFFFFF" d="M123.4,88.6c-5,0-9.1-4.1-9.1-9.1s4.1-9.1,9.1-9.1s9.1,4.1,9.1,9.1S128.4,88.6,123.4,88.6z M123.4,70.9
				c-4.7,0-8.6,3.8-8.6,8.6c0,4.7,3.8,8.6,8.6,8.6s8.6-3.8,8.6-8.6C132,74.8,128.1,70.9,123.4,70.9z"/>
		</g>
		<g>
			<circle fill="#ADD9E0" cx="123.4" cy="79.5" r="6.6"/>
			<path fill="#FFFFFF" d="M123.4,86.4c-3.8,0-6.9-3.1-6.9-6.9c0-3.8,3.1-6.9,6.9-6.9s6.9,3.1,6.9,6.9
				C130.3,83.3,127.2,86.4,123.4,86.4z M123.4,73.2c-3.5,0-6.3,2.8-6.3,6.3c0,3.5,2.8,6.3,6.3,6.3c3.5,0,6.3-2.8,6.3-6.3
				C129.7,76,126.9,73.2,123.4,73.2z"/>
		</g>
		<g>
			<circle fill="#2F8FAD" cx="123.4" cy="79.5" r="4.4"/>
			<path fill="#FFFFFF" d="M123.4,84.1c-2.6,0-4.6-2.1-4.6-4.6c0-2.6,2.1-4.6,4.6-4.6c2.6,0,4.6,2.1,4.6,4.6
				C128,82.1,126,84.1,123.4,84.1z M123.4,75.4c-2.3,0-4.1,1.8-4.1,4.1c0,2.3,1.8,4.1,4.1,4.1c2.3,0,4.1-1.8,4.1-4.1
				C127.5,77.2,125.7,75.4,123.4,75.4z"/>
		</g>
	</g>
</g>
<g>
	<g>
		<g>
			<circle fill="#38ACC6" cx="107.3" cy="34.7" r="12.4"/>
			<path fill="#FFFFFF" d="M102.2,46.3c-6.4-2.8-9.4-10.4-6.5-16.8s10.4-9.4,16.8-6.5c6.4,2.8,9.4,10.4,6.5,16.8
				S108.6,49.1,102.2,46.3z M112.1,23.7c-6-2.7-13.1,0.1-15.8,6.1s0.1,13.1,6.1,15.8c6,2.7,13.1-0.1,15.8-6.1S118.2,26.3,112.1,23.7
				z"/>
		</g>
		<g>
			<circle fill="#ADD9E0" cx="107.3" cy="34.7" r="9.2"/>
			<path fill="#FFFFFF" d="M103.4,43.4c-4.8-2.1-7.1-7.8-4.9-12.6s7.8-7.1,12.6-4.9s7.1,7.8,4.9,12.6
				C114,43.4,108.3,45.6,103.4,43.4z M110.8,26.6c-4.5-2-9.7,0.1-11.6,4.5c-2,4.5,0.1,9.7,4.5,11.6c4.5,2,9.7-0.1,11.6-4.5
				S115.3,28.5,110.8,26.6z"/>
		</g>
		<g>
			<circle fill="#2F8FAD" cx="107.3" cy="34.7" r="6.1"/>
			<path fill="#FFFFFF" d="M104.7,40.6c-3.3-1.4-4.8-5.3-3.3-8.5c1.4-3.3,5.3-4.8,8.5-3.3c3.3,1.4,4.8,5.3,3.3,8.5
				C111.8,40.5,108,42,104.7,40.6z M109.6,29.4c-2.9-1.3-6.3,0-7.5,2.9c-1.3,2.9,0,6.3,2.9,7.5c2.9,1.3,6.3,0,7.5-2.9
				C113.8,34.1,112.5,30.7,109.6,29.4z"/>
		</g>
	</g>
	<g>
		<g>
			<circle fill="#38ACC6" cx="125.9" cy="32.8" r="12.4"/>
			<path fill="#FFFFFF" d="M120.8,44.4c-6.4-2.8-9.4-10.4-6.5-16.8s10.4-9.4,16.8-6.5c6.4,2.8,9.4,10.4,6.5,16.8
				S127.2,47.3,120.8,44.4z M130.7,21.8c-6-2.7-13.1,0.1-15.8,6.1c-2.7,6,0.1,13.1,6.1,15.8c6,2.7,13.1-0.1,15.8-6.1
				S136.8,24.5,130.7,21.8z"/>
		</g>
		<g>
			<circle fill="#ADD9E0" cx="125.9" cy="32.8" r="9.2"/>
			<path fill="#FFFFFF" d="M122,41.6c-4.8-2.1-7.1-7.8-4.9-12.6c2.1-4.8,7.8-7.1,12.6-4.9s7.1,7.8,4.9,12.6
				C132.6,41.5,126.9,43.7,122,41.6z M129.5,24.7c-4.5-2-9.7,0.1-11.6,4.5s0.1,9.7,4.5,11.6c4.5,2,9.7-0.1,11.6-4.5
				S133.9,26.6,129.5,24.7z"/>
		</g>
		<g>
			<circle fill="#2F8FAD" cx="125.9" cy="32.8" r="6.1"/>
			<path fill="#FFFFFF" d="M123.3,38.7c-3.3-1.4-4.8-5.3-3.3-8.5s5.3-4.8,8.5-3.3s4.8,5.3,3.3,8.5C130.4,38.6,126.6,40.1,123.3,38.7
				z M128.2,27.5c-2.9-1.3-6.3,0-7.5,2.9c-1.3,2.9,0,6.3,2.9,7.5c2.9,1.3,6.3,0,7.5-2.9C132.4,32.2,131.1,28.8,128.2,27.5z"/>
		</g>
	</g>
	<g>
		<g>
			<circle fill="#38ACC6" cx="123" cy="48.2" r="12.4"/>
			<path fill="#FFFFFF" d="M117.8,59.9c-6.4-2.8-9.4-10.4-6.5-16.8c2.8-6.4,10.4-9.4,16.8-6.5s9.4,10.4,6.5,16.8
				S124.3,62.7,117.8,59.9z M127.8,37.2c-6-2.7-13.1,0.1-15.8,6.1s0.1,13.1,6.1,15.8c6,2.7,13.1-0.1,15.8-6.1S133.8,39.9,127.8,37.2
				z"/>
		</g>
		<g>
			<circle fill="#ADD9E0" cx="123" cy="48.2" r="9.2"/>
			<path fill="#FFFFFF" d="M119.1,57c-4.8-2.1-7.1-7.8-4.9-12.6s7.8-7.1,12.6-4.9c4.8,2.1,7.1,7.8,4.9,12.6S124,59.1,119.1,57z
				 M126.5,40.1c-4.5-2-9.7,0.1-11.6,4.5c-2,4.5,0.1,9.7,4.5,11.6c4.5,2,9.7-0.1,11.6-4.5S131,42.1,126.5,40.1z"/>
		</g>
		<g>
			<circle fill="#2F8FAD" cx="123" cy="48.2" r="6.1"/>
			<path fill="#FFFFFF" d="M120.4,54.1c-3.3-1.4-4.8-5.3-3.3-8.5c1.4-3.3,5.3-4.8,8.5-3.3c3.3,1.4,4.8,5.3,3.3,8.5
				C127.5,54.1,123.6,55.6,120.4,54.1z M125.3,43c-2.9-1.3-6.3,0-7.5,2.9c-1.3,2.9,0,6.3,2.9,7.5c2.9,1.3,6.3,0,7.5-2.9
				C129.5,47.6,128.1,44.2,125.3,43z"/>
		</g>
	</g>
	<g>
		<g>
			<circle fill="#38ACC6" cx="86.6" cy="44.7" r="12.4"/>
			<path fill="#FFFFFF" d="M81.5,56.3C75.1,53.5,72.2,46,75,39.5c2.8-6.4,10.4-9.4,16.8-6.5c6.4,2.8,9.4,10.4,6.5,16.8
				S87.9,59.2,81.5,56.3z M91.5,33.7c-6-2.7-13.1,0.1-15.8,6.1s0.1,13.1,6.1,15.8c6,2.7,13.1-0.1,15.8-6.1S97.5,36.4,91.5,33.7z"/>
		</g>
		<g>
			<circle fill="#ADD9E0" cx="86.6" cy="44.7" r="9.2"/>
			<path fill="#FFFFFF" d="M82.8,53.5c-4.8-2.1-7.1-7.8-4.9-12.6s7.8-7.1,12.6-4.9c4.8,2.1,7.1,7.8,4.9,12.6
				C93.3,53.4,87.6,55.6,82.8,53.5z M90.2,36.6c-4.5-2-9.7,0.1-11.6,4.5c-2,4.5,0.1,9.7,4.5,11.6c4.5,2,9.7-0.1,11.6-4.5
				S94.7,38.5,90.2,36.6z"/>
		</g>
		<g>
			<circle fill="#2F8FAD" cx="86.6" cy="44.7" r="6.1"/>
			<path fill="#FFFFFF" d="M84,50.6c-3.3-1.4-4.8-5.3-3.3-8.5c1.4-3.3,5.3-4.8,8.5-3.3c3.3,1.4,4.8,5.3,3.3,8.5
				C91.1,50.5,87.3,52,84,50.6z M88.9,39.4c-2.9-1.3-6.3,0-7.5,2.9c-1.3,2.9,0,6.3,2.9,7.5c2.9,1.3,6.3,0,7.5-2.9
				C93.1,44.1,91.8,40.7,88.9,39.4z"/>
		</g>
	</g>
	<g>
		<g>
			<circle fill="#38ACC6" cx="107.1" cy="51.7" r="12.4"/>
			<path fill="#FFFFFF" d="M102,63.4c-6.4-2.8-9.4-10.4-6.5-16.8c2.8-6.4,10.4-9.4,16.8-6.5c6.4,2.8,9.4,10.4,6.5,16.8
				S108.4,66.2,102,63.4z M111.9,40.7c-6-2.7-13.1,0.1-15.8,6.1s0.1,13.1,6.1,15.8c6,2.7,13.1-0.1,15.8-6.1S118,43.4,111.9,40.7z"/>
		</g>
		<g>
			<circle fill="#ADD9E0" cx="107.1" cy="51.7" r="9.2"/>
			<path fill="#FFFFFF" d="M103.2,60.5c-4.8-2.1-7.1-7.8-4.9-12.6c2.1-4.8,7.8-7.1,12.6-4.9c4.8,2.1,7.1,7.8,4.9,12.6
				C113.8,60.4,108.1,62.6,103.2,60.5z M110.7,43.6c-4.5-2-9.7,0.1-11.6,4.5c-2,4.5,0.1,9.7,4.5,11.6c4.5,2,9.7-0.1,11.6-4.5
				C117.1,50.8,115.1,45.6,110.7,43.6z"/>
		</g>
		<g>
			<circle fill="#2F8FAD" cx="107.1" cy="51.7" r="6.1"/>
			<path fill="#FFFFFF" d="M104.5,57.6c-3.3-1.4-4.8-5.3-3.3-8.5c1.4-3.3,5.3-4.8,8.5-3.3c3.3,1.4,4.8,5.3,3.3,8.5
				C111.6,57.6,107.8,59.1,104.5,57.6z M109.4,46.5c-2.9-1.3-6.3,0-7.5,2.9c-1.3,2.9,0,6.3,2.9,7.5c2.9,1.3,6.3,0,7.5-2.9
				C113.6,51.1,112.3,47.7,109.4,46.5z"/>
		</g>
	</g>
	<g>
		<g>
			<circle fill="#38ACC6" cx="129.1" cy="56.3" r="12.4"/>
			<path fill="#FFFFFF" d="M124,67.9c-6.4-2.8-9.4-10.4-6.5-16.8c2.8-6.4,10.4-9.4,16.8-6.5c6.4,2.8,9.4,10.4,6.5,16.8
				S130.4,70.7,124,67.9z M133.9,45.3c-6-2.7-13.1,0.1-15.8,6.1s0.1,13.1,6.1,15.8s13.1-0.1,15.8-6.1S139.9,47.9,133.9,45.3z"/>
		</g>
		<g>
			<circle fill="#ADD9E0" cx="129.1" cy="56.3" r="9.2"/>
			<path fill="#FFFFFF" d="M125.2,65c-4.8-2.1-7.1-7.8-4.9-12.6s7.8-7.1,12.6-4.9c4.8,2.1,7.1,7.8,4.9,12.6
				C135.7,65,130.1,67.2,125.2,65z M132.6,48.2c-4.5-2-9.7,0.1-11.6,4.5c-2,4.5,0.1,9.7,4.5,11.6c4.5,2,9.7-0.1,11.6-4.5
				S137.1,50.1,132.6,48.2z"/>
		</g>
		<g>
			<circle fill="#2F8FAD" cx="129.1" cy="56.3" r="6.1"/>
			<path fill="#FFFFFF" d="M126.5,62.2c-3.3-1.4-4.8-5.3-3.3-8.5c1.4-3.3,5.3-4.8,8.5-3.3c3.3,1.4,4.8,5.3,3.3,8.5
				S129.7,63.6,126.5,62.2z M131.4,51c-2.9-1.3-6.3,0-7.5,2.9c-1.3,2.9,0,6.3,2.9,7.5c2.9,1.3,6.3,0,7.5-2.9
				C135.6,55.7,134.3,52.3,131.4,51z"/>
		</g>
	</g>
	<g>
		<g>
			<circle fill="#38ACC6" cx="136.9" cy="48.1" r="8.8"/>
			<path fill="#FFFFFF" d="M133.3,56.4c-4.6-2-6.7-7.4-4.7-12c2-4.6,7.4-6.7,12-4.7c4.6,2,6.7,7.4,4.7,12S137.9,58.5,133.3,56.4z
				 M140.4,40.3c-4.3-1.9-9.4,0.1-11.3,4.4c-1.9,4.3,0.1,9.4,4.4,11.3c4.3,1.9,9.4-0.1,11.3-4.4C146.7,47.2,144.7,42.2,140.4,40.3z"
				/>
		</g>
		<g>
			<circle fill="#ADD9E0" cx="136.9" cy="48.1" r="6.6"/>
			<path fill="#FFFFFF" d="M134.2,54.4c-3.5-1.5-5-5.6-3.5-9.1c1.5-3.5,5.6-5,9.1-3.5c3.5,1.5,5,5.6,3.5,9.1
				C141.7,54.3,137.6,55.9,134.2,54.4z M139.5,42.3c-3.2-1.4-6.9,0.1-8.3,3.2s0.1,6.9,3.2,8.3c3.2,1.4,6.9-0.1,8.3-3.2
				C144.1,47.5,142.7,43.7,139.5,42.3z"/>
		</g>
		<g>
			<circle fill="#2F8FAD" cx="136.9" cy="48.1" r="4.4"/>
			<path fill="#FFFFFF" d="M135.1,52.3c-2.3-1-3.4-3.8-2.4-6.1s3.8-3.4,6.1-2.4c2.3,1,3.4,3.8,2.4,6.1
				C140.1,52.3,137.4,53.4,135.1,52.3z M138.6,44.4c-2.1-0.9-4.5,0-5.4,2.1c-0.9,2.1,0,4.5,2.1,5.4c2.1,0.9,4.5,0,5.4-2.1
				C141.6,47.7,140.6,45.3,138.6,44.4z"/>
		</g>
	</g>
	<g>
		<g>
			<circle fill="#38ACC6" cx="116.5" cy="62.9" r="8.8"/>
			<path fill="#FFFFFF" d="M112.8,71.3c-4.6-2-6.7-7.4-4.7-12c2-4.6,7.4-6.7,12-4.7c4.6,2,6.7,7.4,4.7,12
				C122.8,71.2,117.4,73.3,112.8,71.3z M120,55.1c-4.3-1.9-9.4,0.1-11.3,4.4c-1.9,4.3,0.1,9.4,4.4,11.3c4.3,1.9,9.4-0.1,11.3-4.4
				C126.2,62,124.3,57,120,55.1z"/>
		</g>
		<g>
			<circle fill="#ADD9E0" cx="116.5" cy="62.9" r="6.6"/>
			<path fill="#FFFFFF" d="M113.7,69.2c-3.5-1.5-5-5.6-3.5-9.1c1.5-3.5,5.6-5,9.1-3.5c3.5,1.5,5,5.6,3.5,9.1
				C121.3,69.1,117.2,70.7,113.7,69.2z M119,57.1c-3.2-1.4-6.9,0.1-8.3,3.2c-1.4,3.2,0.1,6.9,3.2,8.3c3.2,1.4,6.9-0.1,8.3-3.2
				C123.7,62.3,122.2,58.5,119,57.1z"/>
		</g>
		<g>
			<circle fill="#2F8FAD" cx="116.5" cy="62.9" r="4.4"/>
			<path fill="#FFFFFF" d="M114.6,67.2c-2.3-1-3.4-3.8-2.4-6.1c1-2.3,3.8-3.4,6.1-2.4c2.3,1,3.4,3.8,2.4,6.1
				C119.7,67.1,117,68.2,114.6,67.2z M118.1,59.2c-2.1-0.9-4.5,0-5.4,2.1c-0.9,2.1,0,4.5,2.1,5.4c2.1,0.9,4.5,0,5.4-2.1
				C121.2,62.5,120.2,60.1,118.1,59.2z"/>
		</g>
	</g>
	<g>
		<g>
			<circle fill="#38ACC6" cx="134.2" cy="70.7" r="8.8"/>
			<path fill="#FFFFFF" d="M130.5,79c-4.6-2-6.7-7.4-4.7-12c2-4.6,7.4-6.7,12-4.7s6.7,7.4,4.7,12C140.5,79,135.1,81.1,130.5,79z
				 M137.6,62.8c-4.3-1.9-9.4,0.1-11.3,4.4c-1.9,4.3,0.1,9.4,4.4,11.3c4.3,1.9,9.4-0.1,11.3-4.4C143.9,69.8,142,64.7,137.6,62.8z"/>
		</g>
		<g>
			<circle fill="#ADD9E0" cx="134.2" cy="70.7" r="6.6"/>
			<path fill="#FFFFFF" d="M131.4,77c-3.5-1.5-5-5.6-3.5-9.1c1.5-3.5,5.6-5,9.1-3.5c3.5,1.5,5,5.6,3.5,9.1
				C139,76.9,134.9,78.5,131.4,77z M136.7,64.9c-3.2-1.4-6.9,0.1-8.3,3.2c-1.4,3.2,0.1,6.9,3.2,8.3c3.2,1.4,6.9-0.1,8.3-3.2
				C141.4,70,139.9,66.3,136.7,64.9z"/>
		</g>
		<g>
			<circle fill="#2F8FAD" cx="134.2" cy="70.7" r="4.4"/>
			<path fill="#FFFFFF" d="M132.3,74.9c-2.3-1-3.4-3.8-2.4-6.1c1-2.3,3.8-3.4,6.1-2.4s3.4,3.8,2.4,6.1S134.7,76,132.3,74.9z
				 M135.8,67c-2.1-0.9-4.5,0-5.4,2.1c-0.9,2.1,0,4.5,2.1,5.4c2.1,0.9,4.5,0,5.4-2.1C138.8,70.3,137.9,67.9,135.8,67z"/>
		</g>
	</g>
	<g>
		<g>
			<circle fill="#38ACC6" cx="146.1" cy="60.7" r="8.8"/>
			<path fill="#FFFFFF" d="M142.4,69.1c-4.6-2-6.7-7.4-4.7-12s7.4-6.7,12-4.7s6.7,7.4,4.7,12C152.4,69,147,71.1,142.4,69.1z
				 M149.5,52.9c-4.3-1.9-9.4,0.1-11.3,4.4s0.1,9.4,4.4,11.3s9.4-0.1,11.3-4.4C155.8,59.8,153.9,54.8,149.5,52.9z"/>
		</g>
		<g>
			<circle fill="#ADD9E0" cx="146.1" cy="60.7" r="6.6"/>
			<path fill="#FFFFFF" d="M143.3,67c-3.5-1.5-5-5.6-3.5-9.1c1.5-3.5,5.6-5,9.1-3.5c3.5,1.5,5,5.6,3.5,9.1
				C150.8,67,146.8,68.5,143.3,67z M148.6,54.9c-3.2-1.4-6.9,0.1-8.3,3.2c-1.4,3.2,0.1,6.9,3.2,8.3s6.9-0.1,8.3-3.2
				C153.3,60.1,151.8,56.3,148.6,54.9z"/>
		</g>
		<g>
			<circle fill="#2F8FAD" cx="146.1" cy="60.7" r="4.4"/>
			<path fill="#FFFFFF" d="M144.2,65c-2.3-1-3.4-3.8-2.4-6.1c1-2.3,3.8-3.4,6.1-2.4s3.4,3.8,2.4,6.1S146.6,66,144.2,65z M147.7,57
				c-2.1-0.9-4.5,0-5.4,2.1c-0.9,2.1,0,4.5,2.1,5.4c2.1,0.9,4.5,0,5.4-2.1C150.7,60.3,149.8,57.9,147.7,57z"/>
		</g>
	</g>
	<g>
		<g>
			<circle fill="#38ACC6" cx="151.9" cy="52.4" r="8.8"/>
			<path fill="#FFFFFF" d="M148.2,60.7c-4.6-2-6.7-7.4-4.7-12c2-4.6,7.4-6.7,12-4.7s6.7,7.4,4.7,12
				C158.2,60.6,152.8,62.7,148.2,60.7z M155.4,44.5c-4.3-1.9-9.4,0.1-11.3,4.4c-1.9,4.3,0.1,9.4,4.4,11.3c4.3,1.9,9.4-0.1,11.3-4.4
				S159.7,46.4,155.4,44.5z"/>
		</g>
		<g>
			<circle fill="#ADD9E0" cx="151.9" cy="52.4" r="6.6"/>
			<path fill="#FFFFFF" d="M149.1,58.7c-3.5-1.5-5-5.6-3.5-9.1s5.6-5,9.1-3.5c3.5,1.5,5,5.6,3.5,9.1S152.6,60.2,149.1,58.7z
				 M154.5,46.6c-3.2-1.4-6.9,0.1-8.3,3.2c-1.4,3.2,0.1,6.9,3.2,8.3c3.2,1.4,6.9-0.1,8.3-3.2C159.1,51.7,157.6,48,154.5,46.6z"/>
		</g>
		<g>
			<circle fill="#2F8FAD" cx="151.9" cy="52.4" r="4.4"/>
			<path fill="#FFFFFF" d="M150,56.6c-2.3-1-3.4-3.8-2.4-6.1c1-2.3,3.8-3.4,6.1-2.4c2.3,1,3.4,3.8,2.4,6.1
				C155.1,56.6,152.4,57.6,150,56.6z M153.6,48.6c-2.1-0.9-4.5,0-5.4,2.1c-0.9,2.1,0,4.5,2.1,5.4c2.1,0.9,4.5,0,5.4-2.1
				C156.6,52,155.6,49.5,153.6,48.6z"/>
		</g>
	</g>
</g>
<g>
	<g>
		<g>
			<circle fill="#38ACC6" cx="116" cy="59.2" r="12.4"/>
			<path fill="#FFFFFF" d="M110.9,70.9c-6.4-2.8-9.4-10.4-6.5-16.8s10.4-9.4,16.8-6.5c6.4,2.8,9.4,10.4,6.5,16.8
				C124.8,70.8,117.3,73.7,110.9,70.9z M120.8,48.2c-6-2.7-13.1,0.1-15.8,6.1s0.1,13.1,6.1,15.8c6,2.7,13.1-0.1,15.8-6.1
				C129.6,58,126.9,50.9,120.8,48.2z"/>
		</g>
		<g>
			<circle fill="#ADD9E0" cx="116" cy="59.2" r="9.2"/>
			<path fill="#FFFFFF" d="M112.1,68c-4.8-2.1-7.1-7.8-4.9-12.6s7.8-7.1,12.6-4.9c4.8,2.1,7.1,7.8,4.9,12.6
				C122.7,67.9,117,70.1,112.1,68z M119.6,51.1c-4.5-2-9.7,0.1-11.6,4.5c-2,4.5,0.1,9.7,4.5,11.6c4.5,2,9.7-0.1,11.6-4.5
				S124,53.1,119.6,51.1z"/>
		</g>
		<g>
			<circle fill="#2F8FAD" cx="116" cy="59.2" r="6.1"/>
			<path fill="#FFFFFF" d="M113.4,65.1c-3.3-1.4-4.8-5.3-3.3-8.5c1.4-3.3,5.3-4.8,8.5-3.3c3.3,1.4,4.8,5.3,3.3,8.5
				C120.5,65.1,116.7,66.6,113.4,65.1z M118.3,54c-2.9-1.3-6.3,0-7.5,2.9c-1.3,2.9,0,6.3,2.9,7.5c2.9,1.3,6.3,0,7.5-2.9
				C122.5,58.6,121.2,55.2,118.3,54z"/>
		</g>
	</g>
	<g>
		<g>
			<circle fill="#38ACC6" cx="134.6" cy="57.3" r="12.4"/>
			<path fill="#FFFFFF" d="M129.5,69c-6.4-2.8-9.4-10.4-6.5-16.8s10.4-9.4,16.8-6.5c6.4,2.8,9.4,10.4,6.5,16.8S135.9,71.8,129.5,69z
				 M139.4,46.3c-6-2.7-13.1,0.1-15.8,6.1c-2.7,6,0.1,13.1,6.1,15.8c6,2.7,13.1-0.1,15.8-6.1S145.5,49,139.4,46.3z"/>
		</g>
		<g>
			<circle fill="#ADD9E0" cx="134.6" cy="57.3" r="9.2"/>
			<path fill="#FFFFFF" d="M130.8,66.1c-4.8-2.1-7.1-7.8-4.9-12.6c2.1-4.8,7.8-7.1,12.6-4.9c4.8,2.1,7.1,7.8,4.9,12.6
				C141.3,66,135.6,68.2,130.8,66.1z M138.2,49.2c-4.5-2-9.7,0.1-11.6,4.5c-2,4.5,0.1,9.7,4.5,11.6c4.5,2,9.7-0.1,11.6-4.5
				S142.6,51.2,138.2,49.2z"/>
		</g>
		<g>
			<circle fill="#2F8FAD" cx="134.6" cy="57.3" r="6.1"/>
			<path fill="#FFFFFF" d="M132,63.2c-3.3-1.4-4.8-5.3-3.3-8.5c1.4-3.3,5.3-4.8,8.5-3.3c3.3,1.4,4.8,5.3,3.3,8.5
				C139.1,63.2,135.3,64.7,132,63.2z M136.9,52.1c-2.9-1.3-6.3,0-7.5,2.9c-1.3,2.9,0,6.3,2.9,7.5c2.9,1.3,6.3,0,7.5-2.9
				C141.1,56.7,139.8,53.3,136.9,52.1z"/>
		</g>
	</g>
	<g>
		<g>
			<circle fill="#38ACC6" cx="131.7" cy="72.7" r="12.4"/>
			<path fill="#FFFFFF" d="M126.6,84.4c-6.4-2.8-9.4-10.4-6.5-16.8c2.8-6.4,10.4-9.4,16.8-6.5s9.4,10.4,6.5,16.8
				C140.5,84.3,133,87.2,126.6,84.4z M136.5,61.8c-6-2.7-13.1,0.1-15.8,6.1c-2.7,6,0.1,13.1,6.1,15.8s13.1-0.1,15.8-6.1
				C145.3,71.5,142.5,64.4,136.5,61.8z"/>
		</g>
		<g>
			<circle fill="#ADD9E0" cx="131.7" cy="72.7" r="9.2"/>
			<path fill="#FFFFFF" d="M127.8,81.5c-4.8-2.1-7.1-7.8-4.9-12.6c2.1-4.8,7.8-7.1,12.6-4.9s7.1,7.8,4.9,12.6
				C138.3,81.4,132.7,83.7,127.8,81.5z M135.2,64.7c-4.5-2-9.7,0.1-11.6,4.5c-2,4.5,0.1,9.7,4.5,11.6c4.5,2,9.7-0.1,11.6-4.5
				C141.7,71.8,139.7,66.6,135.2,64.7z"/>
		</g>
		<g>
			<circle fill="#2F8FAD" cx="131.7" cy="72.7" r="6.1"/>
			<path fill="#FFFFFF" d="M129.1,78.7c-3.3-1.4-4.8-5.3-3.3-8.5c1.4-3.3,5.3-4.8,8.5-3.3c3.3,1.4,4.8,5.3,3.3,8.5
				S132.3,80.1,129.1,78.7z M134,67.5c-2.9-1.3-6.3,0-7.5,2.9c-1.3,2.9,0,6.3,2.9,7.5c2.9,1.3,6.3,0,7.5-2.9
				C138.2,72.2,136.9,68.8,134,67.5z"/>
		</g>
	</g>
	<g>
		<g>
			<circle fill="#38ACC6" cx="95.4" cy="69.2" r="12.4"/>
			<path fill="#FFFFFF" d="M90.2,80.9c-6.4-2.8-9.4-10.4-6.5-16.8c2.8-6.4,10.4-9.4,16.8-6.5c6.4,2.8,9.4,10.4,6.5,16.8
				C104.2,80.8,96.7,83.7,90.2,80.9z M100.2,58.2c-6-2.7-13.1,0.1-15.8,6.1c-2.7,6,0.1,13.1,6.1,15.8c6,2.7,13.1-0.1,15.8-6.1
				C109,68,106.2,60.9,100.2,58.2z"/>
		</g>
		<g>
			<circle fill="#ADD9E0" cx="95.4" cy="69.2" r="9.2"/>
			<path fill="#FFFFFF" d="M91.5,78c-4.8-2.1-7.1-7.8-4.9-12.6s7.8-7.1,12.6-4.9c4.8,2.1,7.1,7.8,4.9,12.6
				C102,77.9,96.3,80.1,91.5,78z M98.9,61.1c-4.5-2-9.7,0.1-11.6,4.5c-2,4.5,0.1,9.7,4.5,11.6c4.5,2,9.7-0.1,11.6-4.5
				C105.4,68.3,103.4,63.1,98.9,61.1z"/>
		</g>
		<g>
			<circle fill="#2F8FAD" cx="95.4" cy="69.2" r="6.1"/>
			<path fill="#FFFFFF" d="M92.7,75.1c-3.3-1.4-4.8-5.3-3.3-8.5c1.4-3.3,5.3-4.8,8.5-3.3c3.3,1.4,4.8,5.3,3.3,8.5
				C99.8,75.1,96,76.6,92.7,75.1z M97.6,64c-2.9-1.3-6.3,0-7.5,2.9c-1.3,2.9,0,6.3,2.9,7.5c2.9,1.3,6.3,0,7.5-2.9
				C101.8,68.6,100.5,65.2,97.6,64z"/>
		</g>
	</g>
	<g>
		<g>
			<circle fill="#38ACC6" cx="115.8" cy="76.2" r="12.4"/>
			<path fill="#FFFFFF" d="M110.7,87.9c-6.4-2.8-9.4-10.4-6.5-16.8c2.8-6.4,10.4-9.4,16.8-6.5c6.4,2.8,9.4,10.4,6.5,16.8
				C124.6,87.8,117.1,90.7,110.7,87.9z M120.6,65.3c-6-2.7-13.1,0.1-15.8,6.1c-2.7,6,0.1,13.1,6.1,15.8c6,2.7,13.1-0.1,15.8-6.1
				C129.4,75,126.7,67.9,120.6,65.3z"/>
		</g>
		<g>
			<circle fill="#ADD9E0" cx="115.8" cy="76.2" r="9.2"/>
			<path fill="#FFFFFF" d="M111.9,85c-4.8-2.1-7.1-7.8-4.9-12.6c2.1-4.8,7.8-7.1,12.6-4.9c4.8,2.1,7.1,7.8,4.9,12.6
				C122.5,85,116.8,87.2,111.9,85z M119.4,68.2c-4.5-2-9.7,0.1-11.6,4.5c-2,4.5,0.1,9.7,4.5,11.6c4.5,2,9.7-0.1,11.6-4.5
				C125.9,75.3,123.8,70.1,119.4,68.2z"/>
		</g>
		<g>
			<circle fill="#2F8FAD" cx="115.8" cy="76.2" r="6.1"/>
			<path fill="#FFFFFF" d="M113.2,82.2c-3.3-1.4-4.8-5.3-3.3-8.5c1.4-3.3,5.3-4.8,8.5-3.3c3.3,1.4,4.8,5.3,3.3,8.5
				C120.3,82.1,116.5,83.6,113.2,82.2z M118.1,71c-2.9-1.3-6.3,0-7.5,2.9c-1.3,2.9,0,6.3,2.9,7.5c2.9,1.3,6.3,0,7.5-2.9
				C122.3,75.7,121,72.3,118.1,71z"/>
		</g>
	</g>
	<g>
		<g>
			<circle fill="#38ACC6" cx="137.8" cy="80.8" r="12.4"/>
			<path fill="#FFFFFF" d="M132.7,92.5c-6.4-2.8-9.4-10.4-6.5-16.8c2.8-6.4,10.4-9.4,16.8-6.5s9.4,10.4,6.5,16.8
				C146.6,92.3,139.1,95.3,132.7,92.5z M142.6,69.8c-6-2.7-13.1,0.1-15.8,6.1c-2.7,6,0.1,13.1,6.1,15.8c6,2.7,13.1-0.1,15.8-6.1
				C151.4,79.6,148.7,72.5,142.6,69.8z"/>
		</g>
		<g>
			<circle fill="#ADD9E0" cx="137.8" cy="80.8" r="9.2"/>
			<path fill="#FFFFFF" d="M133.9,89.6c-4.8-2.1-7.1-7.8-4.9-12.6c2.1-4.8,7.8-7.1,12.6-4.9c4.8,2.1,7.1,7.8,4.9,12.6
				C144.5,89.5,138.8,91.7,133.9,89.6z M141.4,72.7c-4.5-2-9.7,0.1-11.6,4.5c-2,4.5,0.1,9.7,4.5,11.6c4.5,2,9.7-0.1,11.6-4.5
				C147.8,79.9,145.8,74.7,141.4,72.7z"/>
		</g>
		<g>
			<circle fill="#2F8FAD" cx="137.8" cy="80.8" r="6.1"/>
			<path fill="#FFFFFF" d="M135.2,86.7c-3.3-1.4-4.8-5.3-3.3-8.5c1.4-3.3,5.3-4.8,8.5-3.3c3.3,1.4,4.8,5.3,3.3,8.5
				S138.5,88.2,135.2,86.7z M140.1,75.6c-2.9-1.3-6.3,0-7.5,2.9c-1.3,2.9,0,6.3,2.9,7.5c2.9,1.3,6.3,0,7.5-2.9
				C144.3,80.2,143,76.8,140.1,75.6z"/>
		</g>
	</g>
	<g>
		<g>
			<circle fill="#38ACC6" cx="145.6" cy="72.6" r="8.8"/>
			<path fill="#FFFFFF" d="M142,81c-4.6-2-6.7-7.4-4.7-12c2-4.6,7.4-6.7,12-4.7c4.6,2,6.7,7.4,4.7,12C152,80.9,146.6,83,142,81z
				 M149.1,64.8c-4.3-1.9-9.4,0.1-11.3,4.4c-1.9,4.3,0.1,9.4,4.4,11.3c4.3,1.9,9.4-0.1,11.3-4.4C155.4,71.8,153.4,66.7,149.1,64.8z"
				/>
		</g>
		<g>
			<circle fill="#ADD9E0" cx="145.6" cy="72.6" r="6.6"/>
			<path fill="#FFFFFF" d="M142.9,78.9c-3.5-1.5-5-5.6-3.5-9.1c1.5-3.5,5.6-5,9.1-3.5c3.5,1.5,5,5.6,3.5,9.1
				C150.4,78.9,146.3,80.5,142.9,78.9z M148.2,66.8c-3.2-1.4-6.9,0.1-8.3,3.2s0.1,6.9,3.2,8.3c3.2,1.4,6.9-0.1,8.3-3.2
				C152.8,72,151.4,68.3,148.2,66.8z"/>
		</g>
		<g>
			<circle fill="#2F8FAD" cx="145.6" cy="72.6" r="4.4"/>
			<path fill="#FFFFFF" d="M143.8,76.9c-2.3-1-3.4-3.8-2.4-6.1s3.8-3.4,6.1-2.4c2.3,1,3.4,3.8,2.4,6.1
				C148.9,76.8,146.1,77.9,143.8,76.9z M147.3,68.9c-2.1-0.9-4.5,0-5.4,2.1c-0.9,2.1,0,4.5,2.1,5.4c2.1,0.9,4.5,0,5.4-2.1
				C150.3,72.2,149.3,69.8,147.3,68.9z"/>
		</g>
	</g>
	<g>
		<g>
			<circle fill="#38ACC6" cx="125.2" cy="87.5" r="8.8"/>
			<path fill="#FFFFFF" d="M121.5,95.8c-4.6-2-6.7-7.4-4.7-12c2-4.6,7.4-6.7,12-4.7c4.6,2,6.7,7.4,4.7,12
				C131.5,95.7,126.1,97.8,121.5,95.8z M128.7,79.6c-4.3-1.9-9.4,0.1-11.3,4.4c-1.9,4.3,0.1,9.4,4.4,11.3c4.3,1.9,9.4-0.1,11.3-4.4
				C135,86.6,133,81.5,128.7,79.6z"/>
		</g>
		<g>
			<circle fill="#ADD9E0" cx="125.2" cy="87.5" r="6.6"/>
			<path fill="#FFFFFF" d="M122.5,93.7c-3.5-1.5-5-5.6-3.5-9.1c1.5-3.5,5.6-5,9.1-3.5c3.5,1.5,5,5.6,3.5,9.1
				C130,93.7,125.9,95.3,122.5,93.7z M127.8,81.7c-3.2-1.4-6.9,0.1-8.3,3.2c-1.4,3.2,0.1,6.9,3.2,8.3c3.2,1.4,6.9-0.1,8.3-3.2
				C132.4,86.8,131,83.1,127.8,81.7z"/>
		</g>
		<g>
			<circle fill="#2F8FAD" cx="125.2" cy="87.5" r="4.4"/>
			<path fill="#FFFFFF" d="M123.4,91.7c-2.3-1-3.4-3.8-2.4-6.1c1-2.3,3.8-3.4,6.1-2.4c2.3,1,3.4,3.8,2.4,6.1
				C128.4,91.7,125.7,92.7,123.4,91.7z M126.9,83.7c-2.1-0.9-4.5,0-5.4,2.1c-0.9,2.1,0,4.5,2.1,5.4c2.1,0.9,4.5,0,5.4-2.1
				C129.9,87,128.9,84.6,126.9,83.7z"/>
		</g>
	</g>
	<g>
		<g>
			<circle fill="#38ACC6" cx="142.9" cy="95.2" r="8.8"/>
			<path fill="#FFFFFF" d="M139.2,103.6c-4.6-2-6.7-7.4-4.7-12c2-4.6,7.4-6.7,12-4.7c4.6,2,6.7,7.4,4.7,12
				C149.2,103.5,143.8,105.6,139.2,103.6z M146.4,87.4c-4.3-1.9-9.4,0.1-11.3,4.4c-1.9,4.3,0.1,9.4,4.4,11.3
				c4.3,1.9,9.4-0.1,11.3-4.4C152.7,94.4,150.7,89.3,146.4,87.4z"/>
		</g>
		<g>
			<circle fill="#ADD9E0" cx="142.9" cy="95.2" r="6.6"/>
			<path fill="#FFFFFF" d="M140.2,101.5c-3.5-1.5-5-5.6-3.5-9.1c1.5-3.5,5.6-5,9.1-3.5c3.5,1.5,5,5.6,3.5,9.1
				C147.7,101.5,143.6,103,140.2,101.5z M145.5,89.4c-3.2-1.4-6.9,0.1-8.3,3.2c-1.4,3.2,0.1,6.9,3.2,8.3c3.2,1.4,6.9-0.1,8.3-3.2
				S148.7,90.8,145.5,89.4z"/>
		</g>
		<g>
			<circle fill="#2F8FAD" cx="142.9" cy="95.2" r="4.4"/>
			<path fill="#FFFFFF" d="M141.1,99.5c-2.3-1-3.4-3.8-2.4-6.1c1-2.3,3.8-3.4,6.1-2.4s3.4,3.8,2.4,6.1S143.4,100.5,141.1,99.5z
				 M144.6,91.5c-2.1-0.9-4.5,0-5.4,2.1c-0.9,2.1,0,4.5,2.1,5.4c2.1,0.9,4.5,0,5.4-2.1C147.6,94.8,146.6,92.4,144.6,91.5z"/>
		</g>
	</g>
	<g>
		<g>
			<circle fill="#38ACC6" cx="154.8" cy="85.3" r="8.8"/>
			<path fill="#FFFFFF" d="M151.1,93.6c-4.6-2-6.7-7.4-4.7-12c2-4.6,7.4-6.7,12-4.7c4.6,2,6.7,7.4,4.7,12
				C161.1,93.5,155.7,95.6,151.1,93.6z M158.2,77.4c-4.3-1.9-9.4,0.1-11.3,4.4c-1.9,4.3,0.1,9.4,4.4,11.3c4.3,1.9,9.4-0.1,11.3-4.4
				C164.5,84.4,162.6,79.3,158.2,77.4z"/>
		</g>
		<g>
			<circle fill="#ADD9E0" cx="154.8" cy="85.3" r="6.6"/>
			<path fill="#FFFFFF" d="M152,91.6c-3.5-1.5-5-5.6-3.5-9.1c1.5-3.5,5.6-5,9.1-3.5c3.5,1.5,5,5.6,3.5,9.1S155.5,93.1,152,91.6z
				 M157.3,79.5c-3.2-1.4-6.9,0.1-8.3,3.2c-1.4,3.2,0.1,6.9,3.2,8.3s6.9-0.1,8.3-3.2C162,84.6,160.5,80.9,157.3,79.5z"/>
		</g>
		<g>
			<circle fill="#2F8FAD" cx="154.8" cy="85.3" r="4.4"/>
			<path fill="#FFFFFF" d="M152.9,89.5c-2.3-1-3.4-3.8-2.4-6.1c1-2.3,3.8-3.4,6.1-2.4c2.3,1,3.4,3.8,2.4,6.1S155.3,90.5,152.9,89.5z
				 M156.4,81.5c-2.1-0.9-4.5,0-5.4,2.1c-0.9,2.1,0,4.5,2.1,5.4c2.1,0.9,4.5,0,5.4-2.1C159.4,84.8,158.5,82.4,156.4,81.5z"/>
		</g>
	</g>
	<g>
		<g>
			<circle fill="#38ACC6" cx="160.6" cy="76.9" r="8.8"/>
			<path fill="#FFFFFF" d="M157,85.3c-4.6-2-6.7-7.4-4.7-12c2-4.6,7.4-6.7,12-4.7c4.6,2,6.7,7.4,4.7,12
				C166.9,85.2,161.6,87.3,157,85.3z M164.1,69.1c-4.3-1.9-9.4,0.1-11.3,4.4c-1.9,4.3,0.1,9.4,4.4,11.3c4.3,1.9,9.4-0.1,11.3-4.4
				S168.4,71,164.1,69.1z"/>
		</g>
		<g>
			<circle fill="#ADD9E0" cx="160.6" cy="76.9" r="6.6"/>
			<path fill="#FFFFFF" d="M157.9,83.2c-3.5-1.5-5-5.6-3.5-9.1s5.6-5,9.1-3.5c3.5,1.5,5,5.6,3.5,9.1S161.3,84.7,157.9,83.2z
				 M163.2,71.1c-3.2-1.4-6.9,0.1-8.3,3.2c-1.4,3.2,0.1,6.9,3.2,8.3s6.9-0.1,8.3-3.2C167.8,76.3,166.4,72.5,163.2,71.1z"/>
		</g>
		<g>
			<circle fill="#2F8FAD" cx="160.6" cy="76.9" r="4.4"/>
			<path fill="#FFFFFF" d="M158.8,81.2c-2.3-1-3.4-3.8-2.4-6.1c1-2.3,3.8-3.4,6.1-2.4c2.3,1,3.4,3.8,2.4,6.1
				C163.8,81.1,161.1,82.2,158.8,81.2z M162.3,73.2c-2.1-0.9-4.5,0-5.4,2.1c-0.9,2.1,0,4.5,2.1,5.4c2.1,0.9,4.5,0,5.4-2.1
				C165.3,76.5,164.3,74.1,162.3,73.2z"/>
		</g>
	</g>
</g>
<g>
	<g>
		<g>
			<circle fill="#38ACC6" cx="181.7" cy="62.7" r="12.4"/>
			<path fill="#FFFFFF" d="M177.4,50.8c6.6-2.4,13.9,1,16.3,7.6s-1,13.9-7.6,16.3c-6.6,2.4-13.9-1-16.3-7.6S170.8,53.2,177.4,50.8z
				 M185.8,74c6.2-2.3,9.4-9.1,7.2-15.4s-9.1-9.4-15.4-7.2c-6.2,2.3-9.4,9.1-7.2,15.4S179.6,76.3,185.8,74z"/>
		</g>
		<g>
			<circle fill="#ADD9E0" cx="181.7" cy="62.7" r="9.2"/>
			<path fill="#FFFFFF" d="M178.4,53.7c5-1.8,10.5,0.8,12.3,5.7c1.8,5-0.8,10.5-5.7,12.3c-5,1.8-10.5-0.8-12.3-5.7
				C170.9,61.1,173.5,55.5,178.4,53.7z M184.8,71c4.6-1.7,6.9-6.7,5.3-11.3s-6.7-6.9-11.3-5.3c-4.6,1.7-6.9,6.7-5.3,11.3
				S180.2,72.7,184.8,71z"/>
		</g>
		<g>
			<circle fill="#2F8FAD" cx="181.7" cy="62.7" r="6.1"/>
			<path fill="#FFFFFF" d="M179.5,56.7c3.4-1.2,7.1,0.5,8.3,3.9s-0.5,7.1-3.9,8.3c-3.4,1.2-7.1-0.5-8.3-3.9S176.2,57.9,179.5,56.7z
				 M183.7,68.1c3-1.1,4.5-4.4,3.4-7.3c-1.1-3-4.4-4.5-7.3-3.4c-3,1.1-4.5,4.4-3.4,7.3C177.4,67.7,180.7,69.2,183.7,68.1z"/>
		</g>
	</g>
	<g>
		<g>
			<circle fill="#38ACC6" cx="169.6" cy="77" r="12.4"/>
			<path fill="#FFFFFF" d="M165.2,65c6.6-2.4,13.9,1,16.3,7.6c2.4,6.6-1,13.9-7.6,16.3c-6.6,2.4-13.9-1-16.3-7.6
				S158.6,67.4,165.2,65z M173.7,88.2c6.2-2.3,9.4-9.1,7.2-15.4c-2.3-6.2-9.1-9.4-15.4-7.2c-6.2,2.3-9.4,9.1-7.2,15.4
				C160.6,87.3,167.5,90.5,173.7,88.2z"/>
		</g>
		<g>
			<circle fill="#ADD9E0" cx="169.6" cy="77" r="9.2"/>
			<path fill="#FFFFFF" d="M166.3,68c5-1.8,10.5,0.8,12.3,5.7c1.8,5-0.8,10.5-5.7,12.3s-10.5-0.8-12.3-5.7
				C158.8,75.3,161.3,69.8,166.3,68z M172.6,85.3c4.6-1.7,6.9-6.7,5.3-11.3s-6.7-6.9-11.3-5.3c-4.6,1.7-6.9,6.7-5.3,11.3
				S168,86.9,172.6,85.3z"/>
		</g>
		<g>
			<circle fill="#2F8FAD" cx="169.6" cy="77" r="6.1"/>
			<path fill="#FFFFFF" d="M167.4,70.9c3.4-1.2,7.1,0.5,8.3,3.9c1.2,3.4-0.5,7.1-3.9,8.3c-3.4,1.2-7.1-0.5-8.3-3.9
				C162.3,75.8,164,72.1,167.4,70.9z M171.5,82.3c3-1.1,4.5-4.4,3.4-7.3c-1.1-3-4.4-4.5-7.3-3.4c-3,1.1-4.5,4.4-3.4,7.3
				C165.3,81.9,168.6,83.4,171.5,82.3z"/>
		</g>
	</g>
	<g>
		<g>
			<circle fill="#38ACC6" cx="161" cy="63.8" r="12.4"/>
			<path fill="#FFFFFF" d="M156.7,51.8c6.6-2.4,13.9,1,16.3,7.6s-1,13.9-7.6,16.3c-6.6,2.4-13.9-1-16.3-7.6S150.1,54.2,156.7,51.8z
				 M165.1,75c6.2-2.3,9.4-9.1,7.2-15.4s-9.1-9.4-15.4-7.2c-6.2,2.3-9.4,9.1-7.2,15.4S158.9,77.3,165.1,75z"/>
		</g>
		<g>
			<circle fill="#ADD9E0" cx="161" cy="63.8" r="9.2"/>
			<path fill="#FFFFFF" d="M157.8,54.8c5-1.8,10.5,0.8,12.3,5.7c1.8,5-0.8,10.5-5.7,12.3c-5,1.8-10.5-0.8-12.3-5.7
				C150.2,62.1,152.8,56.6,157.8,54.8z M164.1,72.1c4.6-1.7,6.9-6.7,5.3-11.3s-6.7-6.9-11.3-5.3c-4.6,1.7-6.9,6.7-5.3,11.3
				S159.5,73.8,164.1,72.1z"/>
		</g>
		<g>
			<circle fill="#2F8FAD" cx="161" cy="63.8" r="6.1"/>
			<path fill="#FFFFFF" d="M158.8,57.7c3.4-1.2,7.1,0.5,8.3,3.9c1.2,3.4-0.5,7.1-3.9,8.3c-3.4,1.2-7.1-0.5-8.3-3.9
				S155.5,58.9,158.8,57.7z M163,69.2c3-1.1,4.5-4.4,3.4-7.3c-1.1-3-4.4-4.5-7.3-3.4c-3,1.1-4.5,4.4-3.4,7.3
				C156.7,68.7,160,70.2,163,69.2z"/>
		</g>
	</g>
	<g>
		<g>
			<circle fill="#38ACC6" cx="189.7" cy="41.2" r="12.4"/>
			<path fill="#FFFFFF" d="M185.4,29.3c6.6-2.4,13.9,1,16.3,7.6s-1,13.9-7.6,16.3c-6.6,2.4-13.9-1-16.3-7.6S178.8,31.7,185.4,29.3z
				 M193.8,52.5c6.2-2.3,9.4-9.1,7.2-15.4s-9.1-9.4-15.4-7.2s-9.4,9.1-7.2,15.4S187.6,54.7,193.8,52.5z"/>
		</g>
		<g>
			<circle fill="#ADD9E0" cx="189.7" cy="41.2" r="9.2"/>
			<path fill="#FFFFFF" d="M186.4,32.2c5-1.8,10.5,0.8,12.3,5.7c1.8,5-0.8,10.5-5.7,12.3c-5,1.8-10.5-0.8-12.3-5.7
				C178.9,39.5,181.5,34,186.4,32.2z M192.8,49.5c4.6-1.7,6.9-6.7,5.3-11.3s-6.7-6.9-11.3-5.3c-4.6,1.7-6.9,6.7-5.3,11.3
				S188.2,51.2,192.8,49.5z"/>
		</g>
		<g>
			<circle fill="#2F8FAD" cx="189.7" cy="41.2" r="6.1"/>
			<path fill="#FFFFFF" d="M187.5,35.1c3.4-1.2,7.1,0.5,8.3,3.9s-0.5,7.1-3.9,8.3c-3.4,1.2-7.1-0.5-8.3-3.9
				C182.4,40.1,184.2,36.4,187.5,35.1z M191.7,46.6c3-1.1,4.5-4.4,3.4-7.3c-1.1-3-4.4-4.5-7.3-3.4c-3,1.1-4.5,4.4-3.4,7.3
				C185.4,46.1,188.7,47.7,191.7,46.6z"/>
		</g>
	</g>
	<g>
		<g>
			<circle fill="#38ACC6" cx="170.1" cy="50.3" r="12.4"/>
			<path fill="#FFFFFF" d="M165.7,38.3c6.6-2.4,13.9,1,16.3,7.6s-1,13.9-7.6,16.3c-6.6,2.4-13.9-1-16.3-7.6
				C155.7,48,159.1,40.7,165.7,38.3z M174.2,61.5c6.2-2.3,9.4-9.1,7.2-15.4s-9.1-9.4-15.4-7.2c-6.2,2.3-9.4,9.1-7.2,15.4
				C161.1,60.6,168,63.8,174.2,61.5z"/>
		</g>
		<g>
			<circle fill="#ADD9E0" cx="170.1" cy="50.3" r="9.2"/>
			<path fill="#FFFFFF" d="M166.8,41.3c5-1.8,10.5,0.8,12.3,5.7c1.8,5-0.8,10.5-5.7,12.3c-5,1.8-10.5-0.8-12.3-5.7
				C159.2,48.6,161.8,43.1,166.8,41.3z M173.1,58.6c4.6-1.7,6.9-6.7,5.3-11.3s-6.7-6.9-11.3-5.3c-4.6,1.7-6.9,6.7-5.3,11.3
				S168.5,60.3,173.1,58.6z"/>
		</g>
		<g>
			<circle fill="#2F8FAD" cx="170.1" cy="50.3" r="6.1"/>
			<path fill="#FFFFFF" d="M167.9,44.2c3.4-1.2,7.1,0.5,8.3,3.9c1.2,3.4-0.5,7.1-3.9,8.3c-3.4,1.2-7.1-0.5-8.3-3.9
				C162.8,49.1,164.5,45.4,167.9,44.2z M172,55.7c3-1.1,4.5-4.4,3.4-7.3c-1.1-3-4.4-4.5-7.3-3.4c-3,1.1-4.5,4.4-3.4,7.3
				C165.8,55.2,169.1,56.7,172,55.7z"/>
		</g>
	</g>
	<g>
		<g>
			<circle fill="#38ACC6" cx="151.1" cy="62.2" r="12.4"/>
			<path fill="#FFFFFF" d="M146.7,50.2c6.6-2.4,13.9,1,16.3,7.6c2.4,6.6-1,13.9-7.6,16.3c-6.6,2.4-13.9-1-16.3-7.6
				S140.1,52.6,146.7,50.2z M155.2,73.5c6.2-2.3,9.4-9.1,7.2-15.4c-2.3-6.2-9.1-9.4-15.4-7.2c-6.2,2.3-9.4,9.1-7.2,15.4
				S148.9,75.7,155.2,73.5z"/>
		</g>
		<g>
			<circle fill="#ADD9E0" cx="151.1" cy="62.2" r="9.2"/>
			<path fill="#FFFFFF" d="M147.8,53.2c5-1.8,10.5,0.8,12.3,5.7s-0.8,10.5-5.7,12.3c-5,1.8-10.5-0.8-12.3-5.7
				C140.2,60.5,142.8,55,147.8,53.2z M154.1,70.5c4.6-1.7,6.9-6.7,5.3-11.3s-6.7-6.9-11.3-5.3c-4.6,1.7-6.9,6.7-5.3,11.3
				S149.5,72.2,154.1,70.5z"/>
		</g>
		<g>
			<circle fill="#2F8FAD" cx="151.1" cy="62.2" r="6.1"/>
			<path fill="#FFFFFF" d="M148.8,56.1c3.4-1.2,7.1,0.5,8.3,3.9c1.2,3.4-0.5,7.1-3.9,8.3s-7.1-0.5-8.3-3.9
				C143.8,61.1,145.5,57.3,148.8,56.1z M153,67.6c3-1.1,4.5-4.4,3.4-7.3c-1.1-3-4.4-4.5-7.3-3.4c-3,1.1-4.5,4.4-3.4,7.3
				C146.8,67.1,150,68.6,153,67.6z"/>
		</g>
	</g>
	<g>
		<g>
			<circle fill="#38ACC6" cx="151" cy="73.5" r="8.8"/>
			<path fill="#FFFFFF" d="M147.9,65c4.7-1.7,10,0.7,11.7,5.4c1.7,4.7-0.7,10-5.4,11.7c-4.7,1.7-10-0.7-11.7-5.4
				C140.7,71.9,143.2,66.7,147.9,65z M154,81.6c4.4-1.6,6.7-6.5,5.1-11c-1.6-4.4-6.5-6.7-11-5.1c-4.4,1.6-6.7,6.5-5.1,11
				C144.6,80.9,149.5,83.2,154,81.6z"/>
		</g>
		<g>
			<circle fill="#ADD9E0" cx="151" cy="73.5" r="6.6"/>
			<path fill="#FFFFFF" d="M148.7,67.1c3.6-1.3,7.5,0.5,8.8,4.1s-0.5,7.5-4.1,8.8c-3.6,1.3-7.5-0.5-8.8-4.1
				C143.3,72.3,145.1,68.4,148.7,67.1z M153.2,79.5c3.3-1.2,5-4.8,3.8-8.1c-1.2-3.3-4.8-5-8.1-3.8c-3.3,1.2-5,4.8-3.8,8.1
				C146.3,79,149.9,80.7,153.2,79.5z"/>
		</g>
		<g>
			<circle fill="#2F8FAD" cx="151" cy="73.5" r="4.4"/>
			<path fill="#FFFFFF" d="M149.4,69.2c2.4-0.9,5.1,0.4,5.9,2.8c0.9,2.4-0.4,5.1-2.8,5.9c-2.4,0.9-5.1-0.4-5.9-2.8
				S147,70,149.4,69.2z M152.4,77.4c2.1-0.8,3.2-3.1,2.4-5.2c-0.8-2.1-3.1-3.2-5.2-2.4c-2.1,0.8-3.2,3.1-2.4,5.2
				C148,77,150.3,78.1,152.4,77.4z"/>
		</g>
	</g>
	<g>
		<g>
			<circle fill="#38ACC6" cx="155.5" cy="48.7" r="8.8"/>
			<path fill="#FFFFFF" d="M152.4,40.1c4.7-1.7,10,0.7,11.7,5.4s-0.7,10-5.4,11.7c-4.7,1.7-10-0.7-11.7-5.4S147.7,41.8,152.4,40.1z
				 M158.5,56.7c4.4-1.6,6.7-6.5,5.1-11s-6.5-6.7-11-5.1c-4.4,1.6-6.7,6.5-5.1,11S154,58.4,158.5,56.7z"/>
		</g>
		<g>
			<circle fill="#ADD9E0" cx="155.5" cy="48.7" r="6.6"/>
			<path fill="#FFFFFF" d="M153.2,42.2c3.6-1.3,7.5,0.5,8.8,4.1s-0.5,7.5-4.1,8.8c-3.6,1.3-7.5-0.5-8.8-4.1
				C147.8,47.5,149.6,43.5,153.2,42.2z M157.7,54.6c3.3-1.2,5-4.8,3.8-8.1c-1.2-3.3-4.8-5-8.1-3.8c-3.3,1.2-5,4.8-3.8,8.1
				C150.8,54.1,154.4,55.8,157.7,54.6z"/>
		</g>
		<g>
			<circle fill="#2F8FAD" cx="155.5" cy="48.7" r="4.4"/>
			<path fill="#FFFFFF" d="M154,44.3c2.4-0.9,5.1,0.4,5.9,2.8c0.9,2.4-0.4,5.1-2.8,5.9c-2.4,0.9-5.1-0.4-5.9-2.8
				C150.3,47.9,151.6,45.2,154,44.3z M156.9,52.5c2.1-0.8,3.2-3.1,2.4-5.2c-0.8-2.1-3.1-3.2-5.2-2.4c-2.1,0.8-3.2,3.1-2.4,5.2
				C152.5,52.2,154.8,53.3,156.9,52.5z"/>
		</g>
	</g>
	<g>
		<g>
			<circle fill="#38ACC6" cx="137.4" cy="55.3" r="8.8"/>
			<path fill="#FFFFFF" d="M134.3,46.7c4.7-1.7,10,0.7,11.7,5.4s-0.7,10-5.4,11.7c-4.7,1.7-10-0.7-11.7-5.4
				C127.1,53.7,129.5,48.5,134.3,46.7z M140.3,63.4c4.4-1.6,6.7-6.5,5.1-11s-6.5-6.7-11-5.1c-4.4,1.6-6.7,6.5-5.1,11
				S135.9,65,140.3,63.4z"/>
		</g>
		<g>
			<circle fill="#ADD9E0" cx="137.4" cy="55.3" r="6.6"/>
			<path fill="#FFFFFF" d="M135,48.9c3.6-1.3,7.5,0.5,8.8,4.1c1.3,3.6-0.5,7.5-4.1,8.8c-3.6,1.3-7.5-0.5-8.8-4.1
				S131.5,50.2,135,48.9z M139.5,61.3c3.3-1.2,5-4.8,3.8-8.1c-1.2-3.3-4.8-5-8.1-3.8c-3.3,1.2-5,4.8-3.8,8.1
				C132.6,60.7,136.3,62.4,139.5,61.3z"/>
		</g>
		<g>
			<circle fill="#2F8FAD" cx="137.4" cy="55.3" r="4.4"/>
			<path fill="#FFFFFF" d="M135.8,51c2.4-0.9,5.1,0.4,5.9,2.8c0.9,2.4-0.4,5.1-2.8,5.9c-2.4,0.9-5.1-0.4-5.9-2.8
				C132.1,54.5,133.4,51.8,135.8,51z M138.8,59.1c2.1-0.8,3.2-3.1,2.4-5.2c-0.8-2.1-3.1-3.2-5.2-2.4c-2.1,0.8-3.2,3.1-2.4,5.2
				C134.3,58.8,136.7,59.9,138.8,59.1z"/>
		</g>
	</g>
	<g>
		<g>
			<circle fill="#38ACC6" cx="135.7" cy="70.7" r="8.8"/>
			<path fill="#FFFFFF" d="M132.6,62.2c4.7-1.7,10,0.7,11.7,5.4c1.7,4.7-0.7,10-5.4,11.7c-4.7,1.7-10-0.7-11.7-5.4
				C125.4,69.1,127.8,63.9,132.6,62.2z M138.6,78.8c4.4-1.6,6.7-6.5,5.1-11c-1.6-4.4-6.5-6.7-11-5.1c-4.4,1.6-6.7,6.5-5.1,11
				C129.2,78.1,134.2,80.4,138.6,78.8z"/>
		</g>
		<g>
			<circle fill="#ADD9E0" cx="135.7" cy="70.7" r="6.6"/>
			<path fill="#FFFFFF" d="M133.3,64.3c3.6-1.3,7.5,0.5,8.8,4.1c1.3,3.6-0.5,7.5-4.1,8.8c-3.6,1.3-7.5-0.5-8.8-4.1
				C127.9,69.5,129.8,65.6,133.3,64.3z M137.8,76.7c3.3-1.2,5-4.8,3.8-8.1s-4.8-5-8.1-3.8c-3.3,1.2-5,4.8-3.8,8.1
				C130.9,76.2,134.6,77.9,137.8,76.7z"/>
		</g>
		<g>
			<circle fill="#2F8FAD" cx="135.7" cy="70.7" r="4.4"/>
			<path fill="#FFFFFF" d="M134.1,66.4c2.4-0.9,5.1,0.4,5.9,2.8s-0.4,5.1-2.8,5.9s-5.1-0.4-5.9-2.8
				C130.5,69.9,131.7,67.2,134.1,66.4z M137.1,74.6c2.1-0.8,3.2-3.1,2.4-5.2c-0.8-2.1-3.1-3.2-5.2-2.4c-2.1,0.8-3.2,3.1-2.4,5.2
				C132.6,74.2,135,75.3,137.1,74.6z"/>
		</g>
	</g>
	<g>
		<g>
			<circle fill="#38ACC6" cx="137.2" cy="80.8" r="8.8"/>
			<path fill="#FFFFFF" d="M134.1,72.2c4.7-1.7,10,0.7,11.7,5.4c1.7,4.7-0.7,10-5.4,11.7s-10-0.7-11.7-5.4
				C127,79.2,129.4,73.9,134.1,72.2z M140.2,88.8c4.4-1.6,6.7-6.5,5.1-11c-1.6-4.4-6.5-6.7-11-5.1s-6.7,6.5-5.1,11
				C130.8,88.2,135.7,90.5,140.2,88.8z"/>
		</g>
		<g>
			<circle fill="#ADD9E0" cx="137.2" cy="80.8" r="6.6"/>
			<path fill="#FFFFFF" d="M134.9,74.3c3.6-1.3,7.5,0.5,8.8,4.1c1.3,3.6-0.5,7.5-4.1,8.8s-7.5-0.5-8.8-4.1
				C129.5,79.6,131.3,75.6,134.9,74.3z M139.4,86.7c3.3-1.2,5-4.8,3.8-8.1c-1.2-3.3-4.8-5-8.1-3.8c-3.3,1.2-5,4.8-3.8,8.1
				S136.1,87.9,139.4,86.7z"/>
		</g>
		<g>
			<circle fill="#2F8FAD" cx="137.2" cy="80.8" r="4.4"/>
			<path fill="#FFFFFF" d="M135.7,76.4c2.4-0.9,5.1,0.4,5.9,2.8c0.9,2.4-0.4,5.1-2.8,5.9c-2.4,0.9-5.1-0.4-5.9-2.8
				S133.3,77.3,135.7,76.4z M138.6,84.6c2.1-0.8,3.2-3.1,2.4-5.2c-0.8-2.1-3.1-3.2-5.2-2.4c-2.1,0.8-3.2,3.1-2.4,5.2
				C134.2,84.3,136.5,85.4,138.6,84.6z"/>
		</g>
	</g>
</g>
<g>
	<g>
		<g>
			<circle fill="#38ACC6" cx="184.6" cy="94.1" r="12.4"/>
			<path fill="#FFFFFF" d="M188.2,81.9c6.7,2,10.6,9.1,8.5,15.9c-2,6.7-9.1,10.6-15.9,8.5s-10.6-9.1-8.5-15.9
				C174.4,83.8,181.5,79.9,188.2,81.9z M181.1,105.6c6.3,1.9,13-1.7,14.9-8c1.9-6.3-1.7-13-8-14.9c-6.3-1.9-13,1.7-14.9,8
				C171.2,97,174.8,103.7,181.1,105.6z"/>
		</g>
		<g>
			<circle fill="#ADD9E0" cx="184.6" cy="94.1" r="9.2"/>
			<path fill="#FFFFFF" d="M187.3,84.9c5.1,1.5,8,6.9,6.4,12c-1.5,5.1-6.9,8-12,6.4s-8-6.9-6.4-12C176.9,86.3,182.3,83.4,187.3,84.9
				z M182,102.6c4.7,1.4,9.6-1.3,11-5.9c1.4-4.7-1.3-9.6-5.9-11c-4.7-1.4-9.6,1.3-11,5.9S177.4,101.2,182,102.6z"/>
		</g>
		<g>
			<circle fill="#2F8FAD" cx="184.6" cy="94.1" r="6.1"/>
			<path fill="#FFFFFF" d="M186.4,87.9c3.4,1,5.4,4.6,4.3,8.1s-4.6,5.4-8.1,4.3c-3.4-1-5.4-4.6-4.3-8.1
				C179.4,88.9,183,86.9,186.4,87.9z M182.9,99.6c3,0.9,6.2-0.8,7.1-3.8c0.9-3-0.8-6.2-3.8-7.1c-3-0.9-6.2,0.8-7.1,3.8
				C178.2,95.5,179.9,98.7,182.9,99.6z"/>
		</g>
	</g>
	<g>
		<g>
			<circle fill="#38ACC6" cx="166.3" cy="98.3" r="12.4"/>
			<path fill="#FFFFFF" d="M170,86.1c6.7,2,10.6,9.1,8.5,15.9c-2,6.7-9.1,10.6-15.9,8.5s-10.6-9.1-8.5-15.9
				C156.2,87.9,163.3,84.1,170,86.1z M162.9,109.8c6.3,1.9,13-1.7,14.9-8c1.9-6.3-1.7-13-8-14.9c-6.3-1.9-13,1.7-14.9,8
				C153,101.2,156.6,107.9,162.9,109.8z"/>
		</g>
		<g>
			<circle fill="#ADD9E0" cx="166.3" cy="98.3" r="9.2"/>
			<path fill="#FFFFFF" d="M169.1,89.1c5.1,1.5,8,6.9,6.4,12c-1.5,5.1-6.9,8-12,6.4s-8-6.9-6.4-12C158.7,90.5,164,87.6,169.1,89.1z
				 M163.8,106.8c4.7,1.4,9.6-1.3,11-5.9c1.4-4.7-1.3-9.6-5.9-11c-4.7-1.4-9.6,1.3-11,5.9C156.5,100.4,159.1,105.4,163.8,106.8z"/>
		</g>
		<g>
			<circle fill="#2F8FAD" cx="166.3" cy="98.3" r="6.1"/>
			<path fill="#FFFFFF" d="M168.2,92.1c3.4,1,5.4,4.6,4.3,8.1c-1,3.4-4.6,5.4-8.1,4.3s-5.4-4.6-4.3-8.1
				C161.2,93,164.8,91.1,168.2,92.1z M164.7,103.8c3,0.9,6.2-0.8,7.1-3.8c0.9-3-0.8-6.2-3.8-7.1c-3-0.9-6.2,0.8-7.1,3.8
				C160,99.7,161.7,102.9,164.7,103.8z"/>
		</g>
	</g>
	<g>
		<g>
			<circle fill="#38ACC6" cx="167.4" cy="82.6" r="12.4"/>
			<path fill="#FFFFFF" d="M171,70.4c6.7,2,10.6,9.1,8.5,15.9c-2,6.7-9.1,10.6-15.9,8.5s-10.6-9.1-8.5-15.9
				C157.2,72.2,164.3,68.4,171,70.4z M163.9,94.1c6.3,1.9,13-1.7,14.9-8c1.9-6.3-1.7-13-8-14.9c-6.3-1.9-13,1.7-14.9,8
				C154,85.5,157.6,92.2,163.9,94.1z"/>
		</g>
		<g>
			<circle fill="#ADD9E0" cx="167.4" cy="82.6" r="9.2"/>
			<path fill="#FFFFFF" d="M170.1,73.4c5.1,1.5,8,6.9,6.4,12c-1.5,5.1-6.9,8-12,6.4s-8-6.9-6.4-12C159.7,74.8,165.1,71.9,170.1,73.4
				z M164.8,91.1c4.7,1.4,9.6-1.3,11-5.9c1.4-4.7-1.3-9.6-5.9-11c-4.7-1.4-9.6,1.3-11,5.9C157.5,84.7,160.2,89.7,164.8,91.1z"/>
		</g>
		<g>
			<circle fill="#2F8FAD" cx="167.4" cy="82.6" r="6.1"/>
			<path fill="#FFFFFF" d="M169.2,76.4c3.4,1,5.4,4.6,4.3,8.1c-1,3.4-4.6,5.4-8.1,4.3s-5.4-4.6-4.3-8.1
				C162.2,77.3,165.8,75.4,169.2,76.4z M165.7,88.1c3,0.9,6.2-0.8,7.1-3.8c0.9-3-0.8-6.2-3.8-7.1c-3-0.9-6.2,0.8-7.1,3.8
				C161,84,162.7,87.2,165.7,88.1z"/>
		</g>
	</g>
	<g>
		<g>
			<circle fill="#38ACC6" cx="203.9" cy="81.7" r="12.4"/>
			<path fill="#FFFFFF" d="M207.5,69.5c6.7,2,10.6,9.1,8.5,15.9c-2,6.7-9.1,10.6-15.9,8.5s-10.6-9.1-8.5-15.9
				C193.7,71.3,200.8,67.5,207.5,69.5z M200.4,93.2c6.3,1.9,13-1.7,14.9-8c1.9-6.3-1.7-13-8-14.9c-6.3-1.9-13,1.7-14.9,8
				C190.5,84.6,194.1,91.3,200.4,93.2z"/>
		</g>
		<g>
			<circle fill="#ADD9E0" cx="203.9" cy="81.7" r="9.2"/>
			<path fill="#FFFFFF" d="M206.6,72.5c5.1,1.5,8,6.9,6.4,12c-1.5,5.1-6.9,8-12,6.4c-5.1-1.5-8-6.9-6.4-12
				C196.2,73.9,201.5,71,206.6,72.5z M201.3,90.1c4.7,1.4,9.6-1.3,11-5.9c1.4-4.7-1.3-9.6-5.9-11c-4.7-1.4-9.6,1.3-11,5.9
				S196.7,88.7,201.3,90.1z"/>
		</g>
		<g>
			<circle fill="#2F8FAD" cx="203.9" cy="81.7" r="6.1"/>
			<path fill="#FFFFFF" d="M205.7,75.5c3.4,1,5.4,4.6,4.3,8.1c-1,3.4-4.6,5.4-8.1,4.3c-3.4-1-5.4-4.6-4.3-8.1
				C198.7,76.4,202.3,74.5,205.7,75.5z M202.2,87.2c3,0.9,6.2-0.8,7.1-3.8c0.9-3-0.8-6.2-3.8-7.1c-3-0.9-6.2,0.8-7.1,3.8
				C197.5,83.1,199.2,86.2,202.2,87.2z"/>
		</g>
	</g>
	<g>
		<g>
			<circle fill="#38ACC6" cx="182.7" cy="77.2" r="12.4"/>
			<path fill="#FFFFFF" d="M186.3,65c6.7,2,10.6,9.1,8.5,15.9c-2,6.7-9.1,10.6-15.9,8.5s-10.6-9.1-8.5-15.9
				C172.5,66.8,179.6,63,186.3,65z M179.2,88.7c6.3,1.9,13-1.7,14.9-8c1.9-6.3-1.7-13-8-14.9c-6.3-1.9-13,1.7-14.9,8
				C169.3,80.1,172.9,86.8,179.2,88.7z"/>
		</g>
		<g>
			<circle fill="#ADD9E0" cx="182.7" cy="77.2" r="9.2"/>
			<path fill="#FFFFFF" d="M185.4,68c5.1,1.5,8,6.9,6.4,12c-1.5,5.1-6.9,8-12,6.4c-5.1-1.5-8-6.9-6.4-12
				C175,69.4,180.4,66.5,185.4,68z M180.2,85.7c4.7,1.4,9.6-1.3,11-5.9s-1.3-9.6-5.9-11s-9.6,1.3-11,5.9S175.5,84.3,180.2,85.7z"/>
		</g>
		<g>
			<circle fill="#2F8FAD" cx="182.7" cy="77.2" r="6.1"/>
			<path fill="#FFFFFF" d="M184.5,71c3.4,1,5.4,4.6,4.3,8.1c-1,3.4-4.6,5.4-8.1,4.3c-3.4-1-5.4-4.6-4.3-8.1S181.1,70,184.5,71z
				 M181,82.7c3,0.9,6.2-0.8,7.1-3.8c0.9-3-0.8-6.2-3.8-7.1c-3-0.9-6.2,0.8-7.1,3.8C176.3,78.6,178,81.8,181,82.7z"/>
		</g>
	</g>
	<g>
		<g>
			<circle fill="#38ACC6" cx="160.3" cy="75.4" r="12.4"/>
			<path fill="#FFFFFF" d="M164,63.2c6.7,2,10.6,9.1,8.5,15.9c-2,6.7-9.1,10.6-15.9,8.5s-10.6-9.1-8.5-15.9S157.2,61.2,164,63.2z
				 M156.9,86.8c6.3,1.9,13-1.7,14.9-8s-1.7-13-8-14.9c-6.3-1.9-13,1.7-14.9,8S150.5,85,156.9,86.8z"/>
		</g>
		<g>
			<circle fill="#ADD9E0" cx="160.3" cy="75.4" r="9.2"/>
			<path fill="#FFFFFF" d="M163.1,66.2c5.1,1.5,8,6.9,6.4,12c-1.5,5.1-6.9,8-12,6.4s-8-6.9-6.4-12C152.6,67.6,158,64.7,163.1,66.2z
				 M157.8,83.8c4.7,1.4,9.6-1.3,11-5.9c1.4-4.7-1.3-9.6-5.9-11c-4.7-1.4-9.6,1.3-11,5.9C150.4,77.5,153.1,82.4,157.8,83.8z"/>
		</g>
		<g>
			<circle fill="#2F8FAD" cx="160.3" cy="75.4" r="6.1"/>
			<path fill="#FFFFFF" d="M162.2,69.2c3.4,1,5.4,4.6,4.3,8.1c-1,3.4-4.6,5.4-8.1,4.3s-5.4-4.6-4.3-8.1
				C155.1,70.1,158.8,68.2,162.2,69.2z M158.7,80.8c3,0.9,6.2-0.8,7.1-3.8c0.9-3-0.8-6.2-3.8-7.1c-3-0.9-6.2,0.8-7.1,3.8
				C153.9,76.8,155.7,79.9,158.7,80.8z"/>
		</g>
	</g>
	<g>
		<g>
			<circle fill="#38ACC6" cx="153.5" cy="84.4" r="8.8"/>
			<path fill="#FFFFFF" d="M156.1,75.7c4.8,1.4,7.6,6.5,6.1,11.3c-1.4,4.8-6.5,7.6-11.3,6.1c-4.8-1.4-7.6-6.5-6.1-11.3
				C146.2,77,151.3,74.3,156.1,75.7z M151.1,92.6c4.5,1.4,9.3-1.2,10.7-5.7c1.4-4.5-1.2-9.3-5.7-10.7c-4.5-1.4-9.3,1.2-10.7,5.7
				C144,86.5,146.5,91.3,151.1,92.6z"/>
		</g>
		<g>
			<circle fill="#ADD9E0" cx="153.5" cy="84.4" r="6.6"/>
			<path fill="#FFFFFF" d="M155.5,77.9c3.6,1.1,5.7,4.9,4.6,8.6c-1.1,3.6-4.9,5.7-8.6,4.6c-3.6-1.1-5.7-4.9-4.6-8.6
				S151.9,76.8,155.5,77.9z M151.7,90.5c3.3,1,6.9-0.9,7.9-4.2c1-3.3-0.9-6.9-4.2-7.9c-3.3-1-6.9,0.9-7.9,4.2S148.4,89.5,151.7,90.5
				z"/>
		</g>
		<g>
			<circle fill="#2F8FAD" cx="153.5" cy="84.4" r="4.4"/>
			<path fill="#FFFFFF" d="M154.9,80c2.4,0.7,3.8,3.3,3.1,5.8c-0.7,2.4-3.3,3.8-5.8,3.1s-3.8-3.3-3.1-5.8
				C149.8,80.7,152.4,79.3,154.9,80z M152.4,88.3c2.2,0.6,4.4-0.6,5.1-2.7c0.6-2.2-0.6-4.4-2.7-5.1c-2.2-0.6-4.4,0.6-5.1,2.7
				C149,85.4,150.2,87.7,152.4,88.3z"/>
		</g>
	</g>
	<g>
		<g>
			<circle fill="#38ACC6" cx="172" cy="67.2" r="8.8"/>
			<path fill="#FFFFFF" d="M174.6,58.5c4.8,1.4,7.6,6.5,6.1,11.3c-1.4,4.8-6.5,7.6-11.3,6.1c-4.8-1.4-7.6-6.5-6.1-11.3
				S169.8,57.1,174.6,58.5z M169.5,75.4c4.5,1.4,9.3-1.2,10.7-5.7c1.4-4.5-1.2-9.3-5.7-10.7s-9.3,1.2-10.7,5.7S165,74.1,169.5,75.4z
				"/>
		</g>
		<g>
			<circle fill="#ADD9E0" cx="172" cy="67.2" r="6.6"/>
			<path fill="#FFFFFF" d="M174,60.6c3.6,1.1,5.7,4.9,4.6,8.6s-4.9,5.7-8.6,4.6c-3.6-1.1-5.7-4.9-4.6-8.6
				C166.5,61.6,170.3,59.6,174,60.6z M170.2,73.3c3.3,1,6.9-0.9,7.9-4.2c1-3.3-0.9-6.9-4.2-7.9c-3.3-1-6.9,0.9-7.9,4.2
				C164.9,68.8,166.8,72.3,170.2,73.3z"/>
		</g>
		<g>
			<circle fill="#2F8FAD" cx="172" cy="67.2" r="4.4"/>
			<path fill="#FFFFFF" d="M173.3,62.8c2.4,0.7,3.8,3.3,3.1,5.8c-0.7,2.4-3.3,3.8-5.8,3.1c-2.4-0.7-3.8-3.3-3.1-5.8
				C168.3,63.5,170.9,62.1,173.3,62.8z M170.8,71.1c2.2,0.6,4.4-0.6,5.1-2.7c0.6-2.2-0.6-4.4-2.7-5.1c-2.2-0.6-4.4,0.6-5.1,2.7
				C167.4,68.2,168.7,70.5,170.8,71.1z"/>
		</g>
	</g>
	<g>
		<g>
			<circle fill="#38ACC6" cx="153.5" cy="61.7" r="8.8"/>
			<path fill="#FFFFFF" d="M156.1,52.9c4.8,1.4,7.6,6.5,6.1,11.3s-6.5,7.6-11.3,6.1c-4.8-1.4-7.6-6.5-6.1-11.3
				C146.2,54.2,151.3,51.5,156.1,52.9z M151,69.9c4.5,1.4,9.3-1.2,10.7-5.7s-1.2-9.3-5.7-10.7c-4.5-1.4-9.3,1.2-10.7,5.7
				C143.9,63.7,146.5,68.5,151,69.9z"/>
		</g>
		<g>
			<circle fill="#ADD9E0" cx="153.5" cy="61.7" r="6.6"/>
			<path fill="#FFFFFF" d="M155.4,55.1c3.6,1.1,5.7,4.9,4.6,8.6s-4.9,5.7-8.6,4.6s-5.7-4.9-4.6-8.6C148,56.1,151.8,54,155.4,55.1z
				 M151.6,67.7c3.3,1,6.9-0.9,7.9-4.2c1-3.3-0.9-6.9-4.2-7.9c-3.3-1-6.9,0.9-7.9,4.2C146.4,63.2,148.3,66.7,151.6,67.7z"/>
		</g>
		<g>
			<circle fill="#2F8FAD" cx="153.5" cy="61.7" r="4.4"/>
			<path fill="#FFFFFF" d="M154.8,57.2c2.4,0.7,3.8,3.3,3.1,5.8c-0.7,2.4-3.3,3.8-5.8,3.1c-2.4-0.7-3.8-3.3-3.1-5.8
				C149.8,57.9,152.4,56.5,154.8,57.2z M152.3,65.6c2.2,0.6,4.4-0.6,5.1-2.7c0.6-2.2-0.6-4.4-2.7-5.1c-2.2-0.6-4.4,0.6-5.1,2.7
				C148.9,62.7,150.1,64.9,152.3,65.6z"/>
		</g>
	</g>
	<g>
		<g>
			<circle fill="#38ACC6" cx="142.9" cy="73" r="8.8"/>
			<path fill="#FFFFFF" d="M145.5,64.3c4.8,1.4,7.6,6.5,6.1,11.3s-6.5,7.6-11.3,6.1c-4.8-1.4-7.6-6.5-6.1-11.3
				C135.6,65.6,140.7,62.8,145.5,64.3z M140.4,81.2c4.5,1.4,9.3-1.2,10.7-5.7c1.4-4.5-1.2-9.3-5.7-10.7c-4.5-1.4-9.3,1.2-10.7,5.7
				C133.3,75.1,135.9,79.9,140.4,81.2z"/>
		</g>
		<g>
			<circle fill="#ADD9E0" cx="142.9" cy="73" r="6.6"/>
			<path fill="#FFFFFF" d="M144.9,66.4c3.6,1.1,5.7,4.9,4.6,8.6c-1.1,3.6-4.9,5.7-8.6,4.6c-3.6-1.1-5.7-4.9-4.6-8.6
				S141.2,65.4,144.9,66.4z M141.1,79.1c3.3,1,6.9-0.9,7.9-4.2S148,68,144.7,67c-3.3-1-6.9,0.9-7.9,4.2
				C135.8,74.5,137.7,78.1,141.1,79.1z"/>
		</g>
		<g>
			<circle fill="#2F8FAD" cx="142.9" cy="73" r="4.4"/>
			<path fill="#FFFFFF" d="M144.2,68.6c2.4,0.7,3.8,3.3,3.1,5.8c-0.7,2.4-3.3,3.8-5.8,3.1c-2.4-0.7-3.8-3.3-3.1-5.8
				C139.2,69.2,141.8,67.9,144.2,68.6z M141.7,76.9c2.2,0.6,4.4-0.6,5.1-2.7c0.6-2.2-0.6-4.4-2.7-5.1c-2.2-0.6-4.4,0.6-5.1,2.7
				C138.3,74,139.6,76.3,141.7,76.9z"/>
		</g>
	</g>
	<g>
		<g>
			<circle fill="#38ACC6" cx="138.1" cy="82" r="8.8"/>
			<path fill="#FFFFFF" d="M140.8,73.3c4.8,1.4,7.6,6.5,6.1,11.3c-1.4,4.8-6.5,7.6-11.3,6.1c-4.8-1.4-7.6-6.5-6.1-11.3
				S135.9,71.8,140.8,73.3z M135.7,90.2c4.5,1.4,9.3-1.2,10.7-5.7c1.4-4.5-1.2-9.3-5.7-10.7c-4.5-1.4-9.3,1.2-10.7,5.7
				C128.6,84.1,131.1,88.9,135.7,90.2z"/>
		</g>
		<g>
			<circle fill="#ADD9E0" cx="138.1" cy="82" r="6.6"/>
			<path fill="#FFFFFF" d="M140.1,75.4c3.6,1.1,5.7,4.9,4.6,8.6s-4.9,5.7-8.6,4.6c-3.6-1.1-5.7-4.9-4.6-8.6
				C132.6,76.4,136.5,74.4,140.1,75.4z M136.3,88.1c3.3,1,6.9-0.9,7.9-4.2c1-3.3-0.9-6.9-4.2-7.9c-3.3-1-6.9,0.9-7.9,4.2
				S133,87.1,136.3,88.1z"/>
		</g>
		<g>
			<circle fill="#2F8FAD" cx="138.1" cy="82" r="4.4"/>
			<path fill="#FFFFFF" d="M139.5,77.6c2.4,0.7,3.8,3.3,3.1,5.8c-0.7,2.4-3.3,3.8-5.8,3.1s-3.8-3.3-3.1-5.8
				C134.4,78.2,137,76.9,139.5,77.6z M137,85.9c2.2,0.6,4.4-0.6,5.1-2.7c0.6-2.2-0.6-4.4-2.7-5.1c-2.2-0.6-4.4,0.6-5.1,2.7
				C133.6,83,134.8,85.3,137,85.9z"/>
		</g>
	</g>
</g>
<g>
	<polygon fill="#303030" points="51.9,66.2 76.7,66.2 76.6,66.2 103.2,66.2 103.2,54 104,54 104,44.6 108.1,39.2 104,39.2 104,33.7 
		99.1,33.7 99.1,32.4 75.3,32.4 75.3,33.7 73.4,33.7 73.4,32.5 40.3,32.5 40.3,50.5 40.6,50.5 40.6,56.6 39.9,56.8 39.9,66.9 
		51.9,64.8 	"/>
	<polygon fill="#303030" points="125.8,44.5 131.1,44.5 131.1,52.1 128,57.2 133.3,57.2 128,65.8 140.9,65.8 141.1,66.1 154.4,66.1 
		154.4,65.8 161.8,65.8 161.8,66.2 193.3,66.2 193.3,66.8 212.1,66.8 212.1,32.3 200.1,32.3 200.1,54.7 194.5,54.7 194.5,54.2 
		195.1,54.2 195.1,44.2 193.9,44.2 193.9,42.7 194.8,42.7 194.8,32.6 175.5,32.6 175.4,32.4 162,32.4 162.4,34 155.9,34 156.8,32.4 
		142.5,32.4 141.6,34 132.6,34 132.6,32.3 113.8,32.3 113.8,66.8 125.8,66.8 	"/>
	<path fill="#303030" d="M247.5,89.9v-5h0.7v-3.5h0.8V69.1h-33.4v5.4h-7.2v-5.8h-13.1v5.8h-6.9v-5.8h-12.4V71h-3.2v-2.2H160v2.5h-4
		l-0.5-2.5h-27.8v1.2h-0.5V69h-21.4l-0.1-0.2H92.1l0.1,0.2H80.4v-0.3h-12v0.9h-1.5v-0.1h-17v-0.8H37.3v3.2H34V78h-0.7v2.1H3v10.3
		h30.9L33,102.5h31.8l1.4-2.9h4.4l1.8,2.9h14.6v-2.9h5.9l-1.5,2.8h14.2l0,0l0.1,0h19.6l1.2-2.3h1.1v2.4h29.8v-0.3h2.5v0.4h12.6v-0.4
		h1.8l0.1,0.4h7.6l0,0H197l4.9-9l5.3,9h14.7l-1.6-2.8h5.5v2.7h12.7v-2.7h10.5v-9.9H247.5z M192,84.8l-3.7,6.8v-6.8H192z M211.7,84.8
		h4.6v0.2h0.6v5h-1.5v1.2L211.7,84.8z"/>
</g>
<g>
	<path fill="#FFFFFF" d="M55,59.3l-11.5,2v-2.9l0.7-0.1V46.8h3v10.9l0.8-0.2v-12h-4.2V34.7h10.4v10.8h-1.5v3.8h2.2v2.9h-2.2v4.5
		l2.2-0.4V59.3z M49.7,37.6h-1.4v4.8h1.4V37.6z M65.6,61.2L61,51.8v6.5h2.8l-1.5,2.9h-6.7V34.7h14.3v14.1H61v0.9h4.3l0.9,1.8
		l0.5-1.8h3.9l-1.4,4.6h-1.7l3.4,6.9H65.6z M64.5,37.7H61v2.5h3.5V37.7z M64.5,43.2H61v2.7h3.5V43.2z"/>
	<path fill="#FFFFFF" d="M97.2,46.4h3.2v2.7H84.7l-1.1,1.4h16.1v10.7H75.7v-6.5h-1.9l4.4-5.7H74v-2.7h8.7v-2.1h-7.6v-2.6h7.6v-1.3
		h-3.8v-1.6H74v-2.9h4.9v-1.4h5.6v1.4h5.4v-1.4h5.6v1.4h4.9v2.9h-4.9v1.6h-5.6v-1.6h-5.4V40h3.8v1.7h5.3v1.4l1.3-1.7h6L97.2,46.4z
		 M93.9,53.1H81.5v1.4h12.5V53.1z M93.9,57.1H81.5v1.5h12.5V57.1z M88.3,44.3v2.1h2.8l1.6-2.1H88.3z"/>
	<path fill="#FFFFFF" d="M122.2,61.9h-4.9V34.5H129v5h-6.8V61.9z"/>
	<path fill="#FFFFFF" d="M158.3,52.3l-0.7,1.8h-6l1.7-4.4l-1.5-2.3h-8.2l-1.1,2.1l1.8,4.5h-6.1l-0.6-1.8h-3.3l2.9-4.9h-2.6v-2.8h4.2
		l0.8-1.3h-2.9v-2.8h4.5L142,39h-6.6v-2.8h8.3l0.9-1.6h6.1l-0.9,1.6h10.6V39h-12.1l-0.8,1.4h11.6v2.8H146l-0.8,1.3h15.9v2.8h-2.9
		l3.4,4.9H158.3z M140.5,60.8h-6.1l3.7-5.9h6.1L140.5,60.8z M143.5,61.2l-1.1-2.8h2.7V48.2h5.7v12.9H143.5z M155.3,60.8l-3.6-5.9
		h6.1l3.7,5.9H155.3z"/>
	<path fill="#FFFFFF" d="M164.6,39.8V37h2.5l-0.6-2.4h6L173,37h2.6v2.8H164.6z M165.3,44.1v-2.8h9.9v2.8H165.3z M165.3,48.4v-2.8
		h9.9v2.8H165.3z M165.4,61.2V49.7h9.8v11.5H165.4z M170.9,52.6h-1.1v5.7h1.1V52.6z M175.6,49.2v-2.9h2.4l0.6-3.4h-2v-2.8h2.4
		l0.3-2.4h-3.1v-2.9h15v2.9h-6.6l-0.4,2.4h6.1v6.2h1.2v2.9H175.6z M176.6,61.2V50.5H191v10.7H176.6z M185.7,53.4h-3.8v4.9h3.8V53.4z
		 M185.5,42.9h-1.6l-0.5,3.4h2.1V42.9z"/>
	<path fill="#FFFFFF" d="M203.6,34.5h4.9v27.4h-11.7v-5h6.8V34.5z"/>
</g>
<g>
	<path fill="#FFFFFF" d="M6.5,85.4v-3.1h26.8v3.1H6.5z"/>
	<path fill="#FFFFFF" d="M62.6,97.6H44.3l-3.8-2.4l-0.2,2.4h-3.5L37.7,85h3.5l-0.5,6.9l1.2,0.8V83h-5.1v-2.8h4.1v-3.3h-3.4v-2.8h3.4
		V71h5.3v3.2h3.2v2.8h-3.2v3.3h3.9V83h-3v3.7H50v2.8h-2.9v5.1H64L62.6,97.6z M62.8,93.4h-12V71.7h12.5v13h-7.4v5.9h8.3L62.8,93.4z
		 M58,74.6h-2.2v7.3H58V74.6z"/>
	<path fill="#FFFFFF" d="M89.1,86l-1.7-1.1L85.9,86H68v-2.8h-0.9v-1.9h4.8v-0.8h-4.2v-6h4.2v-0.7h-4.6v-2.1h4.6v-0.9h4.9v0.9h4.4
		v2.1h-4.4v0.7h4.1v2.6l1.3-2v-4h10.5v3.7h1.9l-1.2,2.6h-5.3v-3.8h-1.6V76l-1,1.5h-4.7v3.1h-4.1v0.8h4.7v1.9h-0.8v2.5l3.8-2.7
		L82,81.3h4.8l1.1-0.8h-6.1v-2.4h11.6v2.5l-3,2.2L95,86H89.1z M83.6,94.7v2.9h-9.1l-1.3-2.1h4.5v-0.8H67.2v-2.3h10.5v-0.8h-9.1v-1.9
		h9.1V89h-9.8v-2.1h19.9l0.2-0.5h5.5L92.7,89h-9.1v0.8H93v1.9h-9.4v0.8h10.6v2.3H83.6z M71.9,76h-1.5v0.9h1.5V76z M71.9,78.2h-1.5
		V79h1.5V78.2z M71.9,83.2h-1.4v1h1.4V83.2z M78.3,76h-1.5v0.9h1.5V76z M78.3,78.2h-1.5V79h1.5V78.2z M78.2,83.2h-1.4v1h1.4V83.2z"
		/>
	<path fill="#FFFFFF" d="M123.3,97.4H107l-2.4-1.7l-0.9,1.7h-6.1l2.8-5v-4.2h-2.5v-3.1l2.6-4.6h-2.9v-2.9h8.2v3.5l-2.3,4.2h2.3v7.8
		l2.1,1.5h16.8L123.3,97.4z M100.2,76.6L97.7,71h5.8l2.7,5.6H100.2z M112.6,84.1v6.8h3.5l-1.5,2.8h-7.3V71.2h16.4v12.9H112.6z
		 M118.1,74.1h-5.5v2.2h5.5V74.1z M118.1,79h-5.5v2.3h5.5V79z M123.1,89.2h-1.5l2.7,4.5h-5.9l-5.4-8.8h6l0.8,1.3l0.4-1.3h4.4
		L123.1,89.2z"/>
	<path fill="#FFFFFF" d="M128.4,79l-0.6-6.9h2.4l0.7,6.9H128.4z M153.9,82.3v15.3h-6.6l-1.4-2.8h2.6V84.2h-1.2l-2,13.4h-5.5
		l2.1-13.4h-1.5v-1.9h-0.5v0.5h-3.5v14.8h-5V82.8h-3.5V80h3.5v-9.1h5V80h3.2l1.9-9.1h5.4l-2.2,10.5h4.8l-2.3-10.5h5.5l2.4,11.4
		H153.9z M130.3,95.2h-2.5l0.5-11.1h2.5L130.3,95.2z M139.1,79h-2.5l0.5-6.9h2.5L139.1,79z M137.3,95.2L136.8,84h2.3l0.6,11.1H137.3
		z"/>
	<path fill="#FFFFFF" d="M162,97.2h-4.2l1.2-9.1h4.2L162,97.2z M169.1,76.3v1.5h4.8v9.6h-4l-0.8-1.9v12.2h-5.5v-17h-1.3v6.8h-3.7
		v-9.6h5v-1.5H158v-2.9h5.6v-2.5h5.5v2.5h5.1v2.9H169.1z M170.4,80.6h-1.3v3.9h1.3V80.6z M171,97.2l-1.6-9.1h4.2l1.5,9.1H171z
		 M174.9,92.2v-19h3.6v19H174.9z M177.1,97.6l-1.1-3h3.5V70.9h5.2v26.7H177.1z"/>
	<path fill="#FFFFFF" d="M209.2,97.6L201.8,85l-6.9,12.6h-6.6l9.8-17.8h-9.4v-3.2h10.1v-5.8h6v5.8h10.3v3.2h-10.3l-1,1.8h2.8
		l9.2,16.1H209.2z"/>
	<path fill="#FFFFFF" d="M235,94.8v2.7h-5.6v-2.7h-10.5v-2.7h10.5v-1.2h-9v-9.7h9V80h-9.6v-2.7h9.6v-2.4h5.6v2.4h9.6V80H235v1.2h8.9
		v9.7H235v1.2h10.5v2.7H235z M239.6,76.4v-2.3h-14.9v2.3h-5.7v-5.2h26.3v5.2H239.6z M229.4,83.8h-3.5v1.1h3.5V83.8z M229.4,87h-3.5
		v1.2h3.5V87z M238.6,83.8H235v1.1h3.6V83.8z M238.6,87H235v1.2h3.6V87z"/>
</g>
<g>
	<path fill="#FFFFFF" d="M16.8,42.1c1,0,1.9,0.3,2.9,0.6c0.8,0.3,1.1-1,0.3-1.2c-1.1-0.3-2.1-0.6-3.2-0.6
		C15.9,40.8,15.9,42.1,16.8,42.1L16.8,42.1z"/>
</g>
<g>
	<path fill="#FFFFFF" d="M18.1,39.6c-0.5,1-1,2.1-1.3,3.2c-0.2,0.8,1,1.1,1.2,0.3c0.2-1,0.6-2,1.1-2.9
		C19.6,39.6,18.5,38.9,18.1,39.6L18.1,39.6z"/>
</g>
<g>
	<path fill="#FFFFFF" d="M23.8,36.2c0.5,0.4,0.9,0.6,1.5,0.7c0.6,0.2,1,0.5,1.6,0.7c0.7,0.3,1.1-0.9,0.3-1.2
		c-0.4-0.2-0.8-0.5-1.3-0.6c-0.4-0.2-0.9-0.2-1.3-0.5C24.1,34.8,23.2,35.7,23.8,36.2L23.8,36.2z"/>
</g>
<g>
	<path fill="#FFFFFF" d="M25.7,34.7c-0.2,1-0.7,1.8-1.1,2.7c-0.3,0.7,0.8,1.4,1.1,0.6c0.4-1,1-1.9,1.2-3
		C27.1,34.3,25.9,33.9,25.7,34.7L25.7,34.7z"/>
</g>
<g>
	<path fill="#FFFFFF" d="M24.5,42.7c0.8,0,0.8-1.2,0-1.2S23.7,42.7,24.5,42.7L24.5,42.7z"/>
</g>
<g>
	<path fill="#FFFFFF" d="M132.9,15c1,0.8,2,1.5,2.9,2.4c0.6,0.6,1.4-0.3,0.9-0.9c-1-1-2-1.8-3.1-2.6C132.8,13.5,132.2,14.6,132.9,15
		L132.9,15z"/>
</g>
<g>
	<path fill="#FFFFFF" d="M135.4,13.8c-0.9,0.5-1.6,1.2-2.3,1.9c-0.6,0.6,0.3,1.4,0.9,0.9c0.6-0.6,1.3-1.3,2-1.7
		C136.7,14.5,136,13.4,135.4,13.8L135.4,13.8z"/>
</g>
<g>
	<path fill="#FFFFFF" d="M147.2,15.8c0.3,1.1,1.4,1.5,1.9,2.5c0.4,0.7,1.5,0.1,1.1-0.6c-0.2-0.4-0.6-0.7-0.9-1.1
		c-0.3-0.3-0.7-0.6-0.9-1.1C148.2,14.7,147,15.1,147.2,15.8L147.2,15.8z"/>
</g>
<g>
	<path fill="#FFFFFF" d="M148.9,15.6c-0.7,0.6-1.2,1.4-1.8,2c-0.6,0.6,0.3,1.5,0.9,0.9c0.6-0.6,1.1-1.4,1.8-2
		C150.4,15.9,149.5,15.1,148.9,15.6L148.9,15.6z"/>
</g>
<g>
	<path fill="#FFFFFF" d="M142.3,21c-0.1-0.6,0.8-0.5,1-0.2c0.4,0.7-0.7,0.6-0.9,0.2c-0.4-0.7-1.5,0-1.1,0.6c0.5,0.8,1.4,1.1,2.3,0.9
		c1-0.3,1.2-1.4,0.8-2.2c-0.4-0.8-1.4-1.1-2.1-0.9c-0.9,0.2-1.4,1.1-1.2,2C141.2,22.1,142.4,21.8,142.3,21L142.3,21z"/>
</g>
<g>
	<path fill="#FFFFFF" d="M237.3,46.8c0.8,0,0.8-1.2,0-1.2C236.5,45.5,236.5,46.8,237.3,46.8L237.3,46.8z"/>
</g>
<g>
	<path fill="#FFFFFF" d="M240.5,48.1c0.8,0,0.8-1.2,0-1.2S239.7,48.1,240.5,48.1L240.5,48.1z"/>
</g>
<g>
	<path fill="#FFFFFF" d="M82.8,125.5c0.8,0,0.8-1.2,0-1.2S81.9,125.5,82.8,125.5L82.8,125.5z"/>
</g>
<g>
	<path fill="#FFFFFF" d="M90.8,124.1c0.8,0,0.8-1.2,0-1.2S89.9,124.1,90.8,124.1L90.8,124.1z"/>
</g>
<g>
	<path fill="#FFFFFF" d="M85.4,120.7c0-0.2-0.1-0.1,0-0.2c0.1,0,0.3,0.1,0.4,0.2c0.1,0.2,0.1,0.2-0.1,0.2c-0.1,0-0.2-0.1-0.2-0.2
		c-0.2-0.8-1.5-0.4-1.2,0.3c0.2,0.8,0.9,1.2,1.7,1.1c0.7-0.1,1.2-0.8,1.1-1.5c-0.2-0.7-0.8-1.3-1.5-1.3c-0.8-0.1-1.4,0.6-1.4,1.4
		C84.2,121.5,85.4,121.5,85.4,120.7L85.4,120.7z"/>
</g>
<circle fill="#FFFFFF" cx="116.7" cy="20" r="4.9"/>
<circle fill="#FFFFFF" cx="79" cy="25.1" r="1.7"/>
<circle fill="#FFFFFF" cx="34.6" cy="108.8" r="3"/>
<circle fill="#FFFFFF" cx="130.6" cy="112.5" r="2.6"/>
<circle fill="#FFFFFF" cx="146.7" cy="112.5" r="4.3"/>
<circle fill="#FFFFFF" cx="221.9" cy="34.9" r="3"/>
<circle fill="#FFFFFF" cx="227.9" cy="57" r="6.1"/>
</svg>
