<?xml version="1.0" encoding="utf-8"?>
<!-- Generator: Adobe Illustrator 17.1.0, SVG Export Plug-In . SVG Version: 6.00 Build 0)  -->
<svg version="1.2" baseProfile="tiny" id="圖層_1"
	 xmlns="http://www.w3.org/2000/svg" xmlns:xlink="http://www.w3.org/1999/xlink" x="0px" y="0px" viewBox="0 0 228 77.9"
	 xml:space="preserve">
<path fill="#FFFFFF" d="M16.2,35.7l-1.1-2.1l-0.6,2.1H9l2-6.5v-13H9.2v-2.9H11v-4h5.3v4h6.2v22.4H16.2z M17.6,16.2h-1.3v13.5
	l-0.9,2.8h2.2V16.2z M24.2,35.7v-25h11.5v25H24.2z M30.6,13.7h-1.4v18.9h1.4V13.7z"/>
<path fill="#FFFFFF" d="M60.2,35.9l-7.5-17.3l-7.9,17.3h-6.1l8.7-19.1h4.6l-1.7-4h-5.8V9.6h10.8l11.3,26.3H60.2z"/>
<path fill="#FFFFFF" d="M69.8,17.3l-0.6-6.8h2.4l0.7,6.8H69.8z M95.1,20.6v15.1h-6.5l-1.4-2.8h2.6V22.5h-1.2l-2,13.2h-5.5l2-13.2
	h-1.5v-1.9h-0.5v0.5h-3.5v14.6h-4.9V21.1h-3.5v-2.8h3.5v-9h4.9v9h3.2l1.9-9H88l-2.1,10.4h4.7L88.4,9.3h5.4l2.4,11.3H95.1z
	 M71.7,33.3h-2.4l0.5-11h2.5L71.7,33.3z M80.4,17.3H78l0.5-6.8H81L80.4,17.3z M78.7,33.3l-0.6-11h2.3l0.6,11H78.7z"/>
<path fill="#FFFFFF" d="M105.9,15.3h4.8v2.7l-2.7,3h2.8v5.3H99.7v-3l4.6-5.2h-4.6v-2.9l5.2-6.1h6.3L105.9,15.3z M99.7,35.7v-8.3h3.1
	v8.3H99.7z M103.7,35.7v-8.3h3.1v8.3H103.7z M107.5,21.7l-1.6,1.8h1.6V21.7z M107.7,35.7v-8.3h3.1v8.3H107.7z M121.9,25.7l-0.5-1.5
	l-0.5,1.3v10.1h-5l-1.1-2l-0.2,1.4h-3.4l0.8-8.1h3.4l-0.6,6h1.1v-7.1h-4.5v-2.4l3.8-4.5h-3.8v-3.4l5.1-6.2h5.5l-5.4,6.6h1.1l2-2.3
	h5.9l-7.7,9.2h3l-0.7-2.4h4.3l1.5,5.3H121.9z M122.2,34.9l-0.9-8h3.7l1,8.1L122.2,34.9z"/>
<path fill="#FFFFFF" d="M129.8,35.7V9.6h25.6v26.1H129.8z M150.4,12.3H145v0.9h4.8v2.2H145v0.7h4.6v6.6H149l1.2,3.5h-1.4v0.5h1v2h-1
	v3.9h-5.9l-0.4-0.5h-4.2l-2.1-2.9h5.2l0.8,1.2h1.6v-1.7h-8.5v-2h8.5v-0.8h3.1l-0.2-0.5l-11.4,0.3v-2l4.6-0.1v-0.8h-4.4v-6.6h4.4
	v-0.7h-4.6v-2.2h4.6v-0.9h-5.3v20.8h15.6V12.3z M140,17.9h-1.4v0.8h1.4V17.9z M140,20.1h-1.4v0.9h1.4V20.1z M146.4,17.9H145v0.8h1.4
	V17.9z M146.4,20.1H145v0.9h1.4V20.1z M145.8,22.7H145v0.7l1-0.1L145.8,22.7z"/>
<path fill="#FFFFFF" d="M14.9,48.4h2.5l-2.6,6.8h1.1v13.5h-5.6V56.3H8.6l2.8-7H8.7l2.9-7.1h5.8L14.9,48.4z M33.3,61.4v7.3h-6.2
	l-1.3-2.9h2v-4.4H16.5v-3h11.3v-1.2H17v-2.8h17.7v2.8h-1.4v1.2h2.2v3H33.3z M20.1,67.7L17.7,62h5.8l2.5,5.7H20.1z M17.7,53.3V42.5
	h16.7v10.8H17.7z M29.1,45.4h-5.9v1.1h5.9V45.4z M29.1,49.2h-5.9v1.2h5.9V49.2z"/>
<path fill="#FFFFFF" d="M57.6,68.7l-5.4-3.8l-5.5,3.8h-8.4l8.2-5.7h-7.4v-2.6h10.2v-2.1h5.5v2.1h2.5L56.9,59h5.5l0.4,1.4h2.5V63
	H54.9l-1,0.8h5.1l7.2,4.9H57.6z M64.4,53.9v4.5h-6.7l-0.3-0.6h-4.7l-2.2-3.2H56l0.9,1.4h2.2v-2h-9.4v-2.5h9.4v-1.7L58,50.6h-7.7
	l-1.1-2v9.7h-5v-4.9h-0.9v3.3l-0.8,1.6h-4l1.1-2v-2.9h-0.7v-2.8h5.4v-1.8h-4.8v-5.8h3.9v3.2h1v-3.9h5v3.6l3.3-3.6h6l-0.7,0.8h7.1
	v2.6l-5.1,3.8h4.6v2.1h1.1v2.5H64.4z M53.4,46.5h-4.3v1.8h1.4L50,47h3.2l0.7,1.2h0.7L53.4,46.5z M55.6,45.4L55,45.9h1.3l0.3,0.5
	l1.4-1.1H55.6z"/>
<path fill="#FFFFFF" d="M68.8,47.5v-2.9h2.9L71,42.3h5.5l0.5,2.4h2.6v2.9H68.8z M69.4,51.8v-2.9H79v2.9H69.4z M69.4,56.1v-2.9H79
	v2.9H69.4z M69.4,68.7V57.5H79v11.2H69.4z M74.8,60.4h-1.3v5.4h1.3V60.4z M94.6,68.7h-5.9V57.8h-2v10.9h-5.2V57.8h-2v-3h2v-8.4h5.2
	v8.4h2v-9.3h-8.4v-2.9H94v23.2h2L94.6,68.7z"/>
<path fill="#FFFFFF" d="M103.9,68.6h-5.2l1.6-8.3h5.2L103.9,68.6z M100.1,59.2V44h5.9l0.7-1.8h6.3l-0.7,1.8H124v15.2H100.1z
	 M118.3,46.7H106v1.5h12.4V46.7z M118.3,50.8H106v1.6h12.4V50.8z M118.3,54.8H106v1.6h12.4V54.8z M118.4,68.6H106v-8.3h5.4v5.5h8.2
	L118.4,68.6z M113.3,64.7l-1-4.5h5.1l1.1,4.5H113.3z M120.4,68.6l-1.6-8.3h5.3l1.6,8.3H120.4z"/>
<path fill="#FFFFFF" d="M142.8,45.4l-1.7,3.8h4.8v19.3H140V51.8l-5.4,11.9h-6.2l8.2-18.3H129v-3h26.1v3H142.8z M150,63.8l-4.1-15.9
	h5.8l4.1,15.9H150z"/>
<path fill="#FFFFFF" d="M159.6,48.8l-1-6.5h4.8l1,6.5H159.6z M159.8,56.3l-1.1-6.7h4.8l1.1,6.7H159.8z M163.4,68.6h-4.6l1-11.3h4.7
	L163.4,68.6z M180.1,53.6v1.6h4.8v13.5h-4.1l-1-2.6h1.3v-0.7H180l-0.5-1.8v4.8h-3.2v-3h-1.2l-0.6-2.3v5.6h-3.8V55.2h4.9v-1.6h-5.8
	V65l-1.2,3.7h-4.9l1.4-4.4V42.5h19.9v7.1h-15.1v1.3h15.7v2.7H180.1z M179.9,45.2h-10.1v1.9h10.1V45.2z M176.3,57.9h-1.8v0.8h1.1
	l0.7,2.3V57.9z M176.3,61.6h-1.2l-0.6-2v2.7h1.2l0.6,2.3V61.6z M181.2,57.9h-1.7v0.8h1.1l0.6,2.5V57.9z M181.2,61.6h-1.2l-0.5-1.7
	v2.4h1.1l0.7,2.4V61.6z"/>
<path fill="#FFFFFF" d="M196,56.1v12.5h-6.4l-1.1-2.8h2.3v-6.4l-2,1.3v-3.4l2-1.3v-7.2h-2.1v-2.8h2.1v-3.9h5.2v3.9h1.4v2.8H196v3.8
	l1.4-0.8v3.3L196,56.1z M208,68.6l-1.5-1l-1.7,1h-8.3l5.9-3.5l-3.1-2v-3.4h-1.5v-2.8h1.5V55h5.2v1.9h4.1V55h5.2v1.9h1.7v2.8h-1.7
	v3.6l-3.1,1.9l5.4,3.4H208z M197.8,54.2v-2.8h2.2l-1.2-3.6h5.3l1.3,3.6h2.2l1.2-3.6h5.2l-1.1,3.6h2.4v2.8H197.8z M198.1,46.9v-2.7
	h5.5l-0.6-2h5.9l0.6,2h5.2v2.7H198.1z M208.6,59.7h-4.1v1.6l2,1.3l2-1.2V59.7z"/>
<polygon fill="#FFFFFF" points="204,18.1 195,13.8 195,20.1 167.4,20.1 167.4,24.8 195,24.8 195,31.1 204,26.8 213,22.5 "/>
</svg>
