<?xml version="1.0" encoding="utf-8"?>
<!-- Generator: Adobe Illustrator 17.1.0, SVG Export Plug-In . SVG Version: 6.00 Build 0)  -->
<svg version="1.2" baseProfile="tiny" id="圖層_1"
	 xmlns="http://www.w3.org/2000/svg" xmlns:xlink="http://www.w3.org/1999/xlink" x="0px" y="0px" viewBox="0 0 283.3 66.8"
	 xml:space="preserve">
<g>
	<g>
		<path fill="#BA4A4A" d="M273.1,53c0,4.8-3.9,8.6-8.6,8.6H18c-4.8,0-8.6-3.9-8.6-8.6V18.9c0-4.8,3.9-8.6,8.6-8.6h246.4
			c4.8,0,8.6,3.9,8.6,8.6V53z"/>
		<path fill="none" stroke="#BA4A4A" stroke-width="2" stroke-miterlimit="10" d="M273.1,53c0,4.8-3.9,8.6-8.6,8.6H18
			c-4.8,0-8.6-3.9-8.6-8.6V18.9c0-4.8,3.9-8.6,8.6-8.6h246.4c4.8,0,8.6,3.9,8.6,8.6V53z"/>
	</g>
	<g>
		<linearGradient id="SVGID_1_" gradientUnits="userSpaceOnUse" x1="141.2384" y1="17.5892" x2="141.2384" y2="209.328">
			<stop  offset="0" style="stop-color:#FFFFFF"/>
			<stop  offset="1" style="stop-color:#000000"/>
		</linearGradient>
		<path fill="url(#SVGID_1_)" d="M273.1,48.7c0,4.8-3.9,8.6-8.6,8.6H18c-4.8,0-8.6-3.9-8.6-8.6V14.6C9.4,9.8,13.3,6,18,6h246.4
			c4.8,0,8.6,3.9,8.6,8.6V48.7z"/>
		<path fill="none" stroke="#CE6161" stroke-width="2" stroke-miterlimit="10" d="M273.1,48.7c0,4.8-3.9,8.6-8.6,8.6H18
			c-4.8,0-8.6-3.9-8.6-8.6V14.6C9.4,9.8,13.3,6,18,6h246.4c4.8,0,8.6,3.9,8.6,8.6V48.7z"/>
	</g>
</g>
<g>
	<path fill="#CE6161" d="M16.9,42.3v-2.9h14l3.9-13.6h5.5l-3.8,13.6h5.9v2.9H16.9z M17.7,24v-2.9H27l-0.7-4.2h6l0.7,4.2h8.5V24H17.7
		z M22.9,37.9l-4.2-12.2h5.6l4.2,12.2H22.9z"/>
	<path fill="#CE6161" d="M54.3,42.2l-0.5-2l-1.1,2h-6.6v-25h12v14.6h-6.8v7.7h2.4l-1.4-5.9h4.8l2,8.6H54.3z M53.8,19.9h-2.4v3.2h2.4
		V19.9z M53.8,25.9h-2.4v3.2h2.4V25.9z M65.8,40.1l-1.2-2.3v4.4h-5v-25h11.2v22.9H65.8z M66.3,19.9h-1.8v17.5h1.8V19.9z"/>
	<path fill="#CE6161" d="M97.8,28v14.2h-8.7l-1.4-2.9h4.6v-9.4h-5.4l-6,12.4h-6.2l5.9-12.4h-3.5v-2h-3l5.2-11h6.1L80.8,27h13.1
		l-5-10.1h6.1l5.5,11H97.8z"/>
	<path fill="#CE6161" d="M119.1,37.5v4.8h-9l-1.4-2.7h4.9v-2.2h-10.3v-2.6h10.3v-1.2l4.1-1.1H105v-2.5H127v2.6l-8,2.2h10.1v2.6
		H119.1z M103.4,21.2v-2.7h9.9l-0.6-1.7h5.9l0.7,1.7h9.6v2.7H103.4z M104.7,29v-6.8h22.9V29H104.7z M122.2,24.7h-12.1v1.8h12.1V24.7
		z"/>
	<path fill="#CE6161" d="M132.2,42.8v-2.9l1-0.1v-18h4.6v17.3l1.5-0.3V16.9h5.2v7.5h2v2.8h-2V38l2-0.3v2.9L132.2,42.8z M157.1,42.4
		H147V16.9h5.1V29h1l0.9-9.2h3.9l-1.1,12h-4.7v7.7h6.1L157.1,42.4z"/>
	<path fill="#CE6161" d="M163.4,23.6l-2.6-6.6h5.4l2.5,6.6H163.4z M166.2,42.3h-5.3l2.2-10.4h5.3L166.2,42.3z M163.3,30.9l-2.4-6.2
		h5.4l2.2,6.2H163.3z M185.2,21h-5.1v3.3h6.5V27h-6.5v3.4h5.5v12h-16.5v-12h5.5V27h-6.5v-2.7h6.5V21h-5.6v-2.7h11.4l0.7-1.4h5.7
		L185.2,21z M180.3,33.1h-5.7v6.4h5.7V33.1z"/>
	<path fill="#CE6161" d="M210.4,42.2l-1.2-2.3l-0.8,2.3h-4.6l0.2-0.7l-14,0.8v-2.5l5.1-0.3v-1.4h-4.3v-2.4h4.3v-1.1h-4.8v-9.6h4.8
		v-1h-5.2v-2.6h5.2v-1h-4.8v-2.5h8.7l0.5-1.2h5.2l-1.4,3.6h-3.7v1h4.9v2.6h-4.9v1h4.7v9.6h-4.7v1.1h4.4v2.4h-4.4v1l4.6-0.2V41
		l1.5-4.5V23.9H205v-2.7h0.8v-4.2h4.2v4.2h5.1v21H210.4z M195,27.6h-1.3v1.2h1.3V27.6z M195,31.1h-1.3v1.2h1.3V31.1z M200.9,27.6
		h-1.3v1.2h1.3V27.6z M200.9,31.1h-1.3v1.2h1.3V31.1z M210.9,23.9h-1v13.9l-0.6,1.6h1.6V23.9z"/>
	<path fill="#CE6161" d="M225.4,42.3h-6.9l4.2-4h6.9L225.4,42.3z M234.4,19.9l-0.6,1.9h8.8v15.7h-22.3V21.7h7.8l0.6-1.9h-9.8v-2.7
		h25v2.7H234.4z M237.1,24.4h-11.3v1.7h11.3V24.4z M237.1,28.6h-11.3v1.7h11.3V28.6z M237.1,32.9h-11.3v1.7h11.3V32.9z M238,42.3
		l-4.5-4h6.5l4.4,4H238z"/>
	<path fill="#CE6161" d="M257.4,34.3V18.9h5.5v15.4H257.4z M257.4,40.9v-5.4h5.5v5.4H257.4z"/>
</g>
</svg>
