<?xml version="1.0" encoding="utf-8"?>
<!-- Generator: Adobe Illustrator 17.1.0, SVG Export Plug-In . SVG Version: 6.00 Build 0)  -->
<svg version="1.2" baseProfile="tiny" id="圖層_1"
	 xmlns="http://www.w3.org/2000/svg" xmlns:xlink="http://www.w3.org/1999/xlink" x="0px" y="0px" viewBox="0 0 393 32.2"
	 xml:space="preserve">
<g>
	<path fill="#FFFFFF" d="M11.4,28.9l-1.1-2.1l-0.6,2.1H4.2l2-6.5v-13H4.4V6.6h1.8v-4h5.3v4h6.2v22.4H11.4z M12.9,9.5h-1.3V23
		l-0.9,2.8h2.2V9.5z M19.4,28.9V4h11.5v25H19.4z M25.8,7h-1.4v18.9h1.4V7z"/>
	<path fill="#FFFFFF" d="M55.4,29.2l-7.5-17.3L40,29.2h-6.1L42.6,10h4.6l-1.7-4h-5.8V2.8h10.8l11.3,26.3H55.4z"/>
	<path fill="#FFFFFF" d="M65.1,10.6l-0.6-6.8h2.4l0.7,6.8H65.1z M90.3,13.9V29h-6.5l-1.4-2.8H85V15.7h-1.2l-2,13.2h-5.5l2-13.2h-1.5
		v-1.9h-0.5v0.5h-3.5V29h-4.9V14.4h-3.5v-2.8h3.5v-9h4.9v9h3.2l1.9-9h5.3L81.1,13h4.7L83.6,2.6H89l2.4,11.3H90.3z M67,26.6h-2.4
		l0.5-11h2.5L67,26.6z M75.7,10.6h-2.4l0.5-6.8h2.4L75.7,10.6z M73.9,26.6l-0.6-11h2.3l0.6,11H73.9z"/>
	<path fill="#FFFFFF" d="M101.1,8.6h4.8v2.7l-2.7,3h2.8v5.3H94.9v-3l4.6-5.2h-4.6V8.6l5.2-6.1h6.3L101.1,8.6z M94.9,28.9v-8.3h3.1
		v8.3H94.9z M98.9,28.9v-8.3h3.1v8.3H98.9z M102.7,15l-1.6,1.8h1.6V15z M102.9,28.9v-8.3h3.1v8.3H102.9z M117.1,19l-0.5-1.5
		l-0.5,1.3v10.1h-5l-1.1-2l-0.2,1.4h-3.4l0.8-8.1h3.4l-0.6,6h1.1V19h-4.5v-2.4l3.8-4.5h-3.8V8.8l5.1-6.2h5.5l-5.4,6.6h1.1l2-2.3h5.9
		l-7.7,9.2h3l-0.7-2.4h4.3l1.5,5.3H117.1z M117.4,28.2l-0.9-8h3.7l1,8.1L117.4,28.2z"/>
	<path fill="#FFFFFF" d="M125,29V2.9h25.6V29H125z M145.6,5.5h-5.4v0.9h4.8v2.2h-4.8v0.8h4.6V16h-0.6l1.2,3.5H144v0.5h1v2h-1v3.9
		h-5.9l-0.4-0.5h-4.2l-2.1-2.9h5.2l0.8,1.2h1.6V22h-8.5v-2h8.5v-0.8h3.1l-0.2-0.5L130.6,19v-2l4.6-0.1V16h-4.4V9.4h4.4V8.6h-4.6V6.4
		h4.6V5.5H130v20.8h15.6V5.5z M135.3,11.2h-1.4V12h1.4V11.2z M135.3,13.3h-1.4v0.9h1.4V13.3z M141.6,11.2h-1.4V12h1.4V11.2z
		 M141.6,13.3h-1.4v0.9h1.4V13.3z M141,16h-0.8v0.7l1-0.1L141,16z"/>
	<path fill="#FFFFFF" d="M160.6,8.8h2.5l-2.6,6.8h1.1V29h-5.6V16.7h-1.7l2.8-7h-2.7l2.9-7.1h5.8L160.6,8.8z M178.9,21.7V29h-6.2
		l-1.3-2.9h2v-4.4h-11.3v-3h11.3v-1.2h-10.7v-2.8h17.7v2.8h-1.4v1.2h2.2v3H178.9z M165.8,28.1l-2.5-5.7h5.8l2.5,5.7H165.8z
		 M163.4,13.6V2.8h16.7v10.8H163.4z M174.7,5.8h-5.9v1.1h5.9V5.8z M174.7,9.6h-5.9v1.2h5.9V9.6z"/>
	<path fill="#FFFFFF" d="M203.3,29l-5.4-3.8l-5.5,3.8H184l8.2-5.7h-7.4v-2.6H195v-2.1h5.5v2.1h2.5l-0.5-1.4h5.5l0.4,1.4h2.5v2.6
		h-10.3l-1,0.8h5.1l7.2,4.9H203.3z M210,14.2v4.5h-6.7l-0.3-0.6h-4.7l-2.2-3.2h5.6l0.9,1.4h2.2v-2h-9.4v-2.5h9.4v-1.7l-1.2,0.9h-7.7
		l-1.1-2v9.7h-5v-4.9h-0.9v3.3l-0.8,1.6h-4l1.1-2v-2.9h-0.7V11h5.4V9.1h-4.8V3.3h3.9v3.2h1V2.6h5v3.6l3.3-3.6h6l-0.7,0.8h7.1v2.6
		l-5.1,3.8h4.6v2.1h1.1v2.5H210z M199.1,6.8h-4.3v1.8h1.4l-0.6-1.2h3.2l0.7,1.2h0.7L199.1,6.8z M201.2,5.8l-0.5,0.5h1.3l0.3,0.5
		l1.4-1.1H201.2z"/>
	<path fill="#FFFFFF" d="M214.4,7.9V5h2.9l-0.6-2.4h5.5l0.5,2.4h2.6v2.9H214.4z M215,12.2V9.3h9.6v2.9H215z M215,16.5v-2.9h9.6v2.9
		H215z M215,29.1V17.9h9.6v11.2H215z M220.5,20.8h-1.3v5.4h1.3V20.8z M240.3,29.1h-5.9V18.2h-2v10.9h-5.2V18.2h-2v-3h2V6.7h5.2v8.4
		h2V5.8H226V2.9h13.6v23.2h2L240.3,29.1z"/>
	<path fill="#FFFFFF" d="M249.6,29h-5.2l1.6-8.3h5.2L249.6,29z M245.8,19.6V4.3h5.9l0.7-1.8h6.3L258,4.3h11.6v15.2H245.8z M264,7.1
		h-12.4v1.5H264V7.1z M264,11.2h-12.4v1.6H264V11.2z M264,15.2h-12.4v1.6H264V15.2z M264.1,29h-12.4v-8.3h5.4v5.5h8.2L264.1,29z
		 M259,25.1l-1-4.5h5.1l1.1,4.5H259z M266.1,29l-1.6-8.3h5.3l1.6,8.3H266.1z"/>
	<path fill="#FFFFFF" d="M288.4,5.8l-1.7,3.8h4.8v19.3h-5.9V12.2l-5.4,11.9H274l8.2-18.3h-7.6v-3h26.1v3H288.4z M295.7,24.2
		l-4.1-15.9h5.8l4.1,15.9H295.7z"/>
	<path fill="#FFFFFF" d="M305.2,9.1l-1-6.5h4.8l1,6.5H305.2z M305.5,16.7l-1.1-6.7h4.8l1.1,6.7H305.5z M309.1,29h-4.6l1-11.3h4.7
		L309.1,29z M325.8,14v1.6h4.8V29h-4.1l-1-2.6h1.3v-0.7h-1.2l-0.5-1.8v4.8h-3.2v-3h-1.2l-0.6-2.2V29h-3.8V15.5h4.9V14h-5.8v11.4
		l-1.2,3.7h-4.9l1.4-4.4V2.8h19.9V10h-15.1v1.3h15.7V14H325.8z M325.5,5.5h-10.1v1.9h10.1V5.5z M321.9,18.2h-1.8v0.8h1.1l0.7,2.3
		V18.2z M321.9,22h-1.2l-0.6-2v2.7h1.2l0.6,2.2V22z M326.8,18.2h-1.7v0.8h1.1l0.6,2.5V18.2z M326.8,22h-1.2l-0.5-1.7v2.4h1.1
		l0.7,2.4V22z"/>
	<path fill="#FFFFFF" d="M341.7,16.5V29h-6.4l-1.1-2.8h2.3v-6.4l-2,1.3v-3.4l2-1.3V9.3h-2.1V6.5h2.1V2.6h5.2v3.9h1.4v2.8h-1.4v3.8
		l1.4-0.8v3.3L341.7,16.5z M353.6,29l-1.5-1l-1.7,1h-8.3l5.9-3.5l-3.1-2v-3.4h-1.5v-2.8h1.5v-1.9h5.2v1.9h4.1v-1.9h5.2v1.9h1.7v2.8
		h-1.7v3.6l-3.1,1.9l5.4,3.4H353.6z M343.5,14.6v-2.8h2.2l-1.2-3.6h5.3l1.3,3.6h2.2l1.2-3.6h5.2l-1.1,3.6h2.4v2.8H343.5z M343.7,7.3
		V4.6h5.5l-0.6-2h5.9l0.6,2h5.2v2.7H343.7z M354.2,20.1h-4.1v1.6l2,1.3l2-1.2V20.1z"/>
</g>
<polygon fill="#FFFFFF" points="385,11.9 380.5,7.2 380.5,14.1 366.8,14.1 366.8,19.1 380.5,19.1 380.5,25.9 385,21.2 389.5,16.6 
	"/>
</svg>
