<?xml version="1.0" encoding="utf-8"?>
<!-- Generator: Adobe Illustrator 17.1.0, SVG Export Plug-In . SVG Version: 6.00 Build 0)  -->
<svg version="1.2" baseProfile="tiny" id="圖層_1"
	 xmlns="http://www.w3.org/2000/svg" xmlns:xlink="http://www.w3.org/1999/xlink" x="0px" y="0px" viewBox="0 0 310 74.7"
	 xml:space="preserve">
<path fill="#2D2D2D" d="M132.6,56.2l-0.7,0.8c-0.6-0.6-1.2-1.4-1.6-2.2c-0.6-1.2-0.9-2.4-0.9-3.7c0-1.3,0.3-2.6,0.9-3.7
	c0.4-0.8,1-1.6,1.6-2.2l0.7,0.8c-0.6,0.6-1,1.2-1.4,1.9c-0.5,1-0.8,2.1-0.8,3.2c0,1.1,0.3,2.2,0.8,3.2C131.6,55,132,55.6,132.6,56.2
	z"/>
<path fill="#2D2D2D" d="M137.2,45.7h9.3v4.6h-3.8v1.2h4.2v1h-4.2v0.9h3.8v1h-3.8v1.1h4.7v1h-11v-1h5.1v-1.1h-3.6v-1h3.6v-0.9h-3.1
	c-0.3,0.4-0.8,0.8-1.4,1.4l-1-0.8c0.6-0.4,1.1-0.9,1.5-1.3c0.3-0.4,0.6-0.9,0.8-1.4h-1.1V45.7z M138.4,47.5h6.8v-0.9h-6.8V47.5z
	 M145.2,49.3v-0.9h-6.8v0.9H145.2z M141.4,51.4v-1.2h-2.7l0.7,0.3c-0.2,0.3-0.3,0.6-0.4,0.9H141.4z"/>
<path fill="#2D2D2D" d="M154.7,45.4c0.3,0.4,0.5,0.8,0.8,1.2h4.4v1.1h-9.4V51c0,0.9-0.1,1.8-0.2,2.7c-0.2,1-0.4,2-0.8,2.9l-1-0.9
	c0.3-0.8,0.6-1.6,0.7-2.4c0.1-0.9,0.2-1.6,0.2-2.4v-4.4h4.8c-0.2-0.4-0.5-0.7-0.8-1L154.7,45.4z M151,53.1h3.5v-5.2h1.1v5.2h3.7v1
	h-3.7v1.4h4.2v1.1h-9.4v-1.1h4.2v-1.4H151V53.1z M152.1,48.3l1.1,0.1c-0.1,0.4-0.2,0.8-0.3,1.2c0.5,0.5,1,1.1,1.4,1.7l-0.7,1
	c-0.4-0.6-0.7-1.2-1.1-1.6c-0.2,0.6-0.6,1.2-1.2,1.9l-0.8-1c0.4-0.5,0.8-1,1-1.5C151.8,49.7,152,49,152.1,48.3z M157.3,48.2l1.1,0.1
	c-0.1,0.6-0.2,1.1-0.3,1.5c0.6,0.5,1.2,1.1,1.8,1.7l-0.6,1c-0.6-0.8-1.1-1.4-1.5-1.8c-0.2,0.7-0.6,1.3-1.2,2l-0.7-0.9
	c0.4-0.5,0.8-1.1,1-1.6C157,49.7,157.2,49,157.3,48.2z"/>
<path fill="#2D2D2D" d="M166.6,51.1c0,1.3-0.3,2.6-0.9,3.7c-0.4,0.8-1,1.6-1.6,2.2l-0.7-0.8c0.6-0.6,1-1.2,1.4-1.9
	c0.5-1,0.8-2.1,0.8-3.2c0-1.1-0.3-2.2-0.8-3.2c-0.4-0.7-0.8-1.3-1.4-1.9l0.7-0.8c0.6,0.6,1.2,1.4,1.6,2.2
	C166.3,48.5,166.6,49.8,166.6,51.1z"/>
<path fill="#2D2D2D" d="M172.9,46.4l-0.4,6.4h-0.8l-0.4-6.4H172.9z M172.9,55.6h-1.5V54h1.5V55.6z"/>
<path fill="#2D2D2D" d="M10.6,55.2H4.4c0.2-0.9,0.6-1.7,1.1-2.4c0.4-0.6,1.1-1.2,1.9-1.9c0.7-0.6,1.1-1,1.4-1.4
	c0.3-0.4,0.4-0.8,0.4-1.2c0-0.7-0.6-1.1-1.8-1.1c-1.1,0-1.7,0.7-1.8,2l-1.2-0.4c0.1-0.9,0.4-1.6,0.9-2.1C5.8,46.3,6.5,46,7.4,46
	c0.9,0,1.7,0.2,2.3,0.6c0.6,0.4,0.8,1,0.8,1.7c0,0.6-0.2,1.2-0.6,1.8C9.6,50.5,9,51,8.3,51.7c-0.7,0.6-1.1,0.9-1.3,1.1
	c-0.4,0.4-0.7,0.8-0.9,1.3h4.5V55.2z"/>
<path fill="#2D2D2D" d="M14.5,55.3h-1.6v-1.6h1.6V55.3z"/>
<path fill="#2D2D2D" d="M18.6,45c0.6,0.6,1,1.1,1.4,1.6l-0.7,0.4h2.2v1.1h-2.8v1.6h2.5c-0.1,3.3-0.2,5.1-0.3,5.3
	c-0.1,0.4-0.2,0.7-0.4,0.9c-0.2,0.2-0.5,0.3-0.9,0.4c-0.4,0-0.7,0-0.9,0l-0.2-1.1c0.5,0.1,0.9,0.1,1,0.1c0.2,0,0.4-0.1,0.4-0.4
	c0.1-0.2,0.2-1.6,0.3-4.1h-1.4c0,1-0.1,1.8-0.3,2.6c-0.2,1-0.6,2-1.2,3.1l-0.9-0.8c0.5-0.8,0.9-1.7,1.1-2.6c0.2-0.8,0.3-1.9,0.3-3.5
	v-1.4h-1.2v-1.1h2.3c-0.3-0.4-0.6-0.9-1-1.5L18.6,45z M24.3,45.5h0.5c0.4,0.9,0.9,1.6,1.4,2.2c0.3,0.4,0.9,0.9,1.7,1.5l-0.7,1
	c-0.4-0.2-0.8-0.5-1.1-0.9c-0.6-0.5-1.2-1.3-1.8-2.3c-0.4,0.7-0.8,1.3-1.1,1.7c-0.4,0.5-0.9,1-1.6,1.5l-0.5-1.1
	c0.7-0.6,1.3-1.1,1.7-1.7c0.3-0.5,0.7-1.1,1-1.9H24.3z M22.8,53c1.6,0.9,3,1.7,4.1,2.6L26,56.6c-0.9-0.8-2.3-1.7-4-2.7L22.8,53z
	 M23.5,49.6c1.2,0.7,2.1,1.4,3,2.1l-0.9,0.9c-0.7-0.7-1.6-1.4-2.9-2.2L23.5,49.6z"/>
<path fill="#2D2D2D" d="M28.9,45.8h11.1v1.1h-5.6v2c1.4,0.8,2.9,1.7,4.4,2.8l-0.8,1.2c-1.5-1.1-2.7-2-3.6-2.6v6.2h-1.3v-9.5h-4.3
	V45.8z"/>
<path fill="#2D2D2D" d="M46.1,45.1c0.8,0.5,1.4,1,1.9,1.5L47.6,47h4.9v1.2h-6.9v1c0,0.3,0,0.5,0,0.8h5.5c0,3.4-0.3,5.4-0.9,5.9
	c-0.3,0.4-1.3,0.6-3,0.6L47,55.2c0.4,0.1,0.7,0.1,1,0.1c0.6,0,1-0.1,1.4-0.4c0.3-0.3,0.5-1.6,0.5-3.8h-4.3c-0.1,0.9-0.3,1.6-0.5,2.2
	c-0.4,1.1-1.2,2.2-2.4,3.3l-1-0.9c1.1-0.9,1.8-1.8,2.3-2.8c0.4-0.8,0.6-2.1,0.6-3.8v-1h-3.1V47h5.4c-0.4-0.4-0.9-0.7-1.4-1.1
	L46.1,45.1z"/>
<path fill="#2D2D2D" d="M58,48.6c-0.2-0.5-0.3-0.9-0.5-1.3l1-0.3c0.3,0.7,0.6,1.5,0.8,2.4c0.4-0.3,0.7-0.6,1-1
	c0.3-0.4,0.5-1,0.7-1.7h-1.5v-1h5.2c0,2.3-0.1,3.6-0.2,4c-0.1,0.3-0.2,0.5-0.5,0.6c-0.3,0.1-0.7,0.2-1.5,0.2c-0.2,0-0.5,0-0.9,0
	l-0.2-1.1c0.3,0.1,0.7,0.1,1.1,0.1c0.5,0,0.7-0.1,0.8-0.3c0.1-0.3,0.1-1.1,0.2-2.5h-1.5c-0.2,0.9-0.4,1.7-0.8,2.3
	c-0.4,0.7-1,1.3-1.8,1.8l-0.6-0.7l-0.5,0.2c-0.1-0.2-0.1-0.4-0.2-0.6c-1.3,0.4-2.8,0.8-4.3,1l-0.1-1.2c0.3,0,0.7-0.1,1-0.1l-0.6-3.2
	c1.3-0.1,2.7-0.5,4.2-1l0.4,1.1c-0.7,0.3-1.9,0.6-3.4,0.8l0.4,2.1C56.5,49,57.2,48.8,58,48.6z M64,50.9v5.6h-1.1V56H56v0.5h-1.1
	v-5.6H64z M56,53h2.8v-1.1H56V53z M56,55h2.8v-1.1H56V55z M59.9,51.9V53h3v-1.1H59.9z M59.9,55h3v-1.1h-3V55z"/>
<path fill="#2D2D2D" d="M71.9,45.1c0.2,0.4,0.4,0.9,0.6,1.4h4.8v1H66.1v-1h5.1c-0.2-0.4-0.4-0.8-0.6-1.2L71.9,45.1z M67,48.5h9.4v1
	H67V48.5z M67,50.4h9.4v1H67V50.4z M76.5,52.4v4h-1.2v-0.5h-7.1v0.6H67v-4.1H76.5z M68.2,54.9h7.1v-1.6h-7.1V54.9z"/>
<path fill="#2D2D2D" d="M84.9,48.4h-1.6v-1.6h1.6V48.4z M84.9,53.2h-1.6v-1.6h1.6V53.2z"/>
<path fill="#2D2D2D" d="M100.4,45.7h-3v5.2h-0.9v-6.1h3.9V45.7z"/>
<path fill="#2D2D2D" d="M108.7,45.3l0.4,1.1c-0.6,0.2-1.2,0.4-1.9,0.6v1.8h2.6v-3.5h1.2v3.5h3.4v1.1H111c0,1.2,0.1,2.3,0.4,3.1
	c0.5-0.7,1-1.7,1.4-2.9l1.1,0.4c-0.6,1.5-1.2,2.6-1.8,3.3c-0.1,0.1-0.2,0.2-0.3,0.3c0.1,0.2,0.2,0.3,0.3,0.5
	c0.3,0.5,0.6,0.7,0.8,0.7c0.2,0,0.4-0.7,0.6-2.2l1,0.8c-0.3,1.3-0.6,2.1-0.9,2.4c-0.2,0.2-0.5,0.3-0.7,0.3c-0.5,0-1-0.3-1.6-1
	c-0.2-0.2-0.3-0.4-0.5-0.7c-0.7,0.6-1.6,1.1-2.5,1.5l-0.7-1c1.1-0.4,2.1-0.9,2.8-1.6c-0.1-0.3-0.2-0.5-0.2-0.8c-0.2-1-0.4-2-0.4-3.3
	h-2.6v1.7c0.7-0.2,1.4-0.4,2.2-0.7V52c-0.7,0.2-1.4,0.5-2.2,0.7v2.6c0,0.4-0.1,0.7-0.3,0.9c-0.2,0.2-0.5,0.3-1,0.3h-1.4l-0.2-1.2
	c0.5,0.1,0.9,0.1,1.3,0.1c0.3,0,0.5-0.1,0.5-0.3v-2.1c-0.8,0.2-1.7,0.4-2.6,0.5l-0.1-1.3c0.9-0.1,1.8-0.2,2.8-0.4v-2h-2.6v-1.1h2.6
	v-1.5c-0.7,0.1-1.5,0.2-2.3,0.3l-0.2-1.1C105.5,46.2,107.2,45.9,108.7,45.3z M112.2,45.7c0.8,0.8,1.4,1.4,1.9,1.9l-1.1,0.7
	c-0.4-0.6-1-1.3-1.7-2.1L112.2,45.7z"/>
<path fill="#2D2D2D" d="M115.6,50.6h11.3v1.1h-4.8v1.2h4.2v1h-4.2v1.3c0.6,0,1.3,0.1,2.1,0.1c1.1,0,2.1,0,2.9-0.1l-0.3,1.2
	c-3.8,0-6-0.1-6.8-0.4c-0.7-0.2-1.4-0.7-1.9-1.5c-0.3,0.7-0.9,1.4-1.7,2.1l-0.9-1.1c0.7-0.6,1.2-1.1,1.5-1.6c0.3-0.5,0.6-1.2,0.8-2
	l1.2,0.2c-0.1,0.5-0.3,1-0.4,1.4c0.5,0.7,1.1,1.2,1.8,1.4c0.1,0,0.3,0.1,0.5,0.1v-3.3h-5.3V50.6z M116.9,45.4h8.9v4.5h-8.9V45.4z
	 M118.1,47.2h6.4v-0.8h-6.4V47.2z M124.6,48.9v-0.8h-6.4v0.8H124.6z"/>
<path fill="#2D2D2D" d="M182.8,45.3l0.4,1.1c-0.6,0.2-1.2,0.4-1.9,0.6v1.8h2.6v-3.5h1.2v3.5h3.4v1.1H185c0,1.2,0.1,2.3,0.4,3.1
	c0.5-0.7,1-1.7,1.4-2.9l1.1,0.4c-0.6,1.5-1.2,2.6-1.8,3.3c-0.1,0.1-0.2,0.2-0.3,0.3c0.1,0.2,0.2,0.3,0.3,0.5
	c0.3,0.5,0.6,0.7,0.8,0.7c0.2,0,0.4-0.7,0.6-2.2l1,0.8c-0.3,1.3-0.6,2.1-0.9,2.4c-0.2,0.2-0.5,0.3-0.7,0.3c-0.5,0-1-0.3-1.6-1
	c-0.2-0.2-0.3-0.4-0.5-0.7c-0.7,0.6-1.6,1.1-2.5,1.5l-0.7-1c1.1-0.4,2.1-0.9,2.8-1.6c-0.1-0.3-0.2-0.5-0.2-0.8c-0.2-1-0.4-2-0.4-3.3
	h-2.6v1.7c0.7-0.2,1.4-0.4,2.2-0.7V52c-0.7,0.2-1.4,0.5-2.2,0.7v2.6c0,0.4-0.1,0.7-0.3,0.9c-0.2,0.2-0.5,0.3-1,0.3h-1.4l-0.2-1.2
	c0.5,0.1,0.9,0.1,1.3,0.1c0.3,0,0.5-0.1,0.5-0.3v-2.1c-0.8,0.2-1.7,0.4-2.6,0.5l-0.1-1.3c0.9-0.1,1.8-0.2,2.8-0.4v-2h-2.6v-1.1h2.6
	v-1.5c-0.7,0.1-1.5,0.2-2.3,0.3l-0.2-1.1C179.5,46.2,181.2,45.9,182.8,45.3z M186.2,45.7c0.8,0.8,1.4,1.4,1.9,1.9l-1.1,0.7
	c-0.4-0.6-1-1.3-1.7-2.1L186.2,45.7z"/>
<path fill="#2D2D2D" d="M190.4,45.6h11.2v1h-3.7v1h3.1v3.2h-5c-0.2,0.3-0.4,0.6-0.6,0.8h6.2v1h-2.4c-0.4,0.7-0.8,1.3-1.3,1.7
	c1.2,0.4,2.4,0.8,3.6,1.3l-0.9,0.9c-1.1-0.5-2.3-1-3.7-1.4c-1.1,0.6-3.2,1.1-6.1,1.5l-0.4-1.1c2.3-0.1,4-0.4,5.1-0.8
	c-1.1-0.3-2.2-0.5-3.6-0.7c0.5-0.5,0.9-0.9,1.3-1.4h-3v-1h3.8c0.2-0.3,0.4-0.6,0.6-0.8h-3.7v-3.2h3v-1h-3.5V45.6z M193.9,49.8v-1.3
	h-1.8v1.3H193.9z M196.8,54c0.5-0.4,0.9-0.8,1.3-1.4h-3.5c-0.2,0.3-0.5,0.5-0.7,0.8C195.1,53.6,196,53.8,196.8,54z M196.7,47.6v-1
	H195v1H196.7z M196.7,49.8v-1.3H195v1.3H196.7z M199.8,49.8v-1.3h-1.9v1.3H199.8z"/>
<path fill="#2D2D2D" d="M212.5,51.5l0.4,0.7c-1.1,0.1-2.4,0.3-3.9,0.3v0.6h4.2v0.8H209v0.4h5v0.8h-5v0.4c0,0.3-0.1,0.6-0.3,0.7
	c-0.2,0.1-0.5,0.2-1,0.2h-1.6l-0.2-0.9c0.6,0.1,1.1,0.1,1.5,0.1c0.3,0,0.4-0.1,0.4-0.2v-0.3h-5.2v-0.8h5.2v-0.4h-4.5v-0.8h4.5v-0.5
	c-1.2,0-2.6,0.1-4,0.1l-0.2-0.7C207.1,51.9,210.1,51.7,212.5,51.5z M203,45.6h2.2v-0.5h1v0.5h2.3v0.6h-2.3v0.4h2.1v2.4h-2.1v0.4h2.3
	v0.6h-2.3v0.7h1.1v-0.5h0.9v1.1h-4.9v-1.1h0.9v0.5h1v-0.7h-2.3v-0.6h2.3v-0.4h-2v-2.4h2v-0.4H203V45.6z M204.1,47.6h1.1v-0.4h-1.1
	V47.6z M205.2,48.6v-0.5h-1.1v0.5H205.2z M206.2,47.2v0.4h1.2v-0.4H206.2z M207.4,48.6v-0.5h-1.2v0.5H207.4z M212.6,45.5v1.1
	c0,0.2,0.1,0.3,0.3,0.3h0.9v0.9h-1.1c-0.4,0-0.7-0.1-0.8-0.2c-0.2-0.1-0.3-0.4-0.3-0.8v-0.6h-1.3c0,0.4-0.1,0.7-0.2,0.9
	c-0.1,0.3-0.5,0.6-1,0.9l-0.7-0.6c0.4-0.3,0.7-0.5,0.8-0.7c0.1-0.2,0.1-0.6,0.1-1.2H212.6z M208.9,48.1h4.5v0.6
	c-0.4,0.6-0.8,1.1-1.2,1.4c0,0-0.1,0.1-0.1,0.1c0.5,0.2,1.2,0.4,2,0.5l-0.5,0.8c-1-0.2-1.8-0.5-2.3-0.8c-0.6,0.2-1.3,0.5-2.2,0.7
	l-0.4-0.9c0.7-0.1,1.2-0.3,1.6-0.4c-0.4-0.3-0.8-0.7-1.1-1.1l0.5-0.2h-0.7V48.1z M209.9,48.9c0.3,0.4,0.7,0.7,1.2,1
	c0.1,0,0.1-0.1,0.2-0.1c0.3-0.2,0.6-0.5,1-0.9H209.9z"/>
<path fill="#2D2D2D" d="M225.4,45.7v4.9h-2.9c0.2,0.5,0.4,0.9,0.8,1.3c0.6-0.3,1.1-0.7,1.6-1.2l0.8,0.8c-0.5,0.5-1,0.8-1.6,1.1
	c0.6,0.5,1.4,0.9,2.2,1.2l-0.6,1.1c-1.3-0.6-2.3-1.3-3-2c-0.6-0.6-1-1.4-1.3-2.2h-1.2v2.7c0.6-0.1,1.2-0.3,1.8-0.5v1.1
	c-1,0.3-2.1,0.6-3.3,0.8c0,0,0,0,0,0c0.3,0.2,0.7,0.3,1.2,0.4c0.6,0.1,1.8,0.2,3.5,0.2c1.3,0,2.3,0,2.9-0.1l-0.1,1.2
	c-3.4,0-5.5,0-6.2-0.1c-0.7-0.1-1.2-0.3-1.6-0.5c-0.3-0.2-0.7-0.6-1.2-1.1c-0.3,0.6-0.8,1.2-1.4,1.9l-0.8-0.9
	c0.6-0.6,1.1-1.2,1.4-1.7c0.2-0.3,0.5-0.9,0.7-1.8h-1.7v-0.9c0.5-0.5,1-1.2,1.6-2h-1.8v-1h3.2V49c-0.4,0.7-0.9,1.4-1.5,2.1h1.5v0.7
	c-0.2,0.7-0.3,1.3-0.5,1.7c0.3,0.4,0.6,0.7,0.8,0.9l-0.1-0.9c0.2,0,0.5,0,0.7-0.1v-7.8H225.4z M216.6,45.3c0.5,0.5,1,1.1,1.4,1.6
	l-0.8,0.8c-0.3-0.5-0.8-1.1-1.4-1.7L216.6,45.3z M220.2,47.6h4.1v-0.9h-4.1V47.6z M220.2,49.5h4.1v-1h-4.1V49.5z"/>
<path fill="#2D2D2D" d="M227.4,49.4h2v-4.1h1.1v4.1h1.8v1h-1.8v0.3c0.6,0.6,1.2,1.3,1.9,2.1l-0.6,1c-0.5-0.8-0.9-1.4-1.3-1.8v4.5
	h-1.1v-4.4c0,0.1,0,0.1-0.1,0.1c-0.4,0.9-0.9,1.7-1.5,2.4l-0.4-1.2c0.8-0.9,1.4-1.9,1.9-3h-1.9V49.4z M228.5,46.2
	c0.2,0.7,0.4,1.5,0.6,2.5l-1,0.2c-0.1-0.8-0.3-1.6-0.5-2.4L228.5,46.2z M231.4,46.1l1,0.2c-0.2,0.9-0.4,1.8-0.7,2.5l-1-0.3
	C231,47.9,231.2,47.1,231.4,46.1z M232.7,50h5.4c-0.1,2.7-0.2,4.3-0.3,4.9c-0.1,0.5-0.3,0.8-0.6,1.1c-0.2,0.2-0.9,0.3-2.1,0.3
	l-0.2-1.1c0.4,0,0.7,0,0.8,0c0.5,0,0.8-0.1,0.9-0.3c0.2-0.4,0.3-1.7,0.3-3.9h-1.8c-0.1,1.3-0.3,2.3-0.7,3.1
	c-0.4,0.8-1.1,1.6-2.1,2.2l-0.7-1.1c0.8-0.5,1.4-1,1.7-1.7c0.3-0.6,0.5-1.5,0.6-2.6h-1.3V50z M233.8,45.6l1,0.4
	c-0.3,1-0.6,1.7-0.8,2.1c-0.2,0.5-0.6,1-1.1,1.7L232,49c0.5-0.5,0.8-1,1.1-1.6C233.3,46.9,233.6,46.3,233.8,45.6z M235.1,45.4h2
	c0.3,1.2,0.9,2.4,1.8,3.4l-0.7,1c-0.5-0.5-0.8-1-1.1-1.6c-0.3-0.6-0.6-1.2-0.8-1.8h-1.2V45.4z"/>
<path fill="#2D2D2D" d="M240,46.2h2.9v-1.1h1.1v1.1h3v1.1h-3v0.9h2.5v2.8c0,0.4-0.1,0.7-0.3,0.9c-0.2,0.2-0.4,0.3-0.7,0.3h-0.6
	l-0.2-1.1l0.4,0c0.2,0,0.3-0.2,0.3-0.4v-1.5h-1.4v2.5c0.9,0.6,1.8,1.4,2.6,2.2l-0.6,1c-0.6-0.8-1.3-1.4-1.9-2v3.6h-1.1v-3.8
	c-0.6,1.1-1.4,2-2.2,2.8l-0.7-1.1c1.3-1,2.2-2.3,2.9-3.7v-1.6h-1.4v3h-1.1v-3.9h2.5v-0.9H240V46.2z M247.5,46h1.1v7.8h-1.1V46z
	 M249.7,45.1h1.2v9.9c0,0.5-0.1,0.8-0.3,1c-0.2,0.2-0.5,0.3-1,0.3h-1.7l-0.2-1.3c0.7,0.1,1.2,0.1,1.6,0.1c0.3,0,0.5-0.1,0.5-0.3
	V45.1z"/>
<path fill="#2D2D2D" d="M252.5,48.3h4.3c0.1-0.7,0.1-1.4,0.1-2.2v-0.8h1.3v0.8c0,0.8,0,1.5-0.1,2.2h5.1v1.2h-3.7
	c0.3,1.3,0.7,2.3,1.2,3.1c0.7,1,1.6,1.9,2.8,2.6l-0.7,1.2c-1.4-0.9-2.4-2-3.1-3.1c-0.6-1-1.1-2.3-1.4-3.7h-0.3
	c-0.2,0.8-0.4,1.6-0.7,2.3c-0.7,1.5-1.9,3-3.9,4.6l-1.1-0.9c1.8-1.2,3-2.6,3.7-4c0.3-0.5,0.5-1.1,0.7-1.9h-4.2V48.3z"/>
<path fill="#2D2D2D" d="M275.7,45.6v2.3h-0.6v0.5h-4.2v0.7h3.9v4.4h-3.9v0.7h5v1h-5v1.4h-1.2v-1.4h-4.9v-1h4.9v-0.7h-3.8v-4.4h3.8
	v-0.7h-4.1v-0.5H265v-2.3H275.7z M266.1,47.4h3.6v-0.5h1.2v0.5h3.7v-0.8h-8.5V47.4z M267,50.8h2.7V50H267V50.8z M269.7,52.5v-0.9
	H267v0.9H269.7z M270.9,50v0.8h2.8V50H270.9z M273.7,52.5v-0.9h-2.8v0.9H273.7z"/>
<path fill="#2D2D2D" d="M283.5,46.2l-0.4,6.4h-0.8l-0.4-6.4H283.5z M283.5,55.3H282v-1.5h1.5V55.3z"/>
<path fill="#2D2D2D" d="M295.1,57h-3.9V56h3v-5.2h0.9V57z"/>
<g>
	<g>
		<g>
			<path fill="#FFFFFF" d="M22.6,31.7v-1.3h6.2l1.7-6.1H33l-1.7,6.1h2.6v1.3H22.6z M22.9,23.5v-1.3H27l-0.3-1.8h2.7l0.3,1.8h3.8v1.3
				H22.9z M25.2,29.7l-1.9-5.4h2.5l1.9,5.4H25.2z"/>
		</g>
		<g>
			<path fill="#FFFFFF" d="M39.2,31.6L39,30.7l-0.5,0.9h-2.9V20.5h5.3V27h-3v3.4h1l-0.6-2.6h2.2l0.9,3.8H39.2z M38.9,21.8h-1.1v1.4
				h1.1V21.8z M38.9,24.4h-1.1v1.4h1.1V24.4z M44.3,30.7l-0.5-1v2h-2.2V20.5h5v10.2H44.3z M44.5,21.8h-0.8v7.8h0.8V21.8z"/>
		</g>
		<g>
			<path fill="#FFFFFF" d="M58.5,25.3v6.3h-3.9L54,30.4h2v-4.2h-2.4L51,31.7h-2.7l2.6-5.5h-1.5v-0.9H48l2.3-4.9H53l-2.1,4.5h5.8
				l-2.2-4.5h2.7l2.5,4.9H58.5z"/>
		</g>
		<g>
			<path fill="#FFFFFF" d="M68,29.5v2.2h-4l-0.6-1.2h2.2v-1h-4.6v-1.2h4.6v-0.5l1.8-0.5h-5.6v-1.1h9.8v1.1l-3.5,1h4.5v1.2H68z
				 M61,22.3v-1.2h4.4l-0.3-0.7h2.6l0.3,0.7h4.3v1.2H61z M61.6,25.8v-3h10.2v3H61.6z M69.3,23.9H64v0.8h5.4V23.9z"/>
		</g>
		<g>
			<path fill="#FFFFFF" d="M73.6,35.8H20.7c-2,0-3.6-1.6-3.6-3.6V20.8c0-2,1.6-3.6,3.6-3.6h52.9c2,0,3.6,1.6,3.6,3.6v11.3
				C77.2,34.2,75.5,35.8,73.6,35.8z M20.7,18.3c-1.4,0-2.5,1.1-2.5,2.5v11.3c0,1.4,1.1,2.5,2.5,2.5h52.9c1.4,0,2.5-1.1,2.5-2.5V20.8
				c0-1.4-1.1-2.5-2.5-2.5H20.7z"/>
		</g>
	</g>
	<path fill="#2D2D2D" d="M8.4,30.9H7.1v-7H5.4V23c1,0,1.7-0.4,2-1.2h1V30.9z"/>
	<path fill="#2D2D2D" d="M14.6,31H13v-1.6h1.6V31z"/>
	<path fill="#2D2D2D" d="M82.7,20.8h1.2v3.6h1.8v1.1h-1.8v4.4c0.6-0.2,1.2-0.4,1.8-0.6v1.2c-1.8,0.6-3.8,1.1-6,1.5l-0.1-1.3
		c0.3,0,0.6-0.1,0.9-0.1v-8.2h1.2v8c0.4-0.1,0.8-0.2,1.2-0.2V20.8z M90.2,22.6l0.7,1c-1,1-2.2,1.9-3.5,2.6v4c0,0.2,0.1,0.4,0.2,0.5
		c0.1,0.1,0.3,0.1,0.4,0.1h0.7c0.2,0,0.3-0.1,0.4-0.2c0.1-0.1,0.3-0.9,0.4-2.5l1.2,0.4c-0.2,1.7-0.4,2.6-0.6,2.9
		C90,31.8,89.6,32,89.1,32h-1.4c-0.5,0-0.8-0.1-1.1-0.3c-0.3-0.3-0.5-0.7-0.5-1.2v-9.7h1.3V25C88.5,24.3,89.4,23.5,90.2,22.6z"/>
	<path fill="#2D2D2D" d="M95.7,30l0.7,0.9c-0.6,0.3-1.2,0.6-1.7,0.7c-0.6,0.2-1.3,0.4-2.2,0.5l-0.6-1.1c0.9-0.1,1.6-0.3,2.3-0.4
		C94.7,30.5,95.2,30.3,95.7,30z M92.1,21.4h11.2v1h-5c-0.1,0.3-0.2,0.6-0.3,0.9h4.1v6.6h-8.9v-6.6h3.4c0.1-0.3,0.3-0.6,0.3-0.9h-4.8
		V21.4z M94.4,25.2h6.4v-0.9h-6.4V25.2z M94.4,27h6.4v-1h-6.4V27z M100.8,28.9v-1h-6.4v1H100.8z M99.4,30c1.4,0.3,2.8,0.7,3.9,1.1
		l-0.7,1.1c-1.2-0.5-2.5-1-3.8-1.3L99.4,30z"/>
	<path fill="#2D2D2D" d="M104.6,21.4h11.1v1.1h-4.9c-0.1,0.4-0.3,0.8-0.5,1.2h4.9v8.6H114v-0.7h-7.7v0.7h-1.2v-8.6h3.9
		c0.2-0.4,0.4-0.8,0.6-1.2h-4.9V21.4z M106.2,30.5h1.4v-5.8h-1.4V30.5z M108.8,25.9h2.7v-1.2h-2.7V25.9z M108.8,28.2h2.7v-1.3h-2.7
		V28.2z M108.8,30.5h2.7v-1.4h-2.7V30.5z M112.5,30.5h1.5v-5.8h-1.5V30.5z"/>
	<path fill="#2D2D2D" d="M120.5,20.9c0.4,0.6,0.8,1.2,1.1,2h1.8c0.4-0.6,0.8-1.3,1.2-2.1l1.4,0.4c-0.3,0.6-0.7,1.1-1.1,1.6h3.1v1.1
		h-3.6v6.8h3.9v1.1h-11.5v-1.1h3.8v-6.8h-3.5v-1.1h3.1c-0.3-0.5-0.6-1-1-1.5L120.5,20.9z M118.8,25.1c0.5,1.2,1,2.5,1.4,4l-1.3,0.3
		c-0.3-1.4-0.7-2.7-1.2-3.9L118.8,25.1z M121.8,30.7h1.4v-6.8h-1.4V30.7z M126.3,25.1l1.2,0.5c-0.3,1.3-0.8,2.6-1.4,3.8l-1.2-0.6
		C125.5,27.6,126,26.3,126.3,25.1z"/>
	<path fill="#2D2D2D" d="M131.8,20.8c0.2,0.4,0.4,0.9,0.5,1.4h1.8v1h-4.7v-1h1.8c-0.2-0.4-0.4-0.9-0.6-1.3L131.8,20.8z M133.6,27.7
		v3.6h-2.7v0.9h-1.1v-4.5H133.6z M129.8,24h3.8v1h-3.8V24z M129.8,25.8h3.8v1h-3.8V25.8z M130.9,30.3h1.6v-1.6h-1.6V30.3z
		 M139.2,21.1V24c0,0.3,0.1,0.4,0.4,0.4h1v1.1h-1.2c-0.5,0-0.8-0.1-1.1-0.3c-0.2-0.2-0.3-0.5-0.3-1v-2.1h-1.9c0,0.8-0.1,1.4-0.2,1.8
		c-0.1,0.5-0.5,1.1-1.2,1.7l-0.9-0.8c0.5-0.6,0.8-1,1-1.4c0.1-0.3,0.1-1.1,0.1-2.4H139.2z M134.3,25.8h5.4v0.8
		c-0.3,1.3-0.8,2.4-1.5,3.3c0.7,0.4,1.6,0.8,2.6,1.1l-0.7,1.1c-1.2-0.4-2.1-0.9-2.8-1.3c-0.7,0.5-1.6,1-2.8,1.4l-0.7-1
		c1-0.3,1.9-0.7,2.6-1.2c-0.7-0.7-1.3-1.5-1.8-2.4l1-0.6c0.4,0.9,1,1.6,1.7,2.2l0,0c0.5-0.6,0.9-1.4,1.2-2.4h-4.2V25.8z"/>
	<path fill="#2D2D2D" d="M144.7,21.3l1.2,0.4c-0.4,1.3-0.8,2.2-1.2,2.7c-0.3,0.6-0.9,1.3-1.7,2.2l-1-0.9c0.7-0.7,1.2-1.4,1.6-2
		C144.1,23.1,144.4,22.3,144.7,21.3z M146.4,24.6l1.3,0.5c-0.8,2.1-1.6,3.8-2.4,5.1c1.8-0.1,3.5-0.2,4.9-0.3
		c-0.4-0.8-0.8-1.7-1.2-2.5l1.2-0.4c0.9,1.4,1.6,3,2.3,4.8l-1.4,0.3c-0.1-0.4-0.3-0.9-0.5-1.3c-1.7,0.2-4.3,0.4-8,0.6l-0.2-1.3
		c0.5,0,0.9,0,1.4,0C144.6,29,145.5,27.1,146.4,24.6z M147,21.1h3.5c0.5,1.5,1.4,3,2.9,4.3l-0.8,1.2c-0.7-0.6-1.3-1.3-1.7-2
		c-0.5-0.7-0.9-1.5-1.2-2.4H147V21.1z"/>
	<path fill="#2D2D2D" d="M159.5,21.2v4.2h-3.8v6.9h-1.1V21.2H159.5z M155.7,22.8h2.7v-0.7h-2.7V22.8z M155.7,24.4h2.7v-0.8h-2.7
		V24.4z M156.7,25.9h6.4v0.9h-1.4v1.3h1.8v0.9h-1.8v2.6h-1.1v-2.6h-1.4c0,0.5-0.2,1-0.4,1.3c-0.3,0.5-0.8,0.9-1.6,1.4l-0.9-0.8
		c0.7-0.3,1.2-0.7,1.5-1c0.2-0.2,0.3-0.5,0.3-0.9h-1.8v-0.9h1.8v-1.3h-1.5V25.9z M160.6,28.2v-1.3h-1.4v1.3H160.6z M160.9,21.2h4.4
		v9.7c0,0.4-0.1,0.7-0.3,0.9c-0.2,0.2-0.5,0.3-1,0.3h-1.2l-0.2-1.1l1.2,0c0.3,0,0.4-0.2,0.4-0.5v-5.2h-3.8v-4.2H160.9z M161.4,22.8
		h2.8v-0.7h-2.8V22.8z M164.2,24.4v-0.8h-2.8v0.8H164.2z"/>
</g>
</svg>
