<?xml version="1.0" encoding="utf-8"?>
<!-- Generator: Adobe Illustrator 17.1.0, SVG Export Plug-In . SVG Version: 6.00 Build 0)  -->
<svg version="1.2" baseProfile="tiny" id="圖層_1"
	 xmlns="http://www.w3.org/2000/svg" xmlns:xlink="http://www.w3.org/1999/xlink" x="0px" y="0px" viewBox="0 0 61.2 23.2"
	 xml:space="preserve">
<g>
	<g>
		<path fill="#FFFFFF" d="M7.4,16.4v-1.2h5.8l1.6-5.7h2.3l-1.6,5.7H18v1.2H7.4z M7.7,8.7V7.5h3.9l-0.3-1.7h2.5l0.3,1.7h3.5v1.2H7.7z
			 M9.9,14.5L8.2,9.5h2.3l1.8,5.1H9.9z"/>
	</g>
	<g>
		<path fill="#FFFFFF" d="M23,16.3l-0.2-0.9l-0.4,0.9h-2.7V5.9h5V12h-2.8v3.2h1l-0.6-2.4h2l0.8,3.6H23z M22.7,7.1h-1v1.3h1V7.1z
			 M22.7,9.5h-1v1.3h1V9.5z M27.7,15.5l-0.5-1v1.8h-2.1V5.9h4.7v9.5H27.7z M28,7.1h-0.7v7.3H28V7.1z"/>
	</g>
	<g>
		<path fill="#FFFFFF" d="M41.1,10.4v5.9h-3.6l-0.6-1.2h1.9v-3.9h-2.2L34,16.4h-2.6l2.5-5.1h-1.5v-0.8h-1.2l2.2-4.6h2.5L34,10h5.5
			l-2.1-4.2h2.5l2.3,4.6H41.1z"/>
	</g>
	<g>
		<path fill="#FFFFFF" d="M49.9,14.4v2h-3.7l-0.6-1.1h2v-0.9h-4.3v-1.1h4.3v-0.5l1.7-0.5h-5.3v-1h9.2v1.1l-3.3,0.9h4.2v1.1H49.9z
			 M43.4,7.6V6.5h4.1l-0.3-0.7h2.5L50,6.5h4v1.1H43.4z M44,10.8V8h9.5v2.8H44z M51.2,9.1h-5v0.7h5V9.1z"/>
	</g>
</g>
<g>
	<path fill="#FFFFFF" d="M55.6,21.2H5.7c-1.9,0-3.4-1.5-3.4-3.4V5.6c0-1.9,1.5-3.4,3.4-3.4h49.9c1.9,0,3.4,1.5,3.4,3.4v12.3
		C59,19.7,57.5,21.2,55.6,21.2z M5.7,3.2c-1.3,0-2.4,1.1-2.4,2.4v12.3c0,1.3,1.1,2.4,2.4,2.4h49.9c1.3,0,2.4-1.1,2.4-2.4V5.6
		c0-1.3-1.1-2.4-2.4-2.4H5.7z"/>
</g>
</svg>
